{"glyphs":{"0":{"ha":866,"x_min":62,"x_max":804,"o":"m 653 481 q 639 676 653 595 q 597 808 625 757 q 529 883 570 859 q 433 907 488 907 q 337 883 378 907 q 269 807 296 859 q 227 675 241 756 q 212 481 212 595 q 226 290 212 370 q 268 159 240 210 q 337 83 296 108 q 433 59 378 59 q 528 83 487 59 q 597 158 570 107 q 639 290 625 210 q 653 481 653 370 m 433 -25 q 276 9 345 -25 q 160 108 208 43 q 87 267 113 173 q 62 481 62 361 q 87 697 62 603 q 159 857 112 792 q 276 955 207 922 q 433 989 345 989 q 590 955 521 989 q 707 857 659 922 q 779 697 754 792 q 804 481 804 603 q 778 267 804 361 q 705 108 753 173 q 588 9 657 43 q 433 -25 519 -25 z "},"1":{"ha":669,"x_min":92,"x_max":555,"o":"m 414 171 q 416 122 414 142 q 423 87 418 102 q 456 82 439 83 q 493 81 473 81 l 555 81 l 555 -13 q 446 -3 497 -5 q 347 0 395 0 q 239 -3 292 0 q 132 -13 187 -7 l 132 81 l 193 81 q 230 81 212 81 q 262 87 248 82 q 270 122 267 102 q 273 169 273 142 l 273 845 q 245 860 260 855 q 208 865 230 865 q 190 864 199 865 q 169 861 180 863 l 104 850 l 92 913 q 170 941 132 928 q 245 965 209 955 q 313 982 281 976 q 371 989 345 989 q 399 983 391 989 q 414 968 408 977 l 414 171 z "},"2":{"ha":848,"x_min":71,"x_max":747,"o":"m 414 906 q 340 895 378 906 q 272 860 303 883 q 218 804 241 838 q 189 726 196 770 l 91 808 q 126 887 98 853 q 198 943 155 921 q 295 977 241 966 q 404 989 348 989 q 536 970 478 989 q 634 916 594 951 q 694 833 673 882 q 714 725 714 785 q 704 644 714 684 q 671 563 694 605 q 610 475 648 522 q 518 372 573 428 q 391 249 464 316 q 223 98 317 181 l 492 98 q 545 101 516 98 q 602 118 573 104 q 657 158 631 131 q 704 231 684 184 q 728 227 718 231 q 747 223 739 223 q 745 115 747 165 q 738 18 743 65 q 695 8 718 12 q 642 3 673 5 q 571 1 612 1 q 474 0 530 0 l 134 0 q 91 8 104 0 q 71 34 77 16 q 73 60 71 45 q 80 91 76 74 q 287 299 195 204 q 454 479 379 395 q 514 558 491 522 q 550 624 537 593 q 567 681 563 654 q 572 732 572 707 q 532 863 572 820 q 414 906 492 906 z "},"3":{"ha":814,"x_min":82,"x_max":733,"o":"m 567 744 q 553 815 567 785 q 514 866 538 846 q 459 896 490 886 q 394 906 428 906 q 323 895 359 906 q 257 862 287 884 q 205 807 227 840 q 177 732 184 774 l 85 808 q 120 886 92 852 q 189 943 148 920 q 281 977 230 965 q 385 988 332 988 q 499 976 443 988 q 600 936 555 964 q 671 861 644 908 q 699 743 699 814 q 683 670 699 707 q 638 603 668 634 q 563 546 608 571 q 458 507 518 521 q 664 428 594 490 q 733 256 733 367 q 709 139 733 191 q 642 51 686 87 q 537 -5 598 14 q 400 -25 475 -25 q 289 -14 342 -25 q 193 16 236 -3 q 121 60 151 35 q 82 113 92 85 q 86 144 84 128 q 91 177 88 159 q 97 217 94 195 q 105 266 100 238 l 180 253 q 198 159 180 197 q 247 100 217 122 q 315 68 277 77 q 391 59 353 59 q 477 75 439 59 q 542 118 515 91 q 582 183 568 146 q 596 264 596 220 q 576 351 596 315 q 518 411 556 388 q 427 445 481 434 q 305 456 373 456 l 277 456 l 277 497 l 277 536 l 322 536 q 398 548 356 536 q 478 586 441 560 q 542 650 516 611 q 567 744 567 689 z "},"4":{"ha":821,"x_min":24,"x_max":801,"o":"m 610 170 q 612 121 610 141 q 620 85 614 101 q 653 80 635 81 q 690 79 670 79 l 751 79 l 751 -13 q 646 -3 696 -5 q 549 0 596 0 q 442 -3 494 0 q 335 -13 390 -7 l 335 79 l 395 79 q 433 80 415 79 q 465 85 450 81 q 476 168 476 115 l 476 261 l 51 261 q 24 320 24 282 q 32 338 26 330 q 44 356 37 347 q 229 621 152 511 q 359 804 307 731 q 442 918 412 878 q 488 975 473 958 l 547 975 q 580 972 568 975 q 599 964 593 970 q 608 948 606 958 q 610 922 610 938 l 610 347 l 801 347 l 801 311 q 798 283 801 293 q 788 268 795 273 q 771 262 782 263 q 747 261 761 261 l 610 261 l 610 170 m 476 347 l 476 810 l 165 369 l 153 347 l 476 347 z "},"5":{"ha":837,"x_min":117,"x_max":749,"o":"m 257 567 q 346 598 304 589 q 433 606 388 606 q 557 585 499 606 q 657 524 614 564 q 724 429 700 485 q 749 304 749 373 q 725 167 749 228 q 658 63 702 106 q 552 -2 614 20 q 412 -25 490 -25 q 300 -17 349 -25 q 216 3 252 -9 q 156 30 180 15 q 117 58 132 44 l 117 272 l 200 264 l 231 100 q 266 83 248 91 q 303 71 283 76 q 346 62 323 65 q 398 59 370 59 q 496 79 456 59 q 562 133 536 100 q 598 207 587 166 q 609 290 609 248 q 546 458 609 399 q 361 516 483 516 q 276 503 319 516 q 194 456 233 489 l 147 469 l 147 945 q 177 969 159 964 q 220 975 195 975 l 438 975 q 512 975 477 975 q 577 978 546 976 q 638 982 609 979 q 697 991 668 985 l 702 893 q 681 876 694 883 q 650 865 669 869 q 606 860 631 861 q 546 858 581 858 q 417 866 486 858 q 262 890 348 873 l 257 567 z "},"6":{"ha":831,"x_min":85,"x_max":766,"o":"m 234 391 q 284 142 234 226 q 432 59 334 59 q 510 75 475 59 q 571 121 545 91 q 610 197 596 152 q 625 299 625 241 q 613 392 625 352 q 579 460 601 433 q 528 502 558 488 q 462 516 498 516 q 421 511 441 516 q 381 496 401 505 q 343 476 361 488 q 308 454 324 465 q 234 391 270 427 m 226 484 q 349 573 286 544 q 485 602 413 602 q 596 581 545 602 q 685 522 648 560 q 745 427 723 483 q 766 302 766 372 q 742 170 766 230 q 673 66 718 110 q 566 -1 629 23 q 425 -25 503 -25 q 279 2 342 -25 q 172 88 216 30 q 107 235 129 146 q 85 448 85 324 q 108 681 85 580 q 179 850 131 782 q 302 954 227 919 q 479 989 376 989 q 550 985 515 989 q 616 975 585 982 q 672 959 647 968 q 713 937 698 949 l 704 724 l 623 724 l 601 869 q 531 898 564 888 q 468 907 498 907 q 380 887 418 907 q 316 836 342 868 q 271 762 289 804 q 243 675 254 720 q 229 585 233 630 q 225 500 225 539 q 225 492 225 496 q 226 484 225 488 z "},"7":{"ha":814,"x_min":75,"x_max":748,"o":"m 75 937 q 196 965 112 956 q 416 975 279 975 l 730 975 q 738 954 734 964 q 743 931 741 943 q 747 905 745 920 q 748 871 748 890 l 425 127 q 396 67 409 92 q 368 25 383 41 q 334 0 353 8 q 287 -7 315 -7 q 224 16 238 -7 q 242 60 231 39 l 635 884 l 339 884 q 259 881 294 884 q 201 869 224 878 l 184 724 l 106 724 l 75 937 z "},"8":{"ha":796,"x_min":64,"x_max":732,"o":"m 699 751 q 684 672 699 707 q 645 608 669 637 q 590 553 621 579 q 526 502 559 528 q 602 461 565 484 q 668 408 640 438 q 715 338 697 377 q 732 249 732 298 q 706 126 732 178 q 633 40 680 74 q 524 -9 587 7 q 390 -25 462 -25 q 260 -8 320 -25 q 157 39 201 8 q 89 116 113 71 q 64 219 64 161 q 75 305 64 264 q 110 381 86 346 q 170 446 134 416 q 257 498 206 475 q 173 550 208 523 q 118 609 139 578 q 88 677 97 641 q 79 753 79 713 q 104 855 79 811 q 172 928 129 899 q 271 974 214 958 q 390 989 327 989 q 507 974 451 989 q 606 928 563 958 q 673 854 648 899 q 699 751 699 810 m 343 458 q 235 368 273 423 q 196 241 196 313 q 211 162 196 196 q 252 105 226 127 q 313 71 277 82 q 390 59 349 59 q 478 73 441 59 q 540 110 515 87 q 576 164 564 134 q 589 227 589 195 q 539 348 589 295 q 401 435 490 400 l 343 458 m 568 745 q 555 814 568 784 q 518 864 542 844 q 462 896 495 885 q 390 907 429 907 q 317 896 350 907 q 261 865 285 886 q 225 814 238 844 q 213 745 213 784 q 228 678 213 709 q 269 622 242 647 q 333 576 296 596 q 416 543 370 557 q 473 578 446 559 q 522 622 500 597 q 555 676 543 646 q 568 745 568 707 z "},"9":{"ha":829,"x_min":71,"x_max":745,"o":"m 596 641 q 582 756 596 707 q 542 840 568 806 q 479 890 516 873 q 398 907 443 907 q 322 891 357 907 q 264 845 288 876 q 226 771 239 815 q 212 671 212 728 q 223 578 212 618 q 253 510 234 538 q 300 469 273 483 q 361 454 328 454 q 456 473 414 454 q 530 519 499 491 q 577 580 560 547 q 596 641 595 612 m 602 479 q 480 396 542 425 q 346 367 418 367 q 237 388 288 367 q 150 448 186 409 q 92 543 113 487 q 71 669 71 599 q 94 798 71 739 q 162 899 118 857 q 267 965 205 941 q 406 989 329 989 q 552 962 488 989 q 658 881 615 936 q 723 741 701 826 q 745 537 745 655 q 723 294 745 399 q 654 118 701 189 q 536 11 608 47 q 364 -25 464 -25 q 290 -20 328 -25 q 218 -6 252 -16 q 157 17 184 3 q 114 47 130 30 l 114 254 l 200 246 l 229 90 q 362 59 299 59 q 463 87 418 59 q 539 166 508 115 q 587 286 570 216 q 604 440 604 356 q 604 460 604 450 q 602 479 603 469 z "},"\u0000":{"ha":0,"x_min":0,"x_max":0,"o":""},"\r":{"ha":0,"x_min":0,"x_max":0,"o":""},"\u0002":{"ha":0,"x_min":0,"x_max":0,"o":""},"\t":{"ha":0,"x_min":0,"x_max":0,"o":""},"\n":{"ha":0,"x_min":0,"x_max":0,"o":""}," ":{"ha":361,"x_min":0,"x_max":0,"o":""},"!":{"ha":477,"x_min":143,"x_max":333,"o":"m 291 273 q 243 265 269 265 q 215 268 225 265 q 198 277 204 271 q 190 294 192 283 q 186 319 187 304 l 163 770 q 154 882 159 838 q 149 944 149 927 q 149 953 149 949 q 149 962 149 958 q 185 982 164 975 q 239 988 207 988 q 299 972 282 988 q 316 921 316 956 q 316 911 316 917 q 315 892 315 905 q 313 854 315 878 q 310 788 312 829 q 304 685 307 747 q 296 536 301 624 q 291 420 293 471 q 288 334 288 370 q 289 302 288 318 q 291 273 290 287 m 238 -15 q 196 -7 214 -15 q 166 14 178 1 q 149 44 155 27 q 143 78 143 60 q 149 112 143 95 q 167 143 155 130 q 197 165 179 157 q 238 174 214 174 q 279 165 261 174 q 309 143 297 157 q 327 112 321 130 q 333 78 333 95 q 327 44 333 60 q 310 14 321 27 q 280 -7 298 1 q 238 -15 262 -15 z "},"\"":{"ha":537,"x_min":79,"x_max":458,"o":"m 188 667 q 171 655 180 660 q 146 650 161 650 q 121 657 130 650 q 107 674 112 664 q 101 699 102 685 q 98 727 99 713 l 87 854 q 82 917 84 885 q 79 983 79 948 q 109 1005 91 997 q 153 1013 127 1013 q 198 999 186 1013 q 211 956 211 984 q 210 929 211 941 q 208 907 210 918 l 188 667 m 435 667 q 418 655 428 661 q 393 650 409 650 q 369 657 378 650 q 355 673 360 663 q 348 697 350 684 q 345 724 347 710 l 334 854 q 329 917 332 885 q 326 983 327 948 q 356 1005 338 997 q 401 1013 374 1013 q 446 999 433 1013 q 458 956 458 984 q 456 907 458 928 l 435 667 z "},"#":{"ha":841,"x_min":56,"x_max":785,"o":"m 573 302 l 521 50 l 484 50 q 447 54 461 50 q 427 73 433 59 q 435 112 429 89 q 446 163 440 134 l 473 302 l 294 302 l 241 50 l 198 50 q 181 50 190 50 q 165 52 172 50 q 154 58 158 54 q 149 67 149 61 q 153 103 149 81 q 165 163 157 125 l 195 302 l 56 302 l 56 338 q 57 363 56 353 q 63 381 58 374 q 78 391 68 388 q 106 395 88 395 l 212 395 l 250 575 l 106 575 l 106 624 q 109 648 106 640 q 118 662 112 657 q 134 667 125 666 q 157 668 144 668 l 269 668 l 321 916 l 359 916 q 396 913 382 916 q 417 897 411 910 q 412 871 414 885 q 408 844 411 858 l 370 668 l 548 668 l 601 916 l 637 916 q 668 915 654 916 q 692 909 682 914 q 692 903 692 906 q 692 895 692 900 q 688 860 691 881 q 677 806 685 838 l 648 668 l 785 668 l 785 633 q 784 606 785 617 q 778 588 783 595 q 763 578 773 581 q 734 575 753 575 l 630 575 l 591 395 l 736 395 l 736 346 q 728 315 736 324 q 704 302 721 305 l 573 302 m 313 395 l 492 395 l 530 575 l 351 575 l 313 395 z "},"$":{"ha":883,"x_min":92,"x_max":785,"o":"m 491 996 q 574 991 534 996 q 647 978 614 987 q 705 957 680 970 q 742 928 730 944 q 741 896 741 912 q 738 864 740 880 l 707 762 l 644 779 q 618 826 633 804 q 586 864 604 848 q 544 892 568 881 q 491 909 521 904 l 491 540 q 612 483 557 512 q 705 419 666 454 q 764 341 743 384 q 785 242 785 298 q 764 139 785 186 q 703 58 742 92 q 610 3 664 24 q 491 -23 555 -18 l 491 -161 l 445 -161 q 417 -159 427 -161 q 403 -150 408 -156 q 397 -133 398 -143 q 396 -108 396 -123 l 396 -24 q 136 49 254 -17 q 107 67 118 58 q 92 90 97 75 q 98 165 92 127 l 138 254 l 205 227 q 282 108 237 147 q 396 62 328 69 l 396 435 q 276 494 329 465 q 186 556 223 523 q 131 630 150 589 q 111 724 111 671 q 131 827 111 782 q 188 905 151 872 q 277 959 224 938 q 396 989 330 980 l 396 1082 l 441 1082 q 475 1075 463 1082 q 491 1051 486 1068 l 491 996 m 252 791 q 248 772 249 782 q 247 751 247 762 q 257 692 247 718 q 287 646 267 667 q 334 609 306 625 q 396 578 361 593 l 396 911 q 299 871 334 903 q 252 791 264 840 m 640 220 q 629 276 640 251 q 600 322 619 301 q 553 360 581 342 q 491 395 526 378 l 491 60 q 551 79 524 65 q 598 113 578 92 q 629 160 618 133 q 640 220 640 187 z "},"%":{"ha":1114,"x_min":62,"x_max":1052,"o":"m 298 -23 l 213 9 q 295 146 227 35 q 368 266 324 194 q 473 440 411 338 q 618 678 535 542 q 809 990 701 814 q 849 975 836 982 q 869 963 862 968 q 880 953 876 958 q 890 944 883 949 l 298 -23 m 275 932 q 193 885 220 932 q 167 733 167 838 q 194 582 167 629 q 275 535 220 535 q 355 582 328 535 q 381 733 381 629 q 355 885 381 838 q 275 932 328 932 m 487 733 q 454 581 487 637 q 360 497 422 524 q 318 484 338 488 q 279 479 298 479 q 195 495 234 479 q 126 541 155 510 q 79 621 96 572 q 62 734 62 669 q 79 848 62 800 q 124 927 96 897 q 192 973 153 958 q 275 988 231 988 q 357 973 319 988 q 425 927 396 958 q 470 848 454 897 q 487 733 487 800 m 839 436 q 759 389 785 436 q 732 237 732 342 q 759 85 732 132 q 840 38 785 38 q 920 85 893 38 q 946 237 946 132 q 920 389 946 342 q 839 436 893 436 m 839 -18 q 753 -1 792 -18 q 685 48 713 16 q 641 127 656 80 q 625 237 625 175 q 640 347 625 299 q 684 427 656 395 q 751 475 712 459 q 839 492 791 492 q 926 475 886 492 q 993 427 965 459 q 1036 347 1021 395 q 1052 237 1052 300 q 1036 127 1052 175 q 991 48 1020 80 q 924 -1 963 16 q 839 -18 885 -18 z "},"&":{"ha":949,"x_min":50,"x_max":927,"o":"m 410 446 q 327 432 364 446 q 263 394 290 419 q 221 333 236 369 q 207 250 207 296 q 218 175 207 210 q 256 116 230 141 q 323 78 282 92 q 424 64 365 64 q 512 77 471 64 q 582 117 553 90 q 628 186 612 144 q 645 286 645 228 q 644 344 645 316 q 640 395 642 372 l 634 446 l 410 446 m 927 534 l 927 346 l 884 346 q 868 396 876 377 q 850 427 861 416 q 827 441 840 437 q 796 446 814 446 l 749 446 q 762 343 755 398 q 768 233 768 288 q 744 124 768 172 q 674 43 720 76 q 562 -8 629 9 q 412 -25 496 -25 q 243 -5 312 -25 q 132 52 174 16 q 70 140 89 89 q 50 254 50 191 q 63 333 50 294 q 102 403 76 371 q 169 459 129 435 q 261 494 208 483 l 261 498 q 185 527 219 508 q 128 574 152 546 q 92 637 104 602 q 79 717 79 673 q 98 817 79 771 q 158 895 118 862 q 257 945 197 927 q 397 964 317 964 q 490 957 446 964 q 573 940 535 950 q 639 917 610 929 q 684 894 667 905 l 668 705 l 585 705 q 554 786 570 752 q 518 843 538 821 q 471 875 498 865 q 407 886 444 886 q 322 872 357 886 q 264 834 287 858 q 231 778 241 810 q 220 711 220 746 q 232 645 220 677 q 269 589 244 614 q 333 549 294 564 q 424 534 371 534 l 927 534 z "},"'":{"ha":291,"x_min":79,"x_max":212,"o":"m 188 667 q 171 655 180 661 q 146 650 161 650 q 121 657 130 650 q 108 673 113 663 q 101 697 103 684 q 98 724 100 710 l 87 854 q 82 912 84 883 q 79 973 79 941 q 86 990 79 983 q 103 1003 92 998 q 127 1010 113 1008 q 154 1013 140 1013 q 198 999 185 1013 q 212 956 212 984 q 211 929 212 941 q 209 907 210 918 l 188 667 z "},"(":{"ha":399,"x_min":79,"x_max":354,"o":"m 79 456 q 92 616 79 537 q 129 770 104 696 q 186 910 153 844 q 263 1034 220 977 q 287 1052 273 1047 q 312 1056 300 1056 q 325 1053 316 1056 l 354 1039 q 288 907 316 977 q 242 762 260 837 q 216 610 224 688 q 207 456 207 533 q 216 301 207 378 q 242 149 224 224 q 288 5 260 75 q 354 -127 316 -65 l 325 -141 q 312 -144 316 -144 q 287 -140 300 -144 q 263 -122 275 -135 q 186 0 220 -67 q 129 141 153 66 q 92 295 104 215 q 79 456 79 374 z "},")":{"ha":399,"x_min":45,"x_max":319,"o":"m 319 456 q 307 295 319 374 q 270 141 294 215 q 212 0 246 66 q 136 -122 178 -67 q 112 -140 124 -135 q 87 -144 99 -144 q 74 -141 83 -144 l 45 -127 q 111 5 83 -65 q 156 149 138 75 q 183 301 174 224 q 192 456 192 378 q 183 610 192 533 q 156 762 174 688 q 111 907 138 837 q 45 1039 83 977 l 74 1053 q 87 1056 83 1056 q 112 1052 99 1056 q 136 1034 125 1047 q 212 911 178 978 q 270 770 246 844 q 307 616 294 696 q 319 456 319 536 z "},"*":{"ha":628,"x_min":57,"x_max":563,"o":"m 190 504 l 267 674 l 85 583 l 57 688 l 251 732 l 83 847 l 172 924 l 292 772 l 312 977 l 433 942 l 353 764 l 536 849 l 563 745 l 372 706 l 536 572 l 447 500 l 328 666 l 310 454 l 190 504 z "},"+":{"ha":874,"x_min":90,"x_max":784,"o":"m 486 459 l 784 459 l 784 414 q 780 384 784 394 q 769 368 777 373 q 751 362 762 363 q 726 361 741 361 l 486 361 l 486 63 l 439 63 q 409 66 420 63 q 394 77 399 70 q 388 95 389 84 q 387 120 387 106 l 387 361 l 90 361 l 90 408 q 94 437 90 427 q 105 453 98 448 q 124 458 113 458 q 151 459 135 459 l 387 459 l 387 756 l 433 756 q 468 749 456 756 q 486 724 480 742 l 486 459 z "},",":{"ha":313,"x_min":41,"x_max":235,"o":"m 80 -214 q 50 -202 59 -214 l 41 -181 q 83 -101 64 -149 q 106 2 102 -54 l 109 28 q 86 32 97 28 q 68 43 76 36 q 56 58 60 50 q 52 76 52 66 q 62 122 54 104 q 83 151 71 140 q 110 165 95 161 q 139 169 125 169 q 215 148 194 169 q 235 93 235 127 q 223 3 235 47 q 189 -79 210 -40 q 140 -153 168 -119 q 80 -214 111 -187 z "},"-":{"ha":463,"x_min":35,"x_max":429,"o":"m 35 352 l 35 399 q 39 423 35 414 q 50 435 43 431 q 67 440 57 439 q 90 441 77 441 l 429 441 l 429 406 q 421 371 429 383 q 396 352 414 358 l 35 352 z "},".":{"ha":407,"x_min":111,"x_max":296,"o":"m 205 -23 q 163 -15 181 -23 q 134 6 146 -7 q 117 36 123 20 q 111 71 111 53 q 117 105 111 88 q 134 136 123 123 q 163 158 146 150 q 203 166 180 166 q 243 158 226 166 q 272 136 260 150 q 290 105 284 123 q 296 70 296 88 q 290 37 296 53 q 274 7 285 20 q 245 -14 262 -6 q 205 -23 228 -22 z "},"/":{"ha":578,"x_min":-2,"x_max":578,"o":"m 523 1029 q 578 1011 567 1029 q 575 1001 577 1007 q 566 979 572 996 q 547 932 559 963 q 511 848 534 901 q 454 715 488 795 q 371 519 420 635 q 256 250 322 404 q 104 -106 190 96 l 55 -106 q -2 -85 12 -106 l 475 1029 l 523 1029 z "},":":{"ha":412,"x_min":113,"x_max":301,"o":"m 207 165 q 244 157 227 165 q 273 135 261 149 q 293 103 286 121 q 300 67 300 85 q 292 26 300 43 q 271 -2 283 9 q 243 -18 258 -13 q 212 -23 227 -23 q 167 -16 186 -23 q 136 4 148 -8 q 118 33 124 17 q 113 66 113 49 q 139 141 113 117 q 207 165 165 165 m 113 623 q 139 690 113 665 q 210 715 165 715 q 247 708 231 715 q 276 689 264 701 q 295 661 288 677 q 301 629 301 646 q 294 584 301 603 q 274 553 286 565 q 245 534 262 541 q 212 528 229 528 q 136 555 159 528 q 113 623 113 583 z "},";":{"ha":321,"x_min":28,"x_max":243,"o":"m 126 713 q 152 715 136 715 q 189 708 172 715 q 218 689 206 701 q 237 661 231 677 q 243 629 243 646 q 236 584 243 603 q 216 553 229 565 q 188 534 204 541 q 155 528 172 528 q 109 535 128 528 q 78 555 90 543 q 60 586 66 568 q 55 623 55 603 q 73 683 55 660 q 126 713 91 706 m 28 -189 q 82 -87 60 -140 q 109 28 105 -33 q 88 31 98 28 q 70 41 78 34 q 57 60 62 48 q 52 87 52 71 q 77 145 55 122 q 140 168 100 168 q 187 162 169 168 q 216 145 205 156 q 230 120 226 135 q 234 87 234 105 q 221 2 234 45 q 189 -82 209 -42 q 142 -156 168 -122 q 87 -213 115 -190 q 77 -214 83 -214 q 46 -209 58 -214 q 28 -189 35 -204 z "},"<":{"ha":941,"x_min":90,"x_max":850,"o":"m 111 437 q 329 536 234 493 q 495 612 424 580 q 616 668 566 645 q 701 706 667 691 q 755 731 735 722 q 788 745 776 740 q 805 752 800 749 q 814 755 810 754 q 821 748 818 753 q 829 734 825 743 q 838 709 833 724 q 850 668 843 693 l 235 386 l 849 106 q 838 65 842 81 q 829 39 833 49 q 821 24 825 29 q 814 17 818 20 q 580 122 760 39 q 90 346 399 204 q 90 374 90 363 q 90 390 90 385 q 90 399 90 396 q 90 404 90 401 q 93 421 90 412 q 111 437 97 431 z "},"=":{"ha":873,"x_min":90,"x_max":783,"o":"m 90 497 l 90 544 q 95 573 90 563 q 108 589 99 584 q 129 595 117 594 q 157 595 141 595 l 783 595 l 783 550 q 776 514 783 526 q 751 497 768 503 l 90 497 m 90 225 l 90 271 q 92 298 90 288 q 100 313 94 308 q 117 320 106 319 q 144 322 127 322 l 783 322 l 783 278 q 776 242 783 254 q 751 225 768 231 l 90 225 z "},">":{"ha":940,"x_min":90,"x_max":850,"o":"m 833 436 q 846 419 843 431 q 850 389 850 406 l 850 345 q 620 240 720 286 q 446 161 520 195 q 320 103 372 127 q 233 64 268 79 q 179 39 199 48 q 148 25 159 30 q 133 19 137 20 q 126 16 129 17 q 116 24 121 19 q 108 40 112 30 q 100 66 104 50 q 92 105 96 81 l 705 387 l 90 667 l 132 756 l 833 436 z "},"?":{"ha":667,"x_min":60,"x_max":597,"o":"m 398 64 q 390 23 398 40 q 369 -5 382 6 q 341 -21 356 -16 q 311 -26 326 -26 q 264 -18 283 -26 q 234 2 245 -10 q 216 31 222 15 q 211 63 211 47 q 236 138 211 114 q 304 163 262 163 q 342 154 325 163 q 371 132 359 146 q 391 100 384 118 q 398 64 398 83 m 313 256 q 283 277 299 264 q 254 306 267 290 q 232 342 241 323 q 223 385 223 362 q 240 447 223 418 q 281 503 256 476 q 335 556 306 530 q 388 613 363 583 q 430 677 413 643 q 446 754 446 711 q 437 814 446 787 q 411 860 428 841 q 371 888 395 878 q 319 898 348 898 q 269 895 294 898 q 221 880 243 891 q 181 847 199 869 q 153 787 163 825 l 60 787 q 73 859 60 828 q 105 912 85 890 q 152 949 125 935 q 207 973 178 964 q 266 985 236 981 q 322 989 295 989 q 434 973 384 989 q 521 926 485 957 q 577 852 557 896 q 597 751 597 808 q 578 660 597 701 q 532 584 559 618 q 471 521 504 550 q 410 467 438 492 q 364 419 382 442 q 345 374 345 397 q 347 350 345 364 q 351 320 348 336 q 357 288 353 304 q 366 256 361 271 l 313 256 z "},"@":{"ha":1261,"x_min":90,"x_max":1187,"o":"m 1054 0 q 866 -87 964 -58 q 673 -117 769 -117 q 509 -97 586 -117 q 367 -41 432 -77 q 251 44 302 -5 q 164 155 199 94 q 109 284 128 215 q 90 427 90 353 q 112 586 90 511 q 171 724 133 661 q 263 837 210 787 q 383 923 317 888 q 524 977 449 958 q 680 996 599 996 q 881 962 788 996 q 1041 866 973 928 q 1148 716 1109 804 q 1187 520 1187 628 q 1167 386 1187 452 q 1109 268 1146 320 q 1021 183 1072 216 q 909 151 970 151 q 852 160 878 151 q 809 185 827 170 q 777 222 790 201 q 758 268 764 243 l 752 268 q 678 184 724 216 q 571 151 632 151 q 502 163 535 151 q 443 201 468 176 q 402 267 417 227 q 387 361 387 307 q 411 505 387 435 q 479 627 435 574 q 584 711 523 680 q 718 743 645 743 q 788 726 757 743 q 839 669 819 709 l 865 713 l 938 713 l 859 374 q 853 340 855 357 q 850 307 850 323 q 868 241 850 262 q 924 220 885 220 q 991 244 958 220 q 1050 311 1024 269 q 1092 408 1076 353 q 1107 524 1107 463 q 1077 681 1107 608 q 990 807 1046 753 q 856 892 935 861 q 679 924 777 924 q 504 890 588 924 q 354 793 419 857 q 251 636 290 730 q 212 422 212 543 q 250 228 212 315 q 351 79 287 141 q 500 -16 415 18 q 683 -49 586 -49 q 1027 50 867 -49 l 1054 0 m 511 361 q 518 307 511 332 q 538 263 526 282 q 570 234 551 245 q 611 224 588 224 q 669 240 644 224 q 713 285 694 257 q 747 352 732 313 q 771 433 761 390 q 789 523 782 477 q 803 614 797 570 q 778 664 798 646 q 722 682 758 682 q 644 653 682 682 q 577 580 606 625 q 529 477 547 534 q 511 361 511 420 z "},"A":{"ha":1072,"x_min":0,"x_max":1072,"o":"m 509 854 l 338 357 l 682 357 l 515 854 l 509 854 m 917 176 q 938 127 928 147 q 958 92 947 107 q 989 86 973 87 q 1023 85 1005 85 l 1053 85 l 1072 -9 q 986 -1 1027 -3 q 908 0 946 0 q 855 0 880 0 q 805 -2 829 -1 q 756 -4 781 -3 q 706 -9 732 -6 l 693 85 l 705 85 q 741 86 724 85 q 772 92 758 87 q 767 127 771 107 q 752 174 762 148 l 707 287 l 316 287 l 279 176 q 268 133 271 151 q 264 100 264 115 q 269 92 264 94 q 280 87 273 89 q 296 86 288 86 q 313 85 304 85 l 344 85 l 338 -9 q 264 -1 300 -3 q 194 0 229 0 q 97 -1 142 0 q 0 -9 52 -3 l 20 85 l 52 85 q 86 86 70 85 q 117 92 102 87 q 138 127 128 107 q 158 174 149 148 q 184 242 166 196 q 225 349 201 288 q 276 479 249 410 q 332 619 304 549 l 473 975 l 535 975 q 584 972 566 975 q 618 964 602 969 l 917 176 z "},"B":{"ha":988,"x_min":53,"x_max":903,"o":"m 359 85 l 526 85 q 697 132 643 85 q 751 262 751 178 q 690 411 751 361 q 500 461 630 461 q 435 461 460 461 q 396 461 411 461 q 373 461 381 461 q 359 460 366 460 l 359 85 m 730 722 q 716 798 730 765 q 674 853 703 831 q 600 887 646 876 q 490 898 555 898 q 434 897 457 898 q 396 895 411 896 q 372 893 380 894 q 359 892 363 892 l 359 545 q 416 542 387 543 q 475 540 445 540 q 581 551 534 540 q 661 585 628 562 q 712 642 694 608 q 730 722 730 675 m 208 783 q 197 880 208 845 q 171 883 185 882 q 142 884 157 884 q 98 883 121 884 q 53 881 75 882 l 53 958 q 259 978 144 971 q 522 985 374 985 q 789 921 700 985 q 878 726 878 856 q 863 648 878 685 q 822 583 848 612 q 758 534 795 553 q 675 507 720 514 q 903 267 903 477 q 885 160 903 204 q 833 87 866 117 q 753 40 800 57 q 653 14 707 22 q 538 2 599 5 q 413 0 477 0 q 240 -2 325 0 q 66 -9 155 -5 l 66 85 l 127 85 q 164 86 146 85 q 197 92 182 87 q 208 174 208 119 l 208 783 z "},"C":{"ha":932,"x_min":79,"x_max":886,"o":"m 886 56 q 738 -4 820 17 q 552 -25 656 -25 q 363 5 450 -25 q 214 96 277 35 q 115 249 151 157 q 79 465 79 340 q 112 688 79 590 q 207 852 144 785 q 360 954 269 919 q 569 989 452 989 q 667 982 621 989 q 753 965 714 975 q 822 942 792 954 q 870 919 852 930 l 854 730 l 770 730 q 736 809 753 775 q 695 864 718 842 q 641 896 672 886 q 566 907 610 907 q 419 875 480 907 q 319 788 358 843 q 261 657 280 732 q 243 494 243 581 q 266 303 243 384 q 330 170 288 223 q 431 92 372 117 q 564 66 490 66 q 710 87 633 66 q 876 150 787 109 l 886 56 z "},"D":{"ha":1097,"x_min":53,"x_max":1018,"o":"m 278 0 q 170 -3 224 0 q 62 -9 117 -5 l 62 86 l 123 86 q 160 87 142 86 q 193 92 178 87 q 203 174 203 123 l 203 777 q 200 830 203 807 q 193 873 197 854 q 160 880 178 879 q 123 881 142 881 l 53 881 l 53 960 q 262 979 145 972 q 530 985 380 985 q 661 976 598 985 q 779 943 724 966 q 877 882 833 920 q 952 788 921 844 q 1001 656 984 732 q 1018 481 1018 581 q 992 286 1018 366 q 919 152 966 205 q 805 68 872 98 q 656 22 739 37 q 478 4 574 7 q 278 0 382 0 m 349 85 q 370 84 360 84 q 391 84 380 84 q 532 91 468 84 q 648 116 597 98 q 739 162 700 133 q 804 237 778 192 q 842 343 829 281 q 855 486 855 404 q 834 678 855 600 q 771 803 814 755 q 664 871 728 850 q 511 891 599 891 q 420 890 463 891 q 349 888 376 888 l 349 85 z "},"E":{"ha":920,"x_min":53,"x_max":861,"o":"m 817 975 l 835 887 q 842 853 838 870 q 847 820 845 836 q 851 793 850 805 q 853 776 853 782 l 753 772 l 748 806 q 742 837 745 821 q 732 869 738 854 q 667 884 709 880 q 558 888 626 888 q 537 888 550 888 q 500 887 524 888 q 440 886 476 887 q 349 884 404 885 l 349 542 l 580 542 q 605 544 593 542 q 627 552 617 545 q 646 575 637 559 q 662 617 654 590 l 697 617 q 695 493 697 555 q 688 376 692 431 l 646 376 q 630 418 637 401 q 612 444 622 434 q 589 457 602 453 q 557 460 576 460 l 349 460 l 349 85 l 659 85 q 721 92 693 85 q 759 109 748 99 q 769 151 764 124 q 777 222 774 177 q 818 221 794 222 q 861 220 841 220 l 861 142 q 859 74 861 109 q 854 14 857 39 q 811 4 834 8 q 758 -4 789 -1 q 687 -8 728 -7 q 589 -9 646 -9 q 509 -8 547 -9 q 432 -5 470 -7 q 356 -1 394 -3 q 276 0 317 0 q 168 -1 220 0 q 60 -9 115 -3 l 60 85 l 121 85 q 159 86 141 85 q 191 92 176 87 q 201 174 201 120 l 201 796 q 198 841 201 822 q 190 874 195 860 q 161 880 177 880 q 128 881 146 881 l 53 881 l 53 954 q 209 970 119 966 q 401 975 299 975 l 817 975 z "},"F":{"ha":908,"x_min":53,"x_max":848,"o":"m 355 545 l 556 545 q 581 547 570 545 q 603 556 593 549 q 622 578 613 564 q 637 617 630 592 l 673 617 q 671 493 673 555 q 665 376 669 431 l 622 376 q 606 416 614 401 q 588 441 597 432 q 565 453 578 450 q 534 456 552 456 l 355 456 l 355 176 q 357 127 355 147 q 365 92 360 107 q 397 86 380 87 q 435 85 415 85 l 496 85 l 496 -9 q 384 -3 436 -6 q 281 0 332 0 q 180 -3 229 0 q 81 -9 132 -5 q 74 -9 77 -9 q 66 -9 70 -9 l 66 85 l 127 85 q 164 86 146 85 q 197 92 182 87 q 207 165 207 118 l 207 799 q 196 874 207 848 q 167 880 182 880 q 134 881 151 881 l 53 881 l 53 954 q 253 969 135 964 q 524 975 372 975 l 822 975 q 835 889 830 924 q 843 831 840 854 q 847 795 846 808 q 848 776 848 782 l 749 772 q 746 812 749 785 q 731 869 742 839 q 669 884 709 880 q 564 888 629 888 q 542 888 555 888 q 506 887 529 888 q 446 886 482 887 q 355 884 409 885 l 355 545 z "},"G":{"ha":946,"x_min":79,"x_max":920,"o":"m 608 989 q 702 982 656 989 q 785 965 747 975 q 852 942 823 954 q 898 919 881 930 l 881 730 l 798 730 q 763 809 781 775 q 722 864 745 842 q 667 896 699 886 q 592 907 636 907 q 437 877 503 907 q 328 792 372 847 q 264 657 285 736 q 243 478 243 578 q 264 310 243 386 q 327 180 286 234 q 430 96 369 125 q 572 66 492 66 q 682 75 632 66 q 773 103 732 83 l 773 260 q 771 308 773 286 q 764 348 769 331 q 731 355 749 353 q 691 357 713 357 l 611 357 l 611 431 q 641 433 623 431 q 686 437 659 435 q 754 441 714 439 q 848 443 793 443 q 882 443 865 443 q 920 442 900 443 q 918 387 918 410 q 916 348 917 364 q 916 323 916 332 q 916 307 916 313 l 916 68 q 768 1 856 28 q 571 -25 681 -25 q 378 4 467 -25 q 222 93 288 33 q 117 245 155 153 q 79 463 79 337 q 117 695 79 596 q 223 859 154 793 q 389 957 292 924 q 608 989 487 989 z "},"H":{"ha":1150,"x_min":53,"x_max":1097,"o":"m 806 458 l 343 458 l 343 176 q 346 127 343 147 q 353 92 348 107 q 386 86 368 87 q 422 85 403 85 l 484 85 l 484 -9 q 381 -1 429 -3 q 289 0 334 0 q 171 -1 228 0 q 54 -9 114 -2 l 54 85 l 115 85 q 152 86 135 85 q 184 92 170 87 q 195 174 195 121 l 195 801 q 192 847 195 827 q 184 882 189 867 q 152 889 169 888 q 114 890 134 890 l 53 890 l 53 964 q 151 972 100 970 q 263 975 201 975 q 386 973 329 975 q 486 964 443 972 l 486 890 l 422 890 q 386 889 403 890 q 353 882 368 888 q 346 847 348 867 q 343 801 343 827 l 343 550 l 806 550 l 806 801 q 804 847 806 827 q 795 882 801 867 q 763 889 781 888 q 726 890 745 890 l 665 890 l 665 964 q 762 972 711 970 q 875 975 813 975 q 998 973 941 975 q 1097 964 1055 972 l 1097 890 l 1034 890 q 997 889 1015 890 q 964 882 979 888 q 957 847 960 867 q 954 801 954 827 l 954 176 q 956 127 954 147 q 964 92 959 107 q 996 86 979 87 q 1034 85 1014 85 l 1095 85 l 1095 -9 q 992 -1 1040 -3 q 899 0 945 0 q 782 -1 838 0 q 665 -9 725 -2 l 665 85 l 726 85 q 763 86 745 85 q 795 92 781 87 q 806 174 806 119 l 806 458 z "},"I":{"ha":537,"x_min":53,"x_max":484,"o":"m 54 85 l 114 85 q 152 86 134 85 q 184 92 169 87 q 195 174 195 121 l 195 805 q 192 849 195 831 q 184 882 189 867 q 152 889 169 888 q 114 890 134 890 l 53 890 l 53 964 q 151 972 100 970 q 267 975 203 975 q 388 973 332 975 q 484 964 444 972 l 484 890 l 422 890 q 385 889 402 890 q 352 882 368 888 q 345 849 348 867 q 342 805 342 831 l 342 176 q 345 127 342 147 q 352 92 348 107 q 385 86 368 87 q 422 85 402 85 l 483 85 l 483 -9 q 384 -1 430 -3 q 292 0 337 0 q 173 -1 231 0 q 54 -9 115 -3 l 54 85 z "},"J":{"ha":694,"x_min":32,"x_max":655,"o":"m 512 214 q 495 68 512 131 q 447 -36 478 5 q 371 -99 416 -78 q 271 -120 326 -120 q 219 -117 252 -120 q 151 -108 186 -114 q 83 -93 115 -102 q 32 -72 50 -84 q 33 -57 32 -69 q 35 -19 33 -44 q 39 47 36 7 q 45 145 41 87 l 141 141 q 149 85 144 114 q 158 32 153 56 q 170 -24 163 3 q 197 -30 183 -27 q 223 -33 210 -32 q 251 -35 237 -35 q 311 -16 288 -35 q 345 39 334 3 q 360 124 357 74 q 364 238 364 175 l 364 801 q 353 882 364 854 q 321 889 339 888 q 283 890 304 890 l 222 890 l 222 964 q 320 972 269 970 q 433 975 372 975 q 556 973 499 975 q 655 964 612 972 l 655 890 l 593 890 q 555 889 572 890 q 523 882 537 888 q 512 800 512 852 l 512 214 z "},"K":{"ha":994,"x_min":53,"x_max":996,"o":"m 342 174 q 353 92 342 121 q 386 86 368 87 q 423 85 404 85 l 484 85 l 484 -9 q 376 -2 429 -3 q 269 0 323 0 q 161 -2 214 0 q 54 -9 109 -3 l 54 85 l 115 85 q 152 86 134 85 q 184 92 170 87 q 195 165 195 118 l 195 801 q 192 847 195 827 q 184 882 189 867 q 152 889 169 888 q 114 890 134 890 l 53 890 l 53 964 q 151 972 100 970 q 267 975 203 975 q 388 973 332 975 q 484 964 444 972 l 484 890 l 422 890 q 385 889 402 890 q 352 882 368 888 q 345 847 348 867 q 342 801 342 827 l 342 174 m 787 174 q 825 127 807 148 q 860 92 843 107 q 893 86 876 87 q 927 85 909 85 l 981 85 l 990 -9 q 894 -2 940 -3 q 800 0 848 0 q 682 -2 738 0 q 572 -9 627 -3 l 572 85 l 585 85 q 622 86 604 85 q 650 92 639 87 q 631 127 644 107 q 599 174 618 147 l 389 453 q 379 466 384 458 q 370 478 374 473 q 362 492 366 485 q 407 546 372 505 q 444 588 422 563 q 498 647 467 613 q 571 726 529 682 q 666 828 612 771 q 683 848 677 840 q 691 862 688 856 q 694 873 694 868 q 695 882 695 878 q 670 889 684 888 q 637 890 656 890 l 600 890 l 606 964 q 711 972 658 970 q 827 975 764 975 q 923 973 880 975 q 996 964 966 972 l 991 890 l 939 890 q 906 889 921 890 q 874 882 891 888 q 832 846 854 865 q 785 800 810 827 q 657 660 708 715 q 574 571 606 604 q 517 509 538 532 l 787 174 z "},"L":{"ha":903,"x_min":53,"x_max":844,"o":"m 269 0 q 161 -2 214 0 q 54 -9 109 -3 l 54 85 l 114 85 q 152 86 134 85 q 184 92 169 87 q 195 174 195 121 l 195 801 q 192 847 195 827 q 184 882 189 867 q 152 889 169 888 q 114 890 134 890 l 53 890 l 53 964 q 151 972 100 970 q 267 975 203 975 q 388 973 332 975 q 486 964 444 972 l 486 890 l 422 890 q 386 889 403 890 q 353 882 368 888 q 346 847 348 867 q 343 801 343 827 l 343 85 l 602 85 q 665 88 636 85 q 716 103 693 90 q 756 143 739 115 q 786 222 773 171 l 844 214 l 819 0 q 703 -7 760 -4 q 591 -9 646 -9 q 408 -5 490 -9 q 269 0 326 0 z "},"M":{"ha":1495,"x_min":53,"x_max":1442,"o":"m 1137 135 q 1135 198 1137 157 q 1130 291 1133 239 q 1123 401 1127 342 q 1114 517 1118 460 q 1092 810 1104 653 q 964 454 1023 617 q 914 313 939 384 q 866 181 888 243 q 826 72 844 120 q 798 0 808 24 l 671 0 q 631 109 652 49 q 587 235 610 170 q 541 369 564 301 q 496 499 517 436 q 394 803 446 647 q 373 479 382 622 q 365 360 369 418 q 358 255 361 302 q 354 180 355 209 q 352 150 352 151 q 355 117 352 130 q 366 97 358 104 q 387 88 374 90 q 422 85 401 85 l 477 85 l 469 -9 q 363 -1 412 -3 q 268 0 315 0 q 160 -1 211 0 q 53 -9 109 -3 l 68 85 l 136 85 q 173 86 155 85 q 207 92 191 87 q 224 127 216 107 q 236 174 233 147 q 246 262 241 210 q 257 376 252 315 q 267 499 262 436 q 276 618 272 562 q 284 718 281 674 q 288 785 287 762 q 290 829 290 812 q 289 858 290 847 q 283 879 287 869 q 252 887 269 884 q 210 890 234 890 l 140 890 l 140 964 q 179 969 159 967 q 222 972 199 971 q 270 974 244 974 q 325 975 295 975 q 411 971 374 975 q 473 964 448 968 q 510 872 490 926 q 552 753 530 817 q 597 621 574 690 q 643 486 621 552 q 684 360 665 420 q 719 254 703 300 q 743 181 734 209 q 754 152 753 154 q 854 451 809 319 q 935 684 899 583 q 996 853 970 784 q 1038 964 1021 923 q 1071 968 1051 966 q 1112 971 1091 970 q 1153 974 1133 973 q 1187 975 1173 975 q 1277 971 1237 975 q 1352 965 1316 968 q 1355 965 1354 965 q 1358 964 1356 964 l 1364 890 l 1306 890 q 1264 887 1284 890 q 1235 876 1244 884 q 1232 845 1232 863 q 1233 820 1232 833 q 1236 791 1234 807 l 1283 174 q 1291 128 1285 147 q 1301 94 1296 109 q 1343 87 1321 89 q 1391 85 1364 85 l 1427 85 l 1442 -9 q 1332 -1 1385 -3 q 1220 0 1278 0 q 1124 -1 1173 0 q 1019 -9 1074 -3 l 1011 85 l 1066 85 q 1102 87 1088 85 q 1124 95 1116 90 q 1135 111 1132 101 q 1137 135 1137 120 z "},"N":{"ha":1130,"x_min":53,"x_max":1090,"o":"m 209 801 q 198 882 209 854 q 165 889 183 888 q 128 890 148 890 l 53 890 l 53 964 q 100 968 78 966 q 144 971 122 970 q 188 974 165 973 q 239 975 211 975 q 305 974 275 975 q 360 966 334 972 q 482 777 419 875 q 608 578 545 679 q 733 377 671 477 q 852 180 795 276 q 851 268 852 216 q 849 380 850 320 q 847 502 848 439 q 845 622 846 565 q 843 726 844 680 q 842 801 842 773 q 831 882 842 854 q 799 888 817 887 q 762 890 781 890 l 693 890 l 693 964 q 788 972 739 970 q 897 975 838 975 q 1003 973 952 975 q 1090 964 1054 972 l 1090 890 l 1036 890 q 999 888 1017 890 q 966 882 981 887 q 959 847 961 867 q 956 801 956 827 q 954 605 956 709 q 949 394 952 500 q 943 183 946 287 q 937 -9 939 80 l 866 -9 q 831 -6 846 -9 q 804 5 817 -3 l 312 788 q 315 685 313 750 q 317 537 316 619 q 320 362 319 455 q 321 176 321 269 q 324 127 321 147 q 331 92 326 107 q 363 86 346 87 q 401 85 381 85 l 463 85 l 463 -9 q 371 -1 414 -3 q 286 0 328 0 q 176 -1 228 0 q 68 -9 125 -3 l 68 85 l 129 85 q 166 86 149 85 q 199 92 184 87 q 210 174 210 119 l 209 801 z "},"O":{"ha":1063,"x_min":78,"x_max":983,"o":"m 241 482 q 314 168 241 277 q 532 59 386 59 q 655 85 601 59 q 745 163 709 111 q 801 296 782 216 q 821 484 821 376 q 746 801 821 695 q 532 907 671 907 q 409 881 463 907 q 318 802 355 854 q 261 669 281 749 q 241 482 241 589 m 983 484 q 952 270 983 365 q 862 110 920 176 q 719 10 803 45 q 532 -25 635 -25 q 343 10 427 -25 q 200 110 259 45 q 110 270 141 176 q 78 484 78 365 q 110 699 78 605 q 200 857 141 793 q 343 955 259 922 q 532 989 427 989 q 719 955 635 989 q 861 857 802 922 q 952 699 920 793 q 983 484 983 605 z "},"P":{"ha":912,"x_min":53,"x_max":858,"o":"m 355 890 l 355 481 q 401 480 376 480 q 456 479 426 479 q 576 494 528 479 q 653 536 624 509 q 694 601 682 563 q 706 686 706 639 q 692 782 706 743 q 649 845 678 821 q 576 879 620 869 q 471 890 532 890 l 355 890 m 208 804 q 197 885 208 859 q 166 889 186 888 q 127 890 147 890 l 53 890 l 53 964 q 225 978 129 975 q 439 982 321 982 q 620 968 541 982 q 751 921 698 955 q 831 830 804 887 q 858 686 858 773 q 836 565 858 618 q 766 473 813 511 q 645 415 719 435 q 467 395 570 395 q 415 396 443 395 q 355 399 388 397 l 355 176 q 358 127 355 147 q 366 92 361 107 q 398 86 380 87 q 435 85 416 85 l 496 85 l 496 -9 q 397 -1 444 -3 q 305 0 351 0 q 185 -1 243 0 q 67 -9 128 -3 l 67 85 l 127 85 q 165 86 147 85 q 197 92 182 87 q 208 174 208 119 l 208 804 z "},"Q":{"ha":1096,"x_min":78,"x_max":1017,"o":"m 977 499 q 969 396 977 448 q 945 294 962 344 q 903 197 929 243 q 842 112 878 151 q 760 44 806 73 q 655 0 713 16 q 695 -23 672 -14 q 743 -37 718 -32 q 793 -43 768 -41 q 840 -45 818 -45 q 865 -43 851 -45 q 897 -36 878 -41 q 939 -25 915 -32 q 998 -9 964 -18 l 1017 -80 q 893 -123 955 -107 q 765 -139 831 -139 q 696 -134 732 -139 q 624 -117 661 -130 q 549 -81 587 -104 q 472 -21 511 -58 q 307 26 380 -11 q 183 126 234 62 q 105 282 132 191 q 78 492 78 373 q 110 701 78 609 q 199 858 141 793 q 341 955 258 922 q 528 989 425 989 q 706 955 625 989 q 848 859 788 922 q 942 705 907 795 q 977 499 976 614 m 239 482 q 313 163 239 269 q 528 57 387 57 q 651 82 597 57 q 742 160 705 107 q 798 293 779 212 q 817 483 817 373 q 798 668 817 589 q 742 801 779 747 q 651 880 705 854 q 528 907 597 907 q 406 880 460 907 q 315 801 352 854 q 259 668 278 748 q 239 482 239 589 z "},"R":{"ha":979,"x_min":53,"x_max":979,"o":"m 355 890 l 355 494 q 411 493 381 494 q 477 493 441 493 q 659 545 601 493 q 716 694 716 597 q 702 787 716 749 q 657 847 688 825 q 577 880 626 870 q 460 890 529 890 l 355 890 m 208 810 q 197 884 208 861 q 167 889 183 888 q 134 890 151 890 l 53 890 l 53 964 q 106 970 75 968 q 171 975 136 973 q 243 978 205 977 q 317 980 281 979 q 387 981 353 981 q 448 981 421 981 q 629 967 551 981 q 761 920 708 953 q 842 833 814 887 q 869 700 869 779 q 853 603 869 646 q 812 528 838 561 q 750 473 786 496 q 674 437 715 451 q 701 350 683 393 q 741 268 718 307 q 791 195 764 229 q 845 137 818 161 q 896 99 871 113 q 941 85 921 85 l 979 85 l 979 -9 l 876 -9 q 768 13 814 -9 q 686 70 721 35 q 627 152 651 106 q 586 244 603 197 q 559 335 570 291 q 543 412 549 379 q 449 413 496 412 q 355 416 402 414 l 355 176 q 358 127 355 147 q 366 92 361 107 q 398 86 380 87 q 435 85 416 85 l 496 85 l 496 -9 q 397 -1 444 -3 q 305 0 351 0 q 185 -1 243 0 q 67 -9 128 -3 l 67 85 l 127 85 q 165 86 147 85 q 197 92 182 87 q 208 174 208 119 l 208 810 z "},"S":{"ha":831,"x_min":66,"x_max":760,"o":"m 232 751 q 244 695 232 720 q 280 649 257 670 q 337 611 304 629 q 412 578 370 594 q 554 516 490 547 q 664 449 618 486 q 735 368 710 413 q 760 262 760 323 q 733 138 760 191 q 659 48 706 84 q 550 -7 612 12 q 416 -25 487 -25 q 318 -19 366 -25 q 225 1 270 -13 q 140 36 180 14 q 66 90 100 58 l 98 271 l 200 267 q 208 174 200 212 q 229 111 215 136 q 268 84 245 95 q 314 68 290 74 q 365 59 339 62 q 416 57 391 57 q 492 70 457 57 q 554 104 528 82 q 595 156 580 125 q 610 222 610 186 q 590 297 610 264 q 535 357 570 330 q 449 408 499 385 q 338 456 399 432 q 234 505 281 479 q 154 564 187 531 q 103 637 121 596 q 85 730 85 677 q 109 833 85 785 q 180 915 132 880 q 297 969 227 949 q 460 989 367 989 q 543 985 502 989 q 619 972 584 981 q 680 952 654 964 q 717 922 705 939 q 715 908 716 916 q 713 881 715 900 q 707 826 711 861 q 695 732 703 791 l 606 738 q 598 820 606 787 q 569 872 589 852 q 514 899 549 891 q 427 907 479 907 q 346 896 382 907 q 284 864 310 884 q 245 815 259 844 q 232 751 232 786 z "},"T":{"ha":942,"x_min":28,"x_max":914,"o":"m 823 724 q 817 824 823 782 q 800 890 810 867 l 550 890 l 550 176 q 552 127 550 147 q 560 92 555 107 q 592 86 575 87 q 630 85 610 85 l 691 85 l 691 -9 q 591 -1 638 -3 q 500 0 545 0 q 380 -1 437 0 q 261 -9 322 -3 l 261 85 l 321 85 q 359 86 342 85 q 391 92 377 87 q 401 165 401 118 l 401 890 l 152 890 q 135 824 141 867 q 129 724 129 782 l 35 724 q 34 778 35 747 q 32 840 33 808 q 29 904 30 872 q 28 964 28 937 q 85 973 43 972 q 188 975 127 975 q 217 974 195 975 q 269 973 239 974 q 332 972 298 972 q 396 971 366 972 q 450 970 427 970 q 483 970 473 970 q 527 970 500 970 q 583 971 553 970 q 641 972 612 972 q 695 973 671 972 q 734 974 719 974 q 752 975 750 975 q 857 973 814 975 q 914 964 899 971 q 913 904 914 937 q 911 840 912 872 q 908 778 909 808 q 907 724 907 747 l 823 724 z "},"U":{"ha":1088,"x_min":21,"x_max":1068,"o":"m 926 350 q 897 187 926 257 q 817 70 868 117 q 694 -1 766 22 q 538 -25 623 -25 q 365 5 437 -25 q 249 90 294 35 q 183 223 204 145 q 163 397 163 301 l 163 801 q 152 882 163 854 q 120 889 137 888 q 82 890 102 890 l 21 890 l 21 965 q 119 972 68 970 q 235 975 171 975 q 356 973 300 975 q 454 964 412 972 l 454 890 l 391 890 q 354 889 371 890 q 321 882 336 888 q 311 801 311 852 l 311 340 q 329 216 311 269 q 379 128 347 163 q 457 75 412 93 q 559 58 503 58 q 749 139 688 58 q 810 391 810 220 l 810 801 q 800 882 810 854 q 767 889 785 888 q 730 890 749 890 l 669 890 l 669 965 q 761 972 713 970 q 868 975 809 975 q 979 973 928 975 q 1068 964 1029 972 l 1068 890 l 1006 890 q 968 889 985 890 q 936 882 950 888 q 928 847 930 867 q 926 801 926 827 l 926 350 z "},"V":{"ha":1107,"x_min":0,"x_max":1107,"o":"m 840 801 q 852 847 849 827 q 857 882 856 867 q 826 889 843 888 q 789 890 809 890 l 741 890 l 745 964 q 830 972 786 970 q 928 975 875 975 q 1028 973 983 975 q 1107 964 1074 972 l 1091 890 l 1056 890 q 1019 889 1036 890 q 984 882 1001 888 q 965 847 975 867 q 947 801 956 827 q 873 602 911 705 q 797 397 836 500 q 718 193 758 294 q 641 0 679 92 l 570 0 q 520 5 540 0 q 492 31 500 11 l 184 801 q 162 847 174 827 q 139 882 151 867 q 104 889 121 888 q 66 890 86 890 l 16 890 l 0 964 q 89 972 41 970 q 195 975 136 975 q 321 973 263 975 q 425 964 380 972 l 434 890 l 385 890 q 349 889 366 890 q 318 882 332 888 q 326 847 318 867 q 344 801 334 827 l 596 146 l 603 146 l 840 801 z "},"W":{"ha":1630,"x_min":12,"x_max":1617,"o":"m 1365 801 q 1373 838 1371 821 q 1375 867 1375 854 q 1375 875 1375 871 q 1374 882 1375 879 q 1343 889 1360 888 q 1305 890 1326 890 l 1258 890 l 1254 964 q 1339 972 1295 970 q 1436 975 1383 975 q 1537 973 1491 975 q 1617 964 1583 972 l 1608 890 l 1573 890 q 1535 889 1553 890 q 1501 882 1518 888 q 1486 847 1494 867 q 1471 801 1478 827 q 1415 607 1444 707 q 1354 405 1386 507 q 1285 200 1321 302 q 1210 0 1249 98 l 1097 0 q 1078 2 1085 0 q 1065 12 1070 5 q 1056 29 1060 18 q 1046 58 1052 40 q 1045 62 1046 60 q 1044 67 1045 64 l 844 682 q 740 339 796 509 q 614 0 684 170 l 506 0 q 476 6 488 0 q 457 31 463 13 l 197 801 q 175 847 187 828 q 151 882 163 867 q 116 889 134 888 q 79 890 98 890 l 28 890 l 12 964 q 101 972 54 970 q 208 975 148 975 q 334 973 275 975 q 437 964 392 972 l 446 890 l 397 890 q 361 889 378 890 q 330 882 344 888 q 339 847 332 867 q 356 801 346 827 l 568 146 l 575 146 q 594 202 585 173 q 615 266 604 231 q 640 345 627 300 q 670 447 653 389 q 707 579 686 505 q 753 748 728 653 q 766 804 762 777 q 772 855 770 831 q 777 902 775 880 q 783 945 779 924 l 865 945 q 886 942 878 945 q 901 936 895 940 q 911 924 907 931 q 918 908 915 917 l 1166 142 l 1173 142 q 1224 312 1201 236 q 1265 450 1247 388 q 1298 562 1284 512 q 1325 653 1313 612 q 1347 731 1337 695 q 1365 801 1356 767 z "},"X":{"ha":1095,"x_min":11,"x_max":1063,"o":"m 520 399 l 358 176 q 329 128 338 149 q 313 92 319 107 q 342 86 325 87 q 378 85 359 85 l 413 85 l 413 -9 q 305 -1 358 -3 q 200 0 252 0 q 152 0 175 0 q 106 -1 129 0 q 59 -4 83 -2 q 11 -9 36 -6 l 11 85 l 71 85 q 105 86 89 85 q 138 92 121 87 q 170 129 154 107 q 209 174 186 150 l 464 477 l 236 801 q 205 847 218 827 q 177 882 193 867 q 141 889 159 888 q 103 890 123 890 l 53 890 l 43 964 q 122 972 79 970 q 216 975 164 975 q 349 973 288 975 q 461 964 410 972 l 471 890 l 429 890 q 392 889 409 890 q 364 882 376 888 q 369 868 366 874 q 376 855 372 862 q 387 839 380 848 q 401 818 393 831 l 561 583 l 732 801 q 764 847 752 827 q 783 882 777 867 q 755 889 772 888 q 719 890 739 890 l 692 890 l 701 964 q 799 972 750 970 q 908 975 848 975 q 996 973 957 975 q 1063 964 1036 972 l 1055 890 l 1000 890 q 962 889 980 890 q 924 882 943 888 q 891 847 908 867 q 852 801 873 827 q 769 697 806 743 q 703 618 732 652 q 651 557 674 583 q 610 511 629 531 l 859 174 q 894 127 879 147 q 926 92 909 107 q 959 86 943 87 q 994 85 975 85 l 1026 85 l 1026 -9 q 978 -4 1001 -6 q 933 -2 956 -3 q 888 0 911 -1 q 840 0 865 0 q 734 -1 787 0 q 625 -9 680 -3 l 625 85 l 659 85 q 695 86 678 85 q 724 92 712 87 q 707 127 718 107 q 676 176 696 147 l 520 399 z "},"Y":{"ha":1077,"x_min":-7,"x_max":1081,"o":"m 761 822 q 774 855 768 840 q 782 882 779 869 q 752 889 769 888 q 715 890 736 890 l 668 890 l 684 964 q 777 972 730 970 q 882 975 825 975 q 995 973 944 975 q 1081 964 1046 972 l 1054 890 l 996 890 q 959 889 977 890 q 923 882 941 888 q 907 861 916 871 q 892 837 899 850 q 878 811 891 833 q 844 753 865 788 q 798 675 823 719 q 745 587 772 632 q 604 351 683 482 l 604 176 q 607 127 604 147 q 614 92 610 107 q 647 86 629 87 q 684 85 664 85 l 745 85 l 745 -9 q 646 -1 692 -3 q 554 0 600 0 q 434 -1 492 0 q 316 -9 377 -3 l 316 85 l 376 85 q 413 86 396 85 q 446 92 431 87 q 454 127 452 107 q 459 174 457 148 l 459 332 l 182 801 q 157 847 166 827 q 136 882 147 867 q 101 889 119 888 q 63 890 83 890 l 13 890 l -7 964 q 83 972 36 970 q 189 975 131 975 q 314 973 256 975 q 419 964 372 972 l 431 890 l 382 890 q 345 889 362 890 q 316 882 328 888 q 318 868 317 874 q 323 854 320 861 q 331 839 326 847 q 343 818 336 830 l 561 447 q 652 612 610 536 q 687 677 669 645 q 720 739 705 710 q 745 789 734 767 q 761 822 756 811 z "},"Z":{"ha":834,"x_min":50,"x_max":776,"o":"m 77 953 q 200 969 113 963 q 428 975 286 975 l 745 975 q 765 954 758 968 q 773 924 773 939 l 773 886 l 208 85 l 553 85 q 596 92 576 85 q 632 117 616 98 q 657 171 648 136 q 666 267 666 207 l 776 267 l 776 58 q 774 39 776 49 q 770 20 772 29 q 770 18 770 18 q 770 16 770 18 q 699 2 740 4 q 602 0 659 0 l 72 0 q 54 22 58 10 q 50 55 50 35 l 50 90 l 602 890 l 415 890 q 373 889 397 890 q 321 886 348 888 q 269 880 295 884 q 222 870 243 876 q 189 857 201 865 q 176 838 176 848 q 176 803 176 821 q 179 764 177 786 q 143 764 161 764 q 105 763 125 764 q 103 777 105 765 q 99 807 102 789 q 92 847 96 825 q 86 888 89 868 q 80 926 83 909 q 77 953 77 943 z "},"[":{"ha":439,"x_min":139,"x_max":390,"o":"m 390 -85 l 390 -109 q 385 -135 390 -125 q 372 -149 380 -144 q 353 -154 364 -153 q 328 -155 342 -155 l 139 -155 l 139 1061 l 322 1061 q 350 1060 337 1061 q 371 1055 362 1059 q 385 1041 380 1050 q 390 1013 390 1031 l 390 991 l 248 991 l 248 -85 l 390 -85 z "},"\\":{"ha":604,"x_min":0,"x_max":604,"o":"m 604 -45 l 530 -45 q 479 -25 497 -45 l 0 1010 l 69 1010 q 106 1002 94 1010 q 132 979 119 994 l 604 -45 z "},"]":{"ha":441,"x_min":52,"x_max":302,"o":"m 193 -85 l 193 991 l 52 991 l 52 1013 q 58 1046 52 1036 q 83 1061 65 1057 l 302 1061 l 302 -155 l 132 -155 q 101 -155 115 -155 q 75 -150 86 -154 q 58 -136 64 -145 q 52 -109 52 -126 l 52 -85 l 193 -85 z "},"^":{"ha":808,"x_min":71,"x_max":735,"o":"m 718 342 q 730 317 724 330 q 735 289 735 303 q 725 258 735 272 l 656 245 l 405 680 l 159 247 l 112 258 q 86 268 96 261 q 71 281 76 274 q 82 312 76 296 q 98 342 89 327 l 366 819 l 412 819 q 434 816 420 819 q 459 795 448 813 l 718 342 z "},"_":{"ha":654,"x_min":-7,"x_max":661,"o":"m -7 -230 l -7 -189 q -2 -162 -7 -172 q 13 -149 3 -153 q 35 -144 22 -144 q 63 -143 47 -143 l 661 -143 l 661 -183 q 653 -215 661 -205 q 630 -230 646 -226 l -7 -230 z "},"`":{"ha":829,"x_min":267,"x_max":564,"o":"m 267 1076 l 436 1076 l 564 857 l 471 857 l 267 1076 z "},"a":{"ha":846,"x_min":69,"x_max":786,"o":"m 511 139 q 519 222 515 176 q 522 332 522 269 l 415 332 q 267 296 318 332 q 215 190 215 260 q 249 99 215 129 q 340 68 283 68 q 427 89 382 68 q 511 139 471 109 m 786 13 q 708 -4 751 1 q 612 -9 665 -9 q 565 -7 584 -9 q 533 1 545 -6 q 516 23 522 8 q 511 64 511 38 l 509 78 q 466 43 489 60 q 416 13 443 26 q 357 -8 389 -1 q 290 -16 326 -16 q 201 -4 241 -16 q 131 34 160 9 q 85 96 102 59 q 69 184 69 134 q 157 353 69 296 q 422 409 244 409 l 522 409 l 522 455 q 515 542 522 506 q 493 602 509 578 q 453 636 478 625 q 392 648 428 648 q 319 636 351 648 q 262 606 287 625 q 217 563 237 587 q 182 512 198 538 l 88 572 q 115 626 93 600 q 176 673 138 652 q 266 707 214 694 q 384 720 319 720 q 597 653 529 720 q 666 463 666 587 l 666 182 q 669 116 666 144 q 677 68 673 89 l 786 68 l 786 13 z "},"b":{"ha":907,"x_min":25,"x_max":831,"o":"m 677 369 q 508 642 677 642 q 313 559 404 642 q 303 454 306 509 q 300 338 300 399 q 302 204 300 274 q 309 68 304 134 q 395 62 350 64 q 477 59 441 59 q 561 79 524 59 q 624 138 597 98 q 664 235 650 177 q 677 369 677 292 m 89 71 q 118 84 106 77 q 139 101 131 91 q 151 126 147 111 q 155 161 155 140 l 155 897 q 154 938 155 918 q 150 977 153 958 q 123 984 138 981 q 91 987 109 987 l 25 987 l 25 1046 q 114 1059 58 1055 q 247 1064 171 1064 q 294 1062 275 1064 q 298 1029 297 1047 q 300 993 300 1012 l 300 619 q 410 696 351 672 q 538 720 470 720 q 659 697 605 720 q 752 630 713 674 q 810 522 790 586 q 831 374 831 457 q 805 210 831 281 q 737 90 780 139 q 638 16 694 41 q 521 -9 582 -9 q 421 -7 467 -9 q 333 -4 376 -6 q 245 -1 290 -3 q 148 0 201 0 q 135 0 144 0 q 115 0 125 0 q 95 -1 104 -1 q 81 -1 85 -1 l 89 71 z "},"c":{"ha":734,"x_min":77,"x_max":680,"o":"m 680 37 q 572 -3 635 10 q 439 -16 509 -16 q 294 7 360 -16 q 179 77 227 31 q 103 190 130 123 q 77 342 77 256 q 105 503 77 433 q 183 622 134 574 q 301 694 233 669 q 450 720 370 720 q 517 715 484 720 q 579 702 550 711 q 634 682 609 694 q 677 655 659 670 l 666 519 l 617 519 q 542 612 585 583 q 435 642 498 642 q 351 623 389 642 q 284 569 312 604 q 241 486 256 534 q 225 380 225 437 q 243 239 225 298 q 293 142 262 180 q 367 86 325 104 q 456 68 408 68 q 571 82 519 68 q 670 125 623 96 l 680 37 z "},"d":{"ha":908,"x_min":77,"x_max":884,"o":"m 612 234 q 611 408 612 326 q 604 568 609 490 q 567 599 589 585 q 522 622 545 612 q 473 637 498 632 q 426 642 448 642 q 336 621 373 642 q 276 562 300 600 q 242 469 253 523 q 232 349 232 414 q 280 137 232 205 q 422 68 328 68 q 486 80 456 68 q 541 112 516 91 q 584 164 566 134 q 612 234 602 195 m 755 182 q 758 116 755 144 q 766 68 762 89 l 884 68 l 884 10 q 805 -3 849 1 q 709 -8 762 -8 q 667 -7 685 -8 q 638 0 650 -6 q 621 19 627 6 q 615 57 615 33 l 615 90 q 565 41 593 61 q 507 8 538 21 q 444 -11 477 -5 q 378 -16 411 -16 q 261 6 315 -16 q 165 73 206 28 q 100 185 124 118 q 77 341 77 252 q 98 504 77 433 q 158 625 119 576 q 255 700 198 674 q 385 725 313 725 q 510 702 455 725 q 610 635 566 680 l 610 918 q 606 977 610 954 q 579 984 593 981 q 547 987 565 987 l 481 987 l 481 1046 q 575 1059 515 1054 q 711 1064 635 1064 q 732 1064 722 1064 q 749 1062 742 1063 q 754 1037 753 1050 q 755 1008 755 1023 l 755 182 z "},"e":{"ha":794,"x_min":77,"x_max":724,"o":"m 577 410 q 578 415 578 412 q 578 421 578 418 q 569 506 578 466 q 541 577 560 547 q 489 626 521 608 q 412 644 458 644 q 276 585 322 644 q 223 410 229 525 l 577 410 m 709 113 q 603 15 671 45 q 438 -16 535 -16 q 289 8 356 -16 q 175 80 222 33 q 102 195 128 127 q 77 352 77 264 q 102 506 77 437 q 174 621 127 574 q 287 694 220 669 q 435 720 353 720 q 549 701 496 720 q 641 647 602 682 q 702 562 680 612 q 724 447 724 511 q 718 385 724 408 q 699 350 711 362 q 667 334 686 338 q 621 330 648 330 l 224 330 q 293 134 231 199 q 460 68 355 68 q 563 85 515 68 q 651 139 610 102 l 709 113 z "},"f":{"ha":533,"x_min":37,"x_max":630,"o":"m 92 48 q 149 58 129 52 q 178 73 169 63 q 189 97 187 82 q 191 136 191 113 l 191 618 l 37 618 l 37 669 q 65 693 47 687 q 110 700 83 700 l 191 700 l 191 762 q 211 899 191 842 q 270 991 232 956 q 361 1044 308 1027 q 481 1061 415 1061 q 571 1050 535 1061 q 630 1025 606 1039 l 630 873 l 564 873 q 544 926 555 905 q 518 960 532 947 q 489 979 505 973 q 456 985 473 985 q 402 976 425 985 q 365 944 379 966 q 343 886 350 922 q 336 793 336 849 l 336 700 l 528 700 l 528 665 q 520 633 528 644 q 496 618 513 623 l 336 618 l 336 161 q 337 112 336 132 q 350 80 339 92 q 382 60 360 67 q 446 48 405 53 l 451 -9 q 351 -2 396 -5 q 263 0 307 0 q 180 -2 222 0 q 91 -9 138 -4 l 92 48 z "},"g":{"ha":747,"x_min":32,"x_max":729,"o":"m 680 713 q 708 710 699 713 q 723 697 718 706 q 728 673 728 688 q 729 635 729 658 l 729 623 l 578 623 q 622 549 609 586 q 635 475 635 512 q 618 369 635 417 q 562 288 600 321 q 465 235 524 254 q 322 216 406 216 q 291 217 307 216 q 261 220 275 218 q 229 225 245 222 q 220 207 224 216 q 215 189 217 199 q 212 168 212 178 q 216 147 212 156 q 234 133 220 138 q 275 125 248 127 q 349 122 302 122 q 486 114 422 122 q 596 82 549 106 q 671 17 644 59 q 698 -94 698 -26 q 680 -177 698 -138 q 619 -244 661 -216 q 508 -288 576 -272 q 340 -304 440 -304 q 199 -288 258 -304 q 104 -244 141 -271 q 49 -180 66 -216 q 32 -104 32 -144 q 63 -14 32 -51 q 155 41 95 23 l 155 44 q 132 53 142 45 q 116 72 122 60 q 106 98 109 83 q 102 128 102 113 q 123 216 102 178 q 186 264 144 254 l 186 267 q 102 355 129 302 q 75 473 75 409 q 95 575 75 529 q 153 653 116 621 q 243 703 191 685 q 360 720 296 720 q 437 711 399 720 q 509 690 475 703 l 680 713 m 570 -101 q 564 -48 570 -72 q 534 -8 557 -25 q 469 18 511 9 q 354 27 426 27 q 310 26 333 27 q 268 25 288 26 q 224 23 245 24 q 191 -22 205 1 q 169 -62 179 -41 q 159 -101 159 -83 q 167 -145 159 -123 q 196 -185 174 -167 q 255 -214 217 -203 q 354 -226 293 -226 q 464 -216 422 -226 q 530 -190 506 -207 q 562 -150 553 -173 q 570 -101 570 -127 m 507 465 q 467 599 507 555 q 356 642 428 642 q 239 598 275 642 q 203 465 203 554 q 214 390 203 420 q 246 340 226 359 q 294 313 267 321 q 354 304 322 304 q 415 313 387 304 q 463 341 443 322 q 495 391 484 361 q 507 465 507 422 z "},"h":{"ha":924,"x_min":25,"x_max":885,"o":"m 885 8 q 805 -5 852 -1 q 706 -9 757 -9 q 676 -6 691 -9 q 648 2 661 -4 q 628 20 636 9 q 621 50 621 31 q 623 115 621 83 q 625 191 625 148 l 625 437 q 617 543 625 503 q 596 605 610 583 q 560 634 582 627 q 509 642 538 642 q 434 629 471 642 q 369 596 397 616 q 321 553 340 576 q 300 507 302 529 l 300 153 q 301 107 300 125 q 311 78 303 90 q 335 59 319 66 q 381 48 351 53 l 387 -9 q 298 -2 338 -5 q 219 0 258 0 q 145 -2 182 0 q 68 -9 109 -4 l 71 48 q 119 58 102 52 q 144 73 136 63 q 153 98 152 83 q 155 136 155 113 l 155 918 q 154 948 155 933 q 149 977 153 964 q 123 984 138 981 q 92 987 109 987 l 25 987 l 25 1046 q 115 1059 58 1054 q 241 1065 171 1065 q 275 1062 263 1065 q 292 1053 287 1060 q 299 1034 298 1046 q 300 1000 300 1021 l 300 623 q 418 694 349 669 q 560 720 486 720 q 720 667 670 720 q 770 505 770 614 l 770 182 q 773 116 770 144 q 781 68 777 89 l 885 68 l 885 8 z "},"i":{"ha":434,"x_min":27,"x_max":416,"o":"m 134 954 q 160 1023 134 998 q 227 1049 186 1049 q 264 1042 248 1049 q 294 1023 281 1036 q 313 994 306 1011 q 320 954 320 976 q 313 917 320 934 q 294 887 306 899 q 264 867 281 874 q 227 861 248 861 q 190 867 207 861 q 160 887 173 874 q 141 917 148 899 q 134 954 134 934 m 416 7 q 336 -5 381 -1 q 237 -9 292 -9 q 207 -6 222 -9 q 179 2 191 -4 q 159 20 167 9 q 151 50 151 31 q 154 115 151 83 q 156 191 156 148 l 156 571 q 155 599 156 585 q 151 625 154 613 q 93 635 127 635 l 27 635 l 27 700 q 53 704 35 702 q 92 709 70 707 q 140 712 114 711 q 191 713 165 713 q 253 710 224 713 q 300 700 281 707 l 300 182 q 304 116 300 144 q 312 68 307 89 l 410 68 l 416 7 z "},"j":{"ha":549,"x_min":0,"x_max":422,"o":"m 401 58 q 344 -176 401 -98 q 176 -254 286 -254 q 113 -250 144 -254 q 57 -240 82 -245 q 0 -226 27 -234 l 32 -38 q 60 -43 47 -41 q 83 -47 71 -45 q 104 -50 95 -49 q 105 -91 104 -71 q 109 -127 107 -111 q 113 -163 111 -146 q 141 -167 127 -165 q 165 -170 153 -168 q 187 -171 178 -171 q 225 -151 211 -171 q 246 -97 239 -130 q 255 -19 253 -63 q 257 71 257 24 l 257 571 q 256 599 257 585 q 252 625 255 613 q 194 635 228 635 l 128 635 l 128 700 q 154 704 136 702 q 193 709 171 707 q 241 712 215 711 q 292 713 267 713 q 354 710 325 713 q 401 700 382 707 l 401 58 m 236 954 q 243 994 236 976 q 262 1023 250 1011 q 292 1042 275 1036 q 329 1049 309 1049 q 366 1042 349 1049 q 395 1023 383 1036 q 415 994 408 1011 q 422 954 422 976 q 415 917 422 934 q 395 887 408 899 q 366 867 383 874 q 329 861 349 861 q 292 867 309 861 q 262 887 275 874 q 243 917 250 899 q 236 954 236 934 z "},"k":{"ha":844,"x_min":25,"x_max":846,"o":"m 71 49 q 119 58 102 53 q 144 74 136 64 q 153 99 152 83 q 155 136 155 114 l 155 907 q 154 942 155 925 q 149 977 153 960 q 123 983 138 981 q 91 986 109 986 l 25 986 l 25 1045 q 71 1053 44 1049 q 130 1058 98 1056 q 196 1063 161 1061 q 266 1066 231 1065 q 294 1033 288 1051 q 300 987 300 1014 l 300 355 l 479 528 q 557 623 556 602 q 531 635 557 635 l 531 700 l 825 700 l 825 635 l 799 635 q 768 631 785 635 q 736 621 752 627 q 708 607 721 614 q 686 591 694 599 l 454 384 l 705 98 q 725 82 712 90 q 753 68 738 74 q 786 58 769 62 q 817 55 802 55 q 837 57 829 55 l 846 -9 q 763 -2 804 -5 q 680 0 722 0 q 595 -2 637 0 q 509 -9 553 -5 l 509 51 q 533 52 524 51 q 542 62 542 54 q 524 90 534 75 q 498 121 513 104 l 336 319 l 300 293 l 300 153 q 301 108 300 126 q 311 78 303 90 q 335 60 319 66 q 381 49 351 54 l 385 -9 q 301 -2 338 -5 q 227 0 264 0 q 150 -2 189 0 q 68 -9 112 -4 l 71 49 z "},"l":{"ha":433,"x_min":18,"x_max":414,"o":"m 149 908 q 147 943 149 926 q 142 977 146 961 q 116 984 131 981 q 83 987 102 987 l 18 987 l 18 1046 q 101 1058 50 1053 q 219 1064 153 1064 q 267 1061 252 1064 q 292 1046 283 1057 l 292 182 q 295 116 292 144 q 303 68 298 89 l 414 68 l 414 7 q 332 -5 378 -1 q 229 -9 287 -9 q 199 -6 214 -9 q 172 2 184 -4 q 152 20 159 9 q 144 50 144 31 q 146 115 144 83 q 149 191 149 148 l 149 908 z "},"m":{"ha":1360,"x_min":39,"x_max":1322,"o":"m 1059 448 q 1054 539 1059 503 q 1036 597 1048 576 q 1004 626 1024 618 q 953 635 983 635 q 885 622 917 635 q 828 591 854 610 q 785 549 803 572 q 758 506 767 526 l 758 161 q 760 112 758 131 q 769 80 761 92 q 796 61 778 68 q 846 49 814 54 l 852 -9 q 768 -2 812 -5 q 679 0 724 0 q 599 -2 637 0 q 526 -9 561 -4 l 529 49 q 577 58 560 53 q 602 73 594 63 q 612 97 610 82 q 613 135 613 112 l 613 448 q 608 540 613 504 q 590 597 603 576 q 557 627 578 618 q 506 635 536 635 q 443 623 474 635 q 385 591 411 610 q 339 550 358 572 q 313 506 320 527 l 313 160 q 314 111 313 130 q 323 80 315 92 q 347 61 331 68 q 394 49 363 54 l 399 -9 q 318 -2 361 -5 q 230 0 275 0 q 151 -2 189 0 q 81 -9 113 -4 l 83 49 q 132 59 115 53 q 157 75 149 64 q 166 102 165 85 q 168 142 168 118 l 168 570 q 166 598 168 584 q 163 625 165 612 q 104 635 139 635 l 39 635 l 39 700 q 63 704 47 702 q 102 709 80 707 q 149 712 123 711 q 198 713 174 713 q 260 710 231 713 q 309 700 290 707 l 309 614 q 432 693 369 667 q 571 720 494 720 q 747 600 709 720 q 787 640 763 618 q 842 679 810 661 q 913 708 873 696 q 1004 720 954 720 q 1157 669 1108 720 q 1206 507 1206 618 l 1206 182 q 1209 116 1206 144 q 1217 68 1213 89 l 1315 68 l 1322 8 q 1241 -5 1286 -1 q 1141 -9 1196 -9 q 1111 -6 1126 -9 q 1084 2 1096 -4 q 1064 20 1072 9 q 1056 50 1056 31 q 1058 115 1056 83 q 1061 191 1061 148 l 1059 448 z "},"n":{"ha":937,"x_min":39,"x_max":899,"o":"m 782 182 q 785 116 782 144 q 793 68 789 89 l 891 68 l 899 8 q 718 -9 830 -9 q 688 -6 703 -9 q 661 3 673 -4 q 641 21 649 9 q 633 50 633 32 q 635 118 633 83 q 637 196 637 153 l 637 441 q 628 532 637 495 q 603 592 619 569 q 566 625 587 615 q 520 635 545 635 q 464 625 493 635 q 406 599 434 615 q 354 562 378 583 q 313 519 330 541 l 313 161 q 314 112 313 131 q 323 80 315 92 q 347 61 331 68 q 394 49 363 54 l 399 -9 q 318 -2 361 -5 q 230 0 275 0 q 151 -2 189 0 q 81 -9 113 -4 l 83 49 q 132 58 115 53 q 157 74 149 64 q 166 100 165 84 q 168 140 168 115 l 168 573 q 166 600 168 587 q 163 625 165 613 q 142 632 153 630 q 115 635 131 635 l 39 635 l 39 700 q 64 704 47 702 q 102 709 81 707 q 150 712 124 711 q 201 713 175 713 q 262 710 233 713 q 309 700 291 707 l 309 614 q 366 659 335 640 q 430 692 397 679 q 498 713 464 706 q 566 720 533 720 q 648 708 609 720 q 717 670 687 696 q 764 603 747 644 q 782 505 782 562 l 782 182 z "},"o":{"ha":871,"x_min":77,"x_max":795,"o":"m 795 351 q 766 192 795 260 q 688 77 737 123 q 574 7 640 31 q 436 -16 509 -16 q 295 8 360 -16 q 181 79 229 33 q 104 195 132 126 q 77 351 77 263 q 104 507 77 439 q 181 623 132 576 q 295 695 229 670 q 436 720 360 720 q 577 695 511 720 q 691 623 643 670 q 767 507 739 576 q 795 351 795 439 m 232 352 q 281 130 232 201 q 435 59 330 59 q 529 77 490 59 q 593 132 568 96 q 628 224 617 169 q 640 352 640 279 q 590 569 640 497 q 435 642 541 642 q 342 623 381 642 q 279 568 304 604 q 243 477 255 531 q 232 352 232 422 z "},"p":{"ha":900,"x_min":18,"x_max":824,"o":"m 293 198 q 370 101 326 134 q 477 68 414 68 q 564 89 528 68 q 624 146 601 109 q 659 236 648 184 q 670 354 670 289 q 632 570 670 498 q 512 642 594 642 q 463 637 489 642 q 409 621 437 632 q 354 591 382 610 q 300 544 326 572 l 293 198 m 292 622 q 398 694 336 669 q 534 720 460 720 q 654 696 601 720 q 746 627 708 672 q 804 515 783 581 q 824 364 824 448 q 799 196 824 268 q 731 78 774 125 q 633 7 689 31 q 514 -16 576 -16 q 396 4 450 -16 q 293 62 342 25 l 293 -163 q 294 -210 293 -191 q 303 -241 296 -229 q 328 -260 311 -253 q 375 -272 345 -267 l 380 -332 q 288 -321 330 -323 q 208 -319 245 -319 q 135 -321 170 -319 q 61 -332 100 -323 l 64 -272 q 113 -261 96 -267 q 138 -246 130 -256 q 147 -220 146 -236 q 149 -180 149 -205 l 149 564 q 148 595 149 579 q 144 625 147 611 q 84 635 119 635 l 18 635 l 18 700 q 43 704 26 702 q 83 709 60 707 q 131 712 105 711 q 182 713 156 713 q 243 710 214 713 q 290 700 272 707 l 292 622 z "},"q":{"ha":907,"x_min":77,"x_max":882,"o":"m 610 700 q 635 704 618 702 q 674 709 652 707 q 722 712 696 711 q 773 713 747 713 q 834 710 806 713 q 882 700 863 707 l 882 635 l 817 635 q 757 625 781 635 q 753 595 753 611 q 752 564 752 579 l 752 -180 q 753 -220 752 -205 q 763 -246 755 -236 q 787 -261 770 -256 q 836 -272 804 -267 l 840 -332 q 766 -321 801 -323 q 692 -319 731 -319 q 613 -321 655 -319 q 520 -332 571 -323 l 526 -272 q 573 -260 556 -267 q 597 -240 589 -253 q 606 -208 605 -227 q 608 -159 608 -189 l 608 62 q 505 4 559 25 q 387 -16 450 -16 q 268 7 324 -16 q 169 78 212 31 q 102 196 127 125 q 77 364 77 268 q 97 515 77 448 q 155 627 117 581 q 246 696 193 672 q 366 720 300 720 q 502 700 440 720 q 610 642 564 679 l 610 700 m 601 564 q 547 601 574 586 q 491 625 519 616 q 438 638 464 634 q 389 642 412 642 q 269 570 307 642 q 231 354 231 498 q 242 236 231 289 q 276 146 253 184 q 336 89 300 109 q 423 68 373 68 q 527 91 484 68 q 601 144 571 113 l 601 564 z "},"r":{"ha":674,"x_min":46,"x_max":653,"o":"m 314 536 q 363 610 339 576 q 416 669 388 644 q 478 707 444 693 q 556 720 512 720 q 620 713 598 720 q 653 700 642 707 l 636 513 l 575 513 l 559 612 q 530 615 541 614 q 513 616 520 616 q 447 597 481 616 q 384 546 412 578 q 337 472 355 513 q 319 385 319 430 l 319 157 q 320 110 319 128 q 329 79 321 91 q 354 60 337 66 q 401 48 370 53 l 407 -9 q 318 -2 358 -5 q 239 0 278 0 q 166 -2 203 0 q 87 -9 129 -4 l 90 48 q 139 58 122 52 q 164 73 157 63 q 174 99 172 83 q 175 139 175 115 l 175 578 q 174 602 175 590 q 170 625 173 614 q 149 632 160 629 q 123 635 138 635 l 46 635 l 46 700 q 71 704 54 702 q 108 709 87 707 q 154 712 130 711 q 205 713 179 713 q 266 710 237 713 q 314 700 295 707 l 314 536 z "},"s":{"ha":685,"x_min":62,"x_max":624,"o":"m 166 220 q 172 149 170 180 q 178 90 175 118 q 249 66 209 74 q 347 59 288 59 q 410 67 384 59 q 454 91 437 76 q 479 125 471 106 q 487 165 487 144 q 477 203 487 186 q 451 235 468 220 q 409 261 433 249 q 355 284 385 273 l 296 307 q 201 347 242 328 q 134 389 161 366 q 93 443 106 412 q 79 517 79 473 q 99 601 79 564 q 156 665 119 639 q 248 706 193 692 q 372 720 302 720 q 497 708 444 720 q 579 676 550 695 q 576 651 579 668 q 569 611 574 633 q 560 562 565 588 q 550 509 555 535 l 482 520 q 479 576 481 551 q 477 618 478 601 q 414 637 448 633 q 334 642 379 642 q 237 616 268 642 q 207 548 207 591 q 218 503 207 522 q 247 470 229 484 q 291 445 266 456 q 346 423 317 433 l 415 399 q 508 360 469 380 q 573 316 547 340 q 611 264 599 292 q 624 201 624 235 q 602 105 624 146 q 542 38 581 64 q 450 -3 503 11 q 334 -16 397 -16 q 253 -10 294 -16 q 175 6 212 -4 q 110 28 139 16 q 62 53 80 41 l 96 229 l 166 220 z "},"t":{"ha":606,"x_min":26,"x_max":574,"o":"m 190 825 q 196 856 191 840 q 207 886 201 873 l 219 919 l 309 919 l 309 700 l 527 700 l 527 665 q 524 640 527 649 q 516 626 522 631 q 501 620 510 621 q 479 618 492 618 l 309 618 l 309 216 q 316 147 309 176 q 335 101 323 119 q 366 76 348 83 q 407 68 385 68 q 424 70 414 68 q 443 74 434 71 q 463 80 453 77 q 469 125 466 102 q 474 167 471 144 q 479 210 476 189 l 568 216 l 574 33 q 478 2 532 12 q 365 -7 425 -7 q 215 44 265 -7 q 164 203 164 96 l 164 618 l 26 618 l 26 655 q 34 678 26 673 q 58 686 42 684 l 172 700 l 190 825 z "},"u":{"ha":918,"x_min":32,"x_max":886,"o":"m 765 182 q 768 116 765 144 q 777 68 772 89 l 886 68 l 886 10 q 806 -4 850 1 q 707 -9 762 -9 q 662 -7 681 -9 q 632 1 644 -5 q 615 20 621 7 q 610 55 610 33 l 610 78 l 600 71 q 555 40 578 55 q 503 12 532 24 q 436 -8 473 -1 q 350 -16 399 -16 q 199 39 247 -16 q 152 203 152 95 l 152 562 q 150 598 152 582 q 144 627 148 614 q 118 633 132 631 q 88 635 104 635 l 32 635 l 32 700 q 58 704 41 702 q 99 709 76 707 q 150 712 123 711 q 206 713 178 713 q 256 710 232 713 q 296 700 279 707 l 296 239 q 298 173 296 203 q 312 119 300 142 q 348 82 323 96 q 418 68 373 68 q 486 79 452 68 q 547 102 519 90 q 592 126 574 115 q 610 139 609 137 q 619 241 617 184 q 621 360 621 298 l 621 562 q 613 627 621 601 q 587 633 602 631 q 557 635 573 635 l 501 635 l 501 700 q 528 704 510 702 q 569 709 545 707 q 620 712 592 711 q 675 713 647 713 q 725 710 701 713 q 765 700 749 707 l 765 182 z "},"v":{"ha":895,"x_min":5,"x_max":890,"o":"m 655 566 q 665 596 661 582 q 673 625 669 611 q 651 632 664 630 q 620 635 639 635 l 583 635 l 590 700 q 655 710 616 707 q 742 713 693 713 q 830 710 791 713 q 890 700 869 707 l 890 635 l 854 635 q 791 625 820 635 q 766 577 782 612 q 729 496 749 543 q 686 394 709 449 q 642 287 664 340 q 601 189 621 235 q 568 113 582 142 l 515 -5 l 439 -5 q 420 -5 428 -5 q 406 -3 412 -5 q 393 2 399 -1 q 381 14 387 6 l 148 566 q 133 596 141 582 q 116 625 125 611 q 87 632 102 630 q 54 635 72 635 l 16 635 l 5 700 q 70 710 29 707 q 165 713 111 713 q 278 710 227 713 q 363 700 330 707 l 374 635 l 337 635 q 283 625 302 635 q 292 596 286 611 q 304 566 298 582 q 400 308 356 420 q 481 106 444 195 l 655 566 z "},"w":{"ha":1293,"x_min":1,"x_max":1291,"o":"m 1055 566 q 1062 596 1060 582 q 1069 625 1063 611 q 1049 632 1060 630 q 1020 635 1038 635 l 983 635 l 990 700 q 1055 710 1017 707 q 1141 713 1093 713 q 1230 710 1191 713 q 1291 700 1269 707 l 1291 635 l 1254 635 q 1192 625 1219 635 q 1143 490 1167 557 q 1096 359 1119 422 q 1052 238 1073 296 q 1015 133 1031 180 q 985 49 998 85 q 965 -5 972 14 l 887 -5 q 851 -2 865 -5 q 829 9 838 1 q 815 28 820 17 q 804 56 810 40 l 661 481 q 620 363 642 427 q 575 234 598 299 q 529 107 551 169 q 488 -5 507 45 l 410 -5 q 355 3 370 -5 q 336 24 340 12 l 142 566 q 129 596 137 582 q 111 625 120 611 q 49 635 84 635 l 12 635 l 1 700 q 62 710 24 707 q 154 713 101 713 q 267 710 216 713 q 351 700 318 707 l 363 635 l 326 635 q 273 625 290 635 l 446 99 l 520 332 q 551 428 535 378 q 582 524 567 477 q 610 611 597 570 q 633 681 623 651 l 670 681 q 715 677 699 681 q 738 657 732 673 l 922 90 l 1055 566 z "},"x":{"ha":842,"x_min":7,"x_max":835,"o":"m 669 151 q 698 110 686 126 q 724 83 710 94 q 755 65 738 72 q 801 55 773 59 l 828 -9 q 798 -5 817 -7 q 755 -2 779 -3 q 705 -1 732 -1 q 651 0 678 0 q 562 -2 604 0 q 496 -9 519 -4 l 490 48 q 535 58 522 52 q 549 76 549 64 q 537 103 549 85 q 507 150 526 121 l 406 294 l 311 164 q 275 111 288 132 q 262 78 262 91 q 274 60 262 66 q 312 48 286 53 l 289 -9 q 235 -2 271 -4 q 157 0 199 0 q 112 -1 134 0 q 69 -2 89 -1 q 33 -5 50 -3 q 7 -9 17 -7 l 31 48 q 91 59 69 52 q 129 77 113 65 q 158 106 144 88 q 194 150 172 123 l 358 349 l 200 566 q 175 596 189 582 q 146 625 161 610 q 81 635 116 635 l 58 635 l 40 700 q 104 710 62 707 q 206 713 146 713 q 318 710 266 713 q 404 700 370 707 l 416 635 l 378 635 q 328 625 343 635 q 348 597 336 611 q 371 566 359 583 l 466 435 q 532 525 496 474 q 602 625 568 575 q 584 632 593 630 q 555 635 574 635 l 518 635 l 534 700 q 607 710 565 707 q 700 713 649 713 q 782 710 747 713 q 835 700 817 707 l 812 635 l 783 635 q 717 625 748 635 l 633 523 q 599 481 616 503 q 565 441 581 460 q 534 406 549 422 q 511 379 520 389 l 669 151 z "},"y":{"ha":893,"x_min":5,"x_max":893,"o":"m 658 566 q 667 596 663 582 q 675 625 672 611 q 653 632 666 630 q 623 635 641 635 l 585 635 l 593 700 q 657 710 619 707 q 744 713 695 713 q 832 710 793 713 q 893 700 871 707 l 893 635 l 857 635 q 823 632 838 635 q 794 625 808 630 q 790 619 793 623 q 783 603 788 615 q 768 571 777 591 q 744 516 759 550 l 463 -133 q 408 -230 437 -192 q 346 -291 379 -269 q 275 -322 313 -313 q 193 -331 237 -331 q 158 -329 175 -331 q 126 -325 140 -328 q 102 -319 112 -323 q 88 -312 92 -316 l 103 -218 q 157 -232 129 -227 q 206 -237 186 -237 q 260 -231 237 -237 q 304 -203 283 -224 q 348 -141 326 -182 q 400 -32 370 -101 l 147 566 q 133 596 140 581 q 115 624 125 610 q 54 634 89 634 l 17 634 l 5 699 q 71 710 29 707 q 165 713 112 713 q 279 710 227 713 q 363 699 330 707 l 374 634 l 336 634 q 303 632 319 634 q 279 624 288 629 q 289 597 279 621 q 312 537 298 573 q 344 455 326 500 q 380 363 362 410 l 479 116 l 658 566 z "},"z":{"ha":743,"x_min":58,"x_max":665,"o":"m 473 71 q 524 74 500 71 q 566 86 548 76 l 594 189 q 627 191 610 191 q 659 192 643 192 l 663 78 q 664 61 664 68 q 665 47 664 53 l 665 -7 q 613 -3 643 -4 q 548 -1 583 -1 q 479 0 514 0 q 414 0 445 0 l 90 0 q 76 1 82 0 q 66 8 71 3 q 60 25 62 14 q 58 55 58 36 l 58 95 l 513 629 l 264 629 q 214 626 237 629 q 172 614 190 624 l 144 511 q 111 509 127 509 q 79 508 95 508 q 74 593 75 562 q 73 640 73 624 l 73 703 q 117 703 92 703 q 169 702 142 702 q 224 701 197 701 q 275 700 252 700 l 587 700 q 611 698 600 699 q 630 691 622 696 q 642 676 637 686 q 646 648 646 666 l 646 595 l 200 71 l 473 71 z "},"{":{"ha":476,"x_min":68,"x_max":406,"o":"m 267 617 q 244 509 267 551 q 175 451 222 466 q 244 396 220 437 q 269 286 269 356 l 269 11 q 273 -38 269 -20 q 285 -68 277 -57 q 304 -85 293 -79 q 330 -96 315 -91 q 365 -104 346 -101 q 406 -109 385 -107 l 406 -120 q 398 -151 406 -142 q 371 -156 386 -154 q 339 -157 356 -157 q 263 -150 297 -157 q 206 -124 230 -143 q 170 -72 182 -105 q 157 12 157 -39 l 157 296 q 137 387 157 353 q 69 438 117 420 q 69 458 68 448 q 68 477 69 469 q 109 501 92 488 q 136 529 125 513 q 152 563 147 544 q 157 608 157 582 l 157 897 q 171 979 157 947 q 208 1029 184 1011 q 268 1054 233 1047 q 346 1061 302 1061 q 368 1060 357 1061 q 388 1055 379 1059 q 401 1043 396 1050 q 406 1024 406 1036 l 406 1013 q 332 1003 359 1010 q 290 983 304 996 q 271 947 275 969 q 267 893 267 926 l 267 617 z "},"|":{"ha":792,"x_min":346,"x_max":445,"o":"m 445 -168 l 397 -168 q 372 -166 382 -168 q 352 -161 361 -164 q 347 -105 349 -134 q 346 -45 346 -76 l 346 1082 l 393 1082 q 428 1074 416 1082 q 445 1050 439 1067 l 445 -168 z "},"}":{"ha":475,"x_min":69,"x_max":406,"o":"m 130 1061 q 215 1053 180 1061 q 273 1024 250 1044 q 305 968 295 1004 q 315 878 315 933 l 315 625 q 319 582 315 601 q 332 548 322 563 q 359 520 342 532 q 406 496 377 507 l 406 438 q 358 412 376 428 q 330 373 340 395 q 318 320 321 350 q 315 251 315 290 l 315 12 q 302 -75 315 -41 q 265 -126 290 -108 q 207 -151 241 -144 q 130 -157 172 -157 q 106 -156 117 -157 q 87 -151 96 -155 q 74 -140 79 -147 q 69 -120 69 -132 l 69 -109 q 141 -100 114 -106 q 183 -80 169 -94 q 203 -45 198 -67 q 208 11 208 -23 l 208 243 q 212 316 208 282 q 225 377 215 350 q 253 422 235 404 q 300 451 271 441 q 255 476 273 458 q 227 517 237 493 q 212 569 216 541 q 208 627 208 597 l 208 877 q 201 948 208 922 q 178 988 194 975 q 135 1006 161 1001 q 69 1013 109 1010 l 69 1024 q 74 1043 69 1036 q 87 1055 79 1050 q 106 1060 96 1059 q 130 1061 117 1061 z "},"~":{"ha":817,"x_min":77,"x_max":739,"o":"m 696 437 q 723 400 711 417 q 739 368 734 382 q 714 324 731 342 q 674 292 696 305 q 625 273 651 279 q 574 267 600 267 q 517 274 545 267 q 461 291 488 281 q 408 313 434 301 q 355 336 381 326 q 304 353 329 346 q 254 359 279 359 q 183 334 214 359 q 128 270 152 309 q 95 307 109 291 q 77 336 82 323 q 103 385 83 363 q 149 423 123 408 q 202 447 174 438 q 251 455 229 455 q 301 448 275 455 q 355 432 328 441 q 410 410 382 422 q 464 388 437 398 q 514 372 490 378 q 558 365 538 365 q 608 372 586 365 q 648 390 631 379 q 677 413 665 401 q 696 437 689 426 z "},"":{"ha":401,"x_min":0,"x_max":0,"o":""},"":{"ha":477,"x_min":143,"x_max":333,"o":"m 291 700 q 243 708 269 708 q 215 705 225 708 q 198 696 204 703 q 190 680 192 690 q 186 654 187 669 l 163 203 q 154 91 159 136 q 149 29 149 46 q 149 20 149 24 q 149 11 149 16 q 185 -8 164 -2 q 239 -15 207 -15 q 299 1 282 -15 q 316 52 316 18 q 316 62 316 56 q 315 81 315 68 q 313 119 315 95 q 310 185 312 144 q 304 288 307 227 q 296 437 301 349 q 291 553 293 503 q 288 639 288 604 q 289 671 288 655 q 291 700 290 686 m 238 988 q 196 980 214 988 q 166 959 178 972 q 149 929 155 946 q 143 895 143 913 q 149 861 143 878 q 167 830 155 844 q 197 808 179 817 q 238 800 214 800 q 279 808 261 800 q 309 830 297 817 q 327 861 321 844 q 333 895 333 878 q 327 929 333 913 q 310 959 321 946 q 280 980 298 972 q 238 988 262 988 z "},"":{"ha":818,"x_min":110,"x_max":730,"o":"m 408 722 q 299 622 339 694 q 259 431 259 550 q 270 331 259 376 q 300 253 281 287 q 347 196 319 219 q 408 159 374 172 l 408 722 m 730 212 q 691 146 716 174 q 633 101 666 119 q 563 74 601 83 q 484 61 524 64 l 484 -52 l 453 -52 q 427 -48 436 -52 q 413 -39 418 -45 q 408 -22 409 -33 q 408 1 408 -12 l 408 62 q 283 97 338 70 q 190 168 228 123 q 131 272 151 212 q 110 408 110 333 q 132 554 110 489 q 193 667 154 618 q 287 746 233 715 q 408 792 342 778 l 408 913 l 437 913 q 462 911 453 913 q 476 902 471 908 q 482 887 481 897 q 484 864 484 878 l 484 803 q 501 805 493 804 q 517 805 509 805 q 540 804 524 805 q 577 802 556 804 q 621 796 598 800 q 665 786 644 792 q 703 771 686 780 q 727 751 720 763 q 725 720 727 736 l 692 600 l 624 614 q 567 694 600 667 q 484 727 534 722 l 484 144 q 590 168 543 144 q 677 237 637 191 l 730 212 z "},"":{"ha":826,"x_min":68,"x_max":785,"o":"m 241 254 q 239 359 241 305 q 231 473 236 414 l 89 473 l 89 507 q 91 529 89 522 q 98 541 93 537 q 111 545 103 545 q 130 546 119 546 l 220 546 q 206 645 212 595 q 199 741 199 694 q 213 833 199 793 q 249 901 227 872 q 302 947 272 929 q 366 977 332 966 q 434 991 399 987 q 500 996 469 996 q 571 992 531 996 q 649 982 610 989 q 719 963 687 975 q 764 932 750 951 q 765 858 764 896 q 767 781 765 819 l 684 766 q 658 831 673 804 q 620 875 642 858 q 566 901 597 892 q 494 909 534 909 q 380 862 418 909 q 342 731 342 815 q 343 689 342 711 q 347 648 345 668 l 359 546 l 588 546 l 588 513 q 585 490 588 498 q 576 478 582 482 q 563 474 571 475 q 544 473 555 473 l 368 473 q 372 413 371 441 q 374 359 374 385 q 354 215 374 283 q 292 80 334 148 l 476 80 q 566 82 528 80 q 633 98 604 85 q 685 141 662 112 q 732 226 708 171 l 785 203 q 781 100 785 148 q 768 7 777 52 q 653 -2 725 1 q 474 -5 581 -5 q 374 -4 427 -5 q 271 -3 321 -4 q 175 -2 220 -3 q 102 0 131 -1 q 74 24 80 9 q 68 62 68 39 q 146 94 113 77 q 200 133 179 111 q 232 185 222 155 q 241 254 241 214 z "},"":{"ha":848,"x_min":90,"x_max":758,"o":"m 671 680 q 732 495 732 600 q 670 313 732 389 l 758 224 l 753 218 q 724 191 739 205 q 694 171 709 177 q 675 183 686 174 q 652 204 664 193 q 630 228 641 216 q 608 250 618 240 q 522 205 569 222 q 423 189 474 189 q 327 205 372 189 q 242 250 281 221 l 153 163 q 122 193 138 177 q 99 222 106 209 q 125 258 108 241 l 180 313 q 119 496 119 391 q 180 678 119 601 l 90 767 q 122 798 106 781 q 153 821 138 814 q 170 810 161 816 q 187 795 178 804 l 241 741 q 424 803 324 803 q 519 787 473 803 q 607 741 566 771 l 696 830 l 703 824 q 731 793 719 808 q 744 760 744 778 q 743 751 744 753 l 671 680 m 209 496 q 226 408 209 448 q 272 338 243 368 q 341 293 302 309 q 425 277 380 277 q 511 294 471 277 q 580 340 551 311 q 626 410 609 370 q 642 496 642 450 q 626 583 642 543 q 580 652 609 623 q 511 699 551 682 q 425 715 471 715 q 340 699 379 715 q 271 653 300 682 q 225 583 242 623 q 209 496 209 543 z "},"":{"ha":1101,"x_min":7,"x_max":1095,"o":"m 777 833 q 789 866 784 851 q 798 893 795 880 q 768 900 785 899 q 731 901 751 901 l 684 901 l 698 970 q 791 977 743 975 q 896 979 838 979 q 1008 977 958 979 q 1095 968 1059 976 l 1067 901 l 1012 901 q 974 900 992 901 q 939 893 956 899 q 915 858 927 878 q 888 812 902 838 q 876 787 888 812 q 841 724 863 763 q 790 635 819 685 q 730 535 762 586 l 651 406 l 804 406 l 804 378 q 802 354 804 362 q 793 342 799 346 q 780 338 788 338 q 760 337 771 337 l 618 337 l 618 264 l 804 264 l 804 237 q 802 213 804 221 q 793 201 799 205 q 779 197 787 197 q 759 196 770 196 l 618 196 l 618 170 q 621 121 618 141 q 628 85 623 101 q 660 80 643 81 q 697 79 677 79 l 759 79 l 759 -13 q 647 -3 699 -5 q 544 0 595 0 q 437 -3 489 0 q 330 -13 385 -7 l 330 79 l 390 79 q 427 80 410 79 q 460 85 444 81 q 470 168 470 116 l 470 196 l 289 196 l 289 241 q 317 259 300 255 q 357 264 333 264 l 470 264 l 470 331 l 467 337 l 289 337 l 289 382 q 318 401 301 396 q 360 406 335 406 l 429 406 l 192 812 q 167 857 176 838 q 146 893 158 877 q 111 900 129 899 q 73 901 93 901 l 23 901 l 7 970 q 97 977 50 975 q 202 979 144 979 q 328 977 270 979 q 433 968 386 976 l 441 901 l 393 901 q 355 900 372 901 q 326 893 338 899 q 329 879 327 885 q 333 865 330 872 q 341 849 336 858 q 353 829 346 841 l 574 447 q 614 517 593 479 q 655 592 635 554 q 695 667 675 630 q 730 736 714 704 q 758 793 746 768 q 777 833 770 818 z "},"":{"ha":374,"x_min":142,"x_max":233,"o":"m 233 496 l 193 496 q 164 500 174 496 q 149 512 153 504 q 143 531 144 519 q 142 557 142 542 l 142 1041 l 180 1041 q 215 1034 203 1041 q 233 1009 227 1026 l 233 496 m 233 -303 l 193 -303 q 164 -299 174 -303 q 149 -288 153 -296 q 143 -270 144 -281 q 142 -243 142 -258 l 142 240 l 180 240 q 215 233 203 240 q 233 209 227 226 l 233 -303 z "},"":{"ha":721,"x_min":109,"x_max":650,"o":"m 405 1029 q 603 978 559 1029 l 578 838 l 515 850 q 495 897 506 878 q 468 928 484 916 q 430 944 452 939 q 374 949 407 949 q 280 923 315 949 q 246 848 246 897 q 254 808 246 826 q 279 774 262 790 q 324 742 296 758 q 391 708 351 726 q 524 644 473 672 q 603 588 575 615 q 641 532 631 561 q 650 467 650 503 q 624 359 650 407 q 543 284 598 311 q 615 211 592 256 q 638 119 638 167 q 618 27 638 67 q 563 -39 598 -12 q 477 -79 527 -66 q 367 -93 427 -93 q 300 -87 338 -93 q 225 -70 262 -81 q 157 -45 188 -59 q 111 -16 126 -31 q 112 54 111 19 q 115 127 113 88 l 180 134 q 211 65 193 94 q 253 20 229 37 q 308 -5 277 3 q 380 -12 340 -12 q 436 -5 410 -12 q 481 15 462 1 q 511 49 500 28 q 522 96 522 69 q 505 143 522 123 q 459 180 488 163 q 392 215 431 197 q 308 254 353 232 q 227 299 264 276 q 164 349 191 321 q 123 409 138 376 q 109 486 109 442 q 136 591 109 550 q 221 659 163 632 q 153 732 174 693 q 132 825 132 772 q 150 909 132 871 q 202 974 168 947 q 288 1015 237 1000 q 405 1029 338 1029 m 454 328 q 518 378 497 349 q 539 439 539 407 q 519 488 539 465 q 467 532 500 511 q 390 574 433 553 q 300 614 347 594 q 220 505 220 573 q 225 474 220 488 q 239 448 229 460 q 265 424 249 435 q 304 399 281 412 q 377 363 339 380 q 454 328 416 345 z "},"":{"ha":595,"x_min":106,"x_max":492,"o":"m 339 957 q 345 987 339 973 q 362 1011 351 1001 q 386 1027 372 1021 q 416 1034 400 1034 q 445 1027 431 1034 q 470 1011 459 1021 q 486 987 480 1001 q 492 957 492 973 q 486 927 492 941 q 470 903 480 913 q 445 887 459 893 q 416 881 431 881 q 386 887 400 881 q 362 903 372 893 q 345 927 351 913 q 339 957 339 941 m 106 957 q 112 987 106 973 q 129 1011 118 1001 q 153 1027 139 1021 q 182 1034 167 1034 q 212 1027 198 1034 q 236 1011 226 1021 q 253 987 247 1001 q 259 957 259 973 q 253 927 259 941 q 236 903 247 913 q 212 887 226 893 q 182 881 198 881 q 153 887 167 881 q 129 903 139 893 q 112 927 118 913 q 106 957 106 941 z "},"":{"ha":1203,"x_min":77,"x_max":1126,"o":"m 798 235 q 713 203 763 214 q 607 191 663 191 q 491 211 544 191 q 400 267 438 230 q 340 356 361 303 q 319 478 319 410 q 341 608 319 551 q 403 703 363 664 q 497 761 443 741 q 615 781 551 781 q 718 767 670 781 q 795 726 766 753 l 787 618 l 748 618 q 688 695 722 671 q 604 720 653 720 q 536 705 567 720 q 484 661 506 689 q 449 594 461 633 q 437 508 437 555 q 451 394 437 441 q 491 315 466 346 q 549 271 515 285 q 620 256 582 256 q 711 268 669 256 q 790 305 753 280 l 798 235 m 77 488 q 95 628 77 561 q 148 753 114 694 q 231 859 182 811 q 337 942 279 907 q 462 995 395 976 q 602 1013 529 1013 q 741 995 674 1013 q 866 942 808 976 q 972 859 924 907 q 1055 753 1021 811 q 1108 628 1089 694 q 1126 488 1126 561 q 1108 349 1126 416 q 1055 224 1089 282 q 972 117 1021 165 q 866 35 924 69 q 741 -18 808 1 q 602 -37 674 -37 q 462 -18 529 -37 q 337 35 395 1 q 231 117 279 69 q 148 224 182 165 q 95 349 114 282 q 77 488 77 416 m 153 488 q 188 314 153 395 q 284 171 223 232 q 427 75 345 110 q 602 39 509 39 q 776 75 694 39 q 919 171 858 110 q 1015 314 980 232 q 1050 488 1050 395 q 1015 663 1050 581 q 919 806 980 745 q 776 902 858 867 q 602 937 694 937 q 427 902 509 937 q 284 806 345 867 q 188 663 223 745 q 153 488 153 581 z "},"":{"ha":538,"x_min":49,"x_max":515,"o":"m 515 560 q 464 551 491 554 q 403 549 436 549 q 346 573 354 549 l 344 608 q 279 560 314 579 q 195 541 243 541 q 135 549 162 541 q 89 573 108 557 q 59 613 70 589 q 49 668 49 637 q 105 773 49 738 q 281 808 161 808 l 344 808 l 344 846 q 338 900 344 878 q 323 935 333 922 q 298 954 313 948 q 265 960 283 960 q 221 954 241 960 q 186 936 202 947 q 155 909 170 925 q 125 873 140 893 q 62 911 72 903 q 75 944 62 928 q 111 975 87 961 q 169 997 135 989 q 245 1006 203 1006 q 342 993 304 1006 q 402 958 380 980 q 433 906 425 936 q 442 844 442 877 q 442 767 442 805 q 441 694 441 729 q 442 644 441 666 q 445 604 442 621 q 475 598 458 600 q 515 597 492 597 l 515 560 m 336 648 q 342 703 340 677 q 344 759 344 728 l 276 759 q 180 738 212 759 q 148 673 148 716 q 169 625 148 644 q 224 606 189 606 q 281 618 252 606 q 336 648 310 631 z "},"":{"ha":697,"x_min":90,"x_max":607,"o":"m 327 360 q 335 388 328 374 q 352 415 342 401 l 503 629 q 515 645 509 639 q 527 656 522 651 l 530 656 q 547 653 539 656 q 571 643 555 650 l 607 627 l 449 372 l 598 116 q 564 90 575 98 q 541 83 552 83 q 526 84 533 83 q 511 91 519 85 l 327 360 m 90 360 q 100 387 94 373 q 116 415 106 401 l 286 652 q 299 668 292 662 q 311 680 305 675 q 329 677 319 680 q 353 665 339 674 l 389 650 l 212 372 l 380 94 q 346 68 357 76 q 323 60 334 60 q 294 68 309 60 l 90 360 z "},"":{"ha":852,"x_min":90,"x_max":762,"o":"m 665 465 l 90 465 l 90 510 q 94 540 90 530 q 106 556 98 551 q 126 562 115 561 q 154 562 138 562 l 762 562 l 762 173 l 716 173 q 682 180 694 173 q 665 204 669 187 l 665 465 z "},"":{"ha":609,"x_min":115,"x_max":494,"o":"m 115 321 l 115 380 q 119 404 115 395 q 130 416 123 412 q 147 421 137 420 q 170 422 157 422 l 494 422 l 494 364 q 486 334 494 344 q 463 321 479 324 l 115 321 z "},"":{"ha":1203,"x_min":77,"x_max":1126,"o":"m 77 488 q 95 628 77 561 q 148 753 114 694 q 231 859 182 811 q 337 942 279 907 q 462 995 395 976 q 602 1013 529 1013 q 741 995 674 1013 q 866 942 808 976 q 972 859 924 907 q 1055 753 1021 811 q 1108 628 1089 694 q 1126 488 1126 561 q 1108 349 1126 416 q 1055 224 1089 282 q 972 117 1021 165 q 866 35 924 69 q 741 -18 808 1 q 602 -37 674 -37 q 462 -18 529 -37 q 337 35 395 1 q 231 117 279 69 q 148 224 182 165 q 95 349 114 282 q 77 488 77 416 m 153 488 q 188 314 153 395 q 284 171 223 232 q 427 75 345 110 q 602 39 509 39 q 776 75 694 39 q 919 171 858 110 q 1015 314 980 232 q 1050 488 1050 395 q 1015 663 1050 581 q 919 806 980 745 q 776 902 858 867 q 602 937 694 937 q 427 902 509 937 q 284 806 345 867 q 188 663 223 745 q 153 488 153 581 m 429 665 q 423 708 429 692 q 407 709 415 709 q 391 709 399 709 l 340 709 l 340 750 q 378 755 355 751 q 439 763 400 760 q 509 767 474 766 q 581 767 545 767 q 686 759 640 767 q 762 730 731 750 q 808 679 793 711 q 824 602 824 648 q 813 544 824 570 q 785 497 803 517 q 741 463 766 477 q 688 441 716 449 q 724 421 707 435 q 756 392 741 408 q 783 358 771 376 q 803 324 795 340 l 828 276 q 841 252 835 263 q 854 241 846 241 q 857 242 855 241 q 863 244 858 242 q 879 252 869 247 q 907 267 889 257 l 918 235 q 868 202 895 216 q 816 187 840 187 q 798 188 808 187 q 780 192 789 189 q 762 203 770 195 q 749 224 754 210 q 692 339 722 288 q 625 437 663 391 q 576 437 600 437 q 528 439 551 437 l 528 296 q 529 269 528 280 q 534 248 531 258 q 552 245 543 245 q 574 244 562 244 l 609 244 l 609 191 q 537 197 570 195 q 472 199 505 199 q 410 197 439 199 q 348 191 380 195 l 348 244 l 393 244 q 409 245 401 244 q 423 248 416 245 q 429 295 429 265 l 429 665 m 589 714 q 528 712 555 714 l 528 484 q 561 483 543 484 q 598 483 578 483 q 693 513 663 483 q 722 599 722 543 q 715 653 722 631 q 691 689 707 675 q 650 708 675 703 q 589 714 625 714 z "},"":{"ha":401,"x_min":1,"x_max":399,"o":"m 1 964 l 399 964 l 399 880 l 1 880 l 1 964 z "},"":{"ha":569,"x_min":66,"x_max":501,"o":"m 66 764 q 83 849 66 809 q 130 918 100 888 q 199 964 159 947 q 283 981 238 981 q 368 964 328 981 q 438 917 408 947 q 484 848 467 888 q 501 764 501 808 q 484 679 501 719 q 438 610 467 640 q 368 563 408 581 q 283 546 328 546 q 199 563 238 546 q 130 610 159 581 q 83 679 100 640 q 66 764 66 719 m 141 764 q 153 708 141 734 q 184 662 164 682 q 229 632 203 643 q 283 621 255 621 q 338 632 312 621 q 384 663 364 644 q 414 708 403 682 q 425 764 425 734 q 414 819 425 793 q 384 864 403 844 q 338 895 364 884 q 283 907 312 907 q 228 895 254 907 q 183 864 202 884 q 152 819 163 844 q 141 764 141 793 z "},"":{"ha":852,"x_min":90,"x_max":762,"o":"m 475 456 l 475 203 l 429 203 q 400 205 411 203 q 385 214 390 208 q 378 230 380 220 q 377 256 377 240 l 377 456 l 90 456 l 90 502 q 93 530 90 520 q 102 546 96 541 q 119 552 109 551 q 146 553 130 553 l 377 553 l 377 808 l 422 808 q 450 806 439 808 q 466 798 460 804 q 473 781 471 791 q 475 753 475 770 l 475 553 l 762 553 l 762 509 q 755 474 762 486 q 730 456 747 462 l 475 456 m 90 24 l 90 70 q 92 97 90 87 q 100 113 94 107 q 117 120 106 118 q 144 121 127 121 l 762 121 l 762 76 q 755 41 762 53 q 730 24 747 29 l 90 24 z "},"":{"ha":604,"x_min":95,"x_max":509,"o":"m 305 943 q 260 937 283 943 q 218 916 237 930 q 185 881 199 902 q 168 833 172 861 l 107 884 q 129 932 111 911 q 173 966 146 953 q 232 987 199 980 q 298 994 264 994 q 380 983 345 994 q 439 950 415 971 q 476 899 463 928 q 488 833 488 869 q 474 759 488 795 q 425 680 459 723 q 332 581 390 636 q 188 449 275 526 l 353 449 q 385 451 368 449 q 420 461 402 453 q 454 486 437 469 q 482 530 470 502 q 497 528 490 530 q 509 526 504 526 q 508 460 509 490 q 503 401 507 429 q 477 394 491 397 q 445 391 463 392 q 401 390 426 390 q 342 389 376 389 l 134 389 q 107 394 115 389 q 95 410 99 399 q 97 426 95 417 q 100 445 98 435 q 228 573 172 515 q 329 683 283 631 q 366 730 352 709 q 388 771 380 752 q 399 806 396 789 q 401 837 401 822 q 305 943 401 943 z "},"":{"ha":593,"x_min":113,"x_max":510,"o":"m 408 847 q 400 890 408 871 q 377 921 391 909 q 343 940 362 934 q 303 946 324 946 q 260 939 281 946 q 220 919 238 932 q 188 886 201 905 q 171 840 175 866 l 115 886 q 136 933 119 913 q 178 968 153 954 q 234 989 203 982 q 298 996 265 996 q 367 986 333 996 q 429 959 401 977 q 472 912 456 940 q 489 846 489 884 q 479 802 489 824 q 452 761 470 780 q 406 726 433 741 q 342 703 378 711 q 468 654 426 692 q 510 549 510 617 q 495 478 510 510 q 454 424 481 446 q 390 390 427 401 q 307 378 353 378 q 239 385 272 378 q 181 403 207 391 q 137 430 155 415 q 113 462 119 446 q 119 504 116 483 q 127 555 121 524 l 172 547 q 184 491 172 513 q 214 454 195 468 q 255 435 232 441 q 302 429 278 429 q 354 439 331 429 q 393 466 377 449 q 418 505 410 482 q 427 554 427 528 q 414 608 427 585 q 379 644 402 630 q 323 665 356 659 q 249 671 290 671 l 232 671 l 232 696 q 236 720 232 711 l 259 720 q 306 728 280 720 q 354 751 332 735 q 393 790 377 766 q 408 847 408 814 z "},"":{"ha":831,"x_min":265,"x_max":564,"o":"m 358 857 q 306 857 325 857 q 278 857 288 857 q 267 858 269 857 q 265 858 265 858 q 313 940 293 905 q 348 1001 333 975 q 373 1044 363 1026 q 393 1076 384 1062 l 564 1076 q 555 1067 564 1076 q 525 1033 547 1057 q 462 966 502 1008 q 358 857 422 924 z "},"":{"ha":1031,"x_min":119,"x_max":973,"o":"m 709 566 q 701 631 709 604 q 675 636 689 635 q 645 638 661 638 l 589 638 l 589 696 q 697 710 635 706 q 838 715 760 715 q 850 706 848 715 q 852 686 852 697 l 852 182 q 856 117 852 144 q 868 69 860 90 q 895 67 881 68 q 925 66 909 66 l 973 66 l 973 10 q 794 -7 897 -7 q 750 -6 768 -7 q 720 2 731 -4 q 703 21 708 8 q 697 55 697 33 l 696 78 q 644 43 671 60 q 589 12 617 26 q 530 -10 560 -1 q 469 -18 500 -18 q 427 -14 448 -18 q 384 -1 406 -10 l 384 -81 q 393 -157 384 -126 q 419 -170 404 -165 q 452 -174 435 -174 l 452 -231 q 394 -243 427 -239 q 320 -247 361 -247 q 290 -244 305 -247 q 262 -236 275 -242 q 242 -218 250 -229 q 235 -189 235 -207 q 237 -123 235 -155 q 239 -47 239 -90 l 239 566 q 237 601 239 585 q 232 631 235 617 q 205 636 220 635 q 176 638 191 638 l 119 638 l 119 696 q 228 710 165 706 q 368 715 290 715 q 381 705 379 715 q 384 683 384 694 l 384 193 q 389 140 384 164 q 407 99 394 116 q 444 72 420 81 q 505 62 468 62 q 573 73 539 62 q 634 98 607 84 q 679 124 662 112 q 697 139 696 137 q 707 241 705 184 q 709 360 709 298 l 709 566 z "},"":{"ha":819,"x_min":56,"x_max":762,"o":"m 541 941 q 663 939 606 941 q 762 930 720 938 l 762 863 l 700 863 q 662 862 680 863 q 630 855 644 861 q 622 820 625 840 q 620 774 620 800 l 620 43 q 631 -39 620 -9 q 663 -44 646 -43 q 701 -45 680 -45 l 761 -45 l 761 -137 q 703 -132 733 -134 q 643 -128 673 -130 q 582 -125 612 -126 q 525 -124 552 -124 l 525 889 l 420 889 l 420 -124 q 363 -125 393 -124 q 302 -128 333 -126 q 242 -132 272 -130 q 184 -137 212 -134 l 184 -45 l 245 -45 q 282 -44 265 -45 q 315 -39 300 -43 q 326 43 326 -9 l 326 404 q 203 423 254 404 q 119 479 152 443 q 71 567 87 515 q 56 681 56 618 q 79 800 56 751 q 152 881 103 850 q 273 926 200 912 q 444 941 346 941 l 541 941 z "},"":{"ha":376,"x_min":113,"x_max":266,"o":"m 113 405 q 119 435 113 421 q 135 459 125 449 q 160 475 146 469 q 189 481 174 481 q 219 475 205 481 q 243 459 233 469 q 260 435 254 449 q 266 405 266 421 q 260 375 266 389 q 243 351 254 361 q 219 335 233 341 q 189 329 205 329 q 160 335 174 329 q 135 351 146 341 q 119 375 125 361 q 113 405 113 389 z "},"":{"ha":471,"x_min":83,"x_max":382,"o":"m 87 -248 q 134 -260 110 -255 q 178 -264 157 -264 q 245 -247 221 -264 q 269 -197 269 -229 q 251 -143 269 -161 q 201 -121 232 -125 q 190 -122 196 -121 q 176 -126 184 -124 q 159 -118 168 -121 q 142 -111 151 -115 l 199 7 l 268 7 l 230 -65 q 293 -74 265 -67 q 341 -94 321 -81 q 372 -130 361 -108 q 382 -184 382 -152 q 369 -253 382 -224 q 333 -300 356 -281 q 277 -329 309 -319 q 208 -338 245 -338 q 135 -330 165 -338 q 87 -310 105 -321 q 83 -283 83 -299 q 87 -248 83 -267 z "},"":{"ha":479,"x_min":114,"x_max":393,"o":"m 309 496 q 310 466 309 478 q 314 445 311 454 q 334 441 323 442 q 356 441 345 441 l 393 441 l 393 385 q 328 392 359 390 q 268 393 297 393 q 203 391 235 393 q 138 385 172 389 l 138 441 l 185 441 q 202 441 194 441 q 217 445 210 442 q 222 466 220 454 q 224 494 224 478 l 224 902 q 207 911 216 908 q 184 914 197 914 q 173 913 179 914 q 161 912 167 913 l 121 905 l 114 943 q 156 958 134 950 q 201 973 178 966 q 244 984 223 980 q 283 989 265 989 q 300 985 294 989 q 309 977 305 982 l 309 496 z "},"":{"ha":573,"x_min":49,"x_max":524,"o":"m 524 772 q 506 674 524 718 q 456 602 488 631 q 381 557 425 572 q 288 541 338 541 q 193 557 237 541 q 117 602 149 572 q 67 674 85 631 q 49 772 49 718 q 67 871 49 827 q 118 944 85 914 q 193 990 150 975 q 288 1006 237 1006 q 381 990 338 1006 q 456 944 425 974 q 506 871 488 914 q 524 772 524 827 m 288 954 q 195 910 224 954 q 165 773 165 867 q 196 636 165 680 q 288 593 227 593 q 379 637 350 593 q 408 774 408 681 q 379 910 408 867 q 288 954 350 954 z "},"":{"ha":697,"x_min":90,"x_max":607,"o":"m 193 110 q 180 94 186 100 q 169 83 174 88 q 151 86 160 83 q 131 95 142 89 l 90 116 l 248 372 l 99 627 l 133 643 q 156 652 146 648 q 174 656 166 656 q 186 645 180 651 q 199 629 193 639 l 345 415 q 371 360 366 388 l 193 110 m 410 87 q 397 72 403 77 q 385 60 391 66 q 370 62 378 60 q 353 68 362 64 q 334 78 345 72 q 309 94 323 84 l 485 372 l 315 650 l 349 665 q 373 676 362 673 q 391 680 384 680 q 403 668 397 675 q 416 652 410 661 l 581 415 q 607 360 602 387 l 410 87 z "},"":{"ha":1164,"x_min":95,"x_max":1074,"o":"m 810 998 q 854 985 846 998 q 839 953 848 970 q 821 919 830 937 l 321 -27 l 277 -27 q 238 -17 246 -27 q 505 491 371 239 q 774 998 639 743 l 810 998 m 290 496 q 291 466 290 478 q 295 445 292 454 q 315 441 304 442 q 337 441 326 441 l 374 441 l 374 385 q 309 392 340 390 q 249 393 278 393 q 184 391 216 393 q 119 385 153 389 l 119 441 l 166 441 q 183 441 175 441 q 198 445 191 442 q 203 466 201 454 q 205 494 205 478 l 205 902 q 188 911 197 908 q 165 914 178 914 q 154 913 160 914 q 142 912 148 913 l 102 905 l 95 943 q 137 958 115 950 q 182 973 159 966 q 225 984 204 980 q 264 989 246 989 q 281 985 275 989 q 290 977 286 982 l 290 496 m 958 111 q 960 81 958 94 q 964 60 961 69 q 984 57 973 58 q 1006 56 994 56 l 1043 56 l 1043 0 q 980 6 1010 5 q 922 8 950 8 q 856 6 887 8 q 791 0 825 4 l 791 56 l 828 56 q 851 57 840 56 q 870 60 861 57 q 877 110 877 78 l 877 166 l 619 166 q 603 202 603 179 q 615 224 606 212 q 728 385 681 318 q 806 496 774 452 q 857 564 838 540 q 884 598 875 589 l 920 598 q 951 592 945 598 q 958 567 958 586 l 958 218 l 1074 218 l 1074 196 q 1066 171 1074 175 q 1041 166 1059 166 l 958 166 l 958 111 m 877 218 l 877 475 l 876 495 l 689 232 l 682 218 l 877 218 z "},"":{"ha":1219,"x_min":95,"x_max":1120,"o":"m 821 998 q 865 985 856 998 q 848 954 857 970 q 830 919 840 937 l 330 -27 l 286 -27 q 248 -17 256 -27 q 263 15 254 -2 q 284 52 273 31 q 534 524 410 289 q 783 998 658 760 l 821 998 m 290 496 q 291 466 290 478 q 295 445 292 454 q 315 441 304 442 q 337 441 326 441 l 374 441 l 374 385 q 309 392 340 390 q 249 393 278 393 q 184 391 216 393 q 119 385 153 389 l 119 441 l 166 441 q 183 441 175 441 q 198 445 191 442 q 203 466 201 454 q 205 494 205 478 l 205 902 q 188 911 197 908 q 165 914 178 914 q 154 913 160 914 q 142 912 148 913 l 102 905 l 95 943 q 137 958 115 950 q 182 973 159 966 q 225 984 204 980 q 264 989 246 989 q 281 985 275 989 q 290 977 286 982 l 290 496 m 916 554 q 871 547 894 554 q 829 527 848 541 q 796 492 810 513 q 779 444 783 471 l 718 494 q 740 543 722 522 q 784 577 758 564 q 843 598 810 591 q 909 605 876 605 q 991 593 956 605 q 1050 561 1026 582 q 1087 510 1074 539 q 1099 444 1099 480 q 1085 370 1099 406 q 1036 290 1070 334 q 943 192 1001 247 q 799 60 886 136 l 964 60 q 996 62 979 60 q 1031 72 1013 64 q 1065 96 1048 80 q 1093 141 1081 113 q 1108 139 1101 141 q 1120 136 1115 136 q 1119 71 1120 101 q 1114 12 1118 40 q 1088 5 1102 7 q 1056 2 1074 3 q 1012 0 1037 1 q 953 0 987 0 l 745 0 q 718 5 726 0 q 706 21 710 10 q 708 37 706 28 q 711 56 709 45 q 839 183 783 125 q 940 294 895 241 q 977 341 963 319 q 999 381 991 363 q 1010 416 1007 400 q 1013 448 1013 433 q 916 554 1013 554 z "},"":{"ha":1241,"x_min":100,"x_max":1173,"o":"m 911 998 q 954 985 946 998 q 937 950 947 968 q 918 913 928 932 l 420 -27 l 376 -27 q 337 -17 347 -27 q 355 18 346 -1 q 377 57 365 37 l 873 998 l 911 998 m 1057 111 q 1059 81 1057 94 q 1063 60 1060 69 q 1083 57 1072 58 q 1105 56 1093 56 l 1142 56 l 1142 0 q 1079 6 1109 5 q 1021 8 1049 8 q 955 6 986 8 q 890 0 924 4 l 890 56 l 927 56 q 950 57 939 56 q 969 60 960 57 q 976 110 976 78 l 976 166 l 718 166 q 702 202 702 179 q 714 224 705 212 q 827 385 780 318 q 905 496 873 452 q 956 564 937 540 q 983 598 974 589 l 1019 598 q 1050 592 1044 598 q 1057 567 1057 586 l 1057 218 l 1173 218 l 1173 196 q 1165 171 1173 175 q 1140 166 1158 166 l 1057 166 l 1057 111 m 976 218 l 976 475 l 975 495 l 788 232 l 781 218 l 976 218 m 395 847 q 386 890 395 871 q 363 921 378 909 q 330 940 349 934 q 290 946 311 946 q 246 939 268 946 q 206 919 224 932 q 175 886 188 905 q 157 840 161 866 l 102 886 q 123 933 106 913 q 165 968 140 954 q 221 989 190 982 q 284 996 252 996 q 354 986 319 996 q 415 959 388 977 q 459 912 442 940 q 475 846 475 884 q 466 802 475 824 q 438 761 456 780 q 392 726 420 741 q 329 703 365 711 q 454 654 412 692 q 496 549 496 617 q 482 478 496 510 q 440 424 467 446 q 376 390 414 401 q 294 378 339 378 q 226 385 258 378 q 167 403 193 391 q 123 430 141 415 q 100 462 106 446 l 102 477 q 105 506 103 487 q 113 555 108 524 l 159 547 q 170 491 159 513 q 200 454 182 468 q 241 435 218 441 q 288 429 264 429 q 340 439 317 429 q 380 466 363 449 q 405 505 396 482 q 413 554 413 528 q 401 608 413 585 q 366 644 389 630 q 310 665 342 659 q 235 671 277 671 l 218 671 l 218 696 q 222 720 218 711 l 245 720 q 292 728 267 720 q 341 751 318 735 q 379 790 363 766 q 395 847 395 814 z "},"":{"ha":667,"x_min":59,"x_max":597,"o":"m 258 909 q 267 949 258 932 q 288 977 275 966 q 316 993 300 988 q 346 998 331 998 q 392 990 373 998 q 423 970 411 983 q 440 942 435 958 q 446 909 446 926 q 420 834 446 859 q 352 810 395 810 q 315 818 332 810 q 285 841 298 827 q 266 872 273 855 q 258 909 258 890 m 343 717 q 373 696 357 709 q 403 666 389 683 q 425 630 416 650 q 433 588 433 610 q 417 525 433 554 q 375 470 400 497 q 322 416 351 443 q 268 360 293 389 q 227 295 244 330 q 210 219 210 261 q 219 159 210 185 q 245 113 229 132 q 285 85 262 94 q 337 75 309 75 q 388 78 362 75 q 435 93 413 82 q 476 126 458 104 q 504 185 494 148 l 597 185 q 584 114 596 145 q 551 61 572 83 q 505 23 531 38 q 449 0 478 8 q 391 -12 421 -9 q 334 -16 362 -16 q 222 0 273 -16 q 136 46 172 16 q 80 121 100 77 q 60 221 60 165 q 78 313 60 271 q 125 388 97 354 q 186 451 153 423 q 246 505 218 480 q 293 553 274 530 q 311 598 311 576 q 310 622 311 608 q 306 652 309 636 q 299 685 303 668 q 290 717 295 701 l 343 717 z "},"":{"ha":1072,"x_min":0,"x_max":1072,"o":"m 253 1291 l 422 1291 l 551 1072 l 457 1072 l 253 1291 m 509 854 l 338 357 l 682 357 l 515 854 l 509 854 m 917 176 q 938 127 928 147 q 958 92 947 107 q 989 86 973 87 q 1023 85 1005 85 l 1053 85 l 1072 -9 q 986 -1 1027 -3 q 908 0 946 0 q 855 0 880 0 q 805 -2 829 -1 q 756 -4 781 -3 q 706 -9 732 -6 l 693 85 l 705 85 q 741 86 724 85 q 772 92 758 87 q 767 127 771 107 q 752 174 762 148 l 707 287 l 316 287 l 279 176 q 268 133 271 151 q 264 100 264 115 q 269 92 264 94 q 280 87 273 89 q 296 86 288 86 q 313 85 304 85 l 344 85 l 338 -9 q 264 -1 300 -3 q 194 0 229 0 q 97 -1 142 0 q 0 -9 52 -3 l 20 85 l 52 85 q 86 86 70 85 q 117 92 102 87 q 138 127 128 107 q 158 174 149 148 q 184 242 166 196 q 225 349 201 288 q 276 479 249 410 q 332 619 304 549 l 473 975 l 535 975 q 584 972 566 975 q 618 964 602 969 l 917 176 z "},"":{"ha":1072,"x_min":0,"x_max":1072,"o":"m 551 1072 q 499 1072 517 1072 q 471 1072 480 1072 q 460 1072 462 1072 q 458 1072 458 1072 q 506 1155 486 1120 q 541 1215 526 1190 q 566 1258 555 1240 q 586 1291 576 1276 l 756 1291 q 748 1281 756 1291 q 717 1247 740 1272 q 654 1180 694 1223 q 551 1072 614 1138 m 509 854 l 338 357 l 682 357 l 515 854 l 509 854 m 917 176 q 938 127 928 147 q 958 92 947 107 q 989 86 973 87 q 1023 85 1005 85 l 1053 85 l 1072 -9 q 986 -1 1027 -3 q 908 0 946 0 q 855 0 880 0 q 805 -2 829 -1 q 756 -4 781 -3 q 706 -9 732 -6 l 693 85 l 705 85 q 741 86 724 85 q 772 92 758 87 q 767 127 771 107 q 752 174 762 148 l 707 287 l 316 287 l 279 176 q 268 133 271 151 q 264 100 264 115 q 269 92 264 94 q 280 87 273 89 q 296 86 288 86 q 313 85 304 85 l 344 85 l 338 -9 q 264 -1 300 -3 q 194 0 229 0 q 97 -1 142 0 q 0 -9 52 -3 l 20 85 l 52 85 q 86 86 70 85 q 117 92 102 87 q 138 127 128 107 q 158 174 149 148 q 184 242 166 196 q 225 349 201 288 q 276 479 249 410 q 332 619 304 549 l 473 975 l 535 975 q 584 972 566 975 q 618 964 602 969 l 917 176 z "},"":{"ha":1072,"x_min":0,"x_max":1072,"o":"m 724 1084 q 688 1072 716 1072 l 633 1072 l 505 1202 l 373 1072 l 321 1072 q 283 1084 291 1072 q 289 1096 286 1090 q 298 1109 292 1101 l 436 1291 l 571 1291 l 710 1109 q 718 1096 715 1101 q 724 1084 722 1090 m 509 854 l 338 357 l 682 357 l 515 854 l 509 854 m 917 176 q 938 127 928 147 q 958 92 947 107 q 989 86 973 87 q 1023 85 1005 85 l 1053 85 l 1072 -9 q 986 -1 1027 -3 q 908 0 946 0 q 855 0 880 0 q 805 -2 829 -1 q 756 -4 781 -3 q 706 -9 732 -6 l 693 85 l 705 85 q 741 86 724 85 q 772 92 758 87 q 767 127 771 107 q 752 174 762 148 l 707 287 l 316 287 l 279 176 q 268 133 271 151 q 264 100 264 115 q 269 92 264 94 q 280 87 273 89 q 296 86 288 86 q 313 85 304 85 l 344 85 l 338 -9 q 264 -1 300 -3 q 194 0 229 0 q 97 -1 142 0 q 0 -9 52 -3 l 20 85 l 52 85 q 86 86 70 85 q 117 92 102 87 q 138 127 128 107 q 158 174 149 148 q 184 242 166 196 q 225 349 201 288 q 276 479 249 410 q 332 619 304 549 l 473 975 l 535 975 q 584 972 566 975 q 618 964 602 969 l 917 176 z "},"":{"ha":1072,"x_min":0,"x_max":1072,"o":"m 405 1238 q 463 1227 436 1238 q 515 1202 490 1216 q 564 1177 540 1188 q 615 1166 589 1166 q 644 1173 631 1166 q 669 1191 658 1181 q 687 1212 680 1201 q 698 1227 694 1222 q 767 1208 734 1227 q 694 1107 732 1143 q 608 1072 655 1072 q 546 1083 575 1072 q 489 1108 516 1095 q 438 1133 463 1122 q 391 1145 414 1145 q 362 1137 375 1145 q 338 1119 349 1129 q 319 1099 327 1109 q 307 1084 311 1088 q 273 1088 290 1084 q 241 1102 257 1092 q 281 1171 260 1144 q 324 1213 302 1198 q 366 1233 345 1227 q 405 1238 387 1238 m 509 854 l 338 357 l 682 357 l 515 854 l 509 854 m 917 176 q 938 127 928 147 q 958 92 947 107 q 989 86 973 87 q 1023 85 1005 85 l 1053 85 l 1072 -9 q 986 -1 1027 -3 q 908 0 946 0 q 855 0 880 0 q 805 -2 829 -1 q 756 -4 781 -3 q 706 -9 732 -6 l 693 85 l 705 85 q 741 86 724 85 q 772 92 758 87 q 767 127 771 107 q 752 174 762 148 l 707 287 l 316 287 l 279 176 q 268 133 271 151 q 264 100 264 115 q 269 92 264 94 q 280 87 273 89 q 296 86 288 86 q 313 85 304 85 l 344 85 l 338 -9 q 264 -1 300 -3 q 194 0 229 0 q 97 -1 142 0 q 0 -9 52 -3 l 20 85 l 52 85 q 86 86 70 85 q 117 92 102 87 q 138 127 128 107 q 158 174 149 148 q 184 242 166 196 q 225 349 201 288 q 276 479 249 410 q 332 619 304 549 l 473 975 l 535 975 q 584 972 566 975 q 618 964 602 969 l 917 176 z "},"":{"ha":1072,"x_min":0,"x_max":1072,"o":"m 544 1147 q 550 1178 544 1164 q 567 1202 556 1192 q 591 1218 577 1212 q 621 1224 605 1224 q 650 1218 636 1224 q 674 1202 664 1212 q 691 1178 685 1192 q 697 1147 697 1164 q 691 1118 697 1132 q 674 1094 685 1104 q 650 1078 664 1084 q 621 1072 636 1072 q 591 1078 605 1072 q 567 1094 577 1084 q 550 1118 556 1104 q 544 1147 544 1132 m 311 1147 q 317 1178 311 1164 q 333 1202 323 1192 q 358 1218 344 1212 q 387 1224 372 1224 q 417 1218 403 1224 q 441 1202 431 1212 q 458 1178 452 1192 q 464 1147 464 1164 q 458 1118 464 1132 q 441 1094 452 1104 q 417 1078 431 1084 q 387 1072 403 1072 q 358 1078 372 1072 q 333 1094 344 1084 q 317 1118 323 1104 q 311 1147 311 1132 m 509 854 l 338 357 l 682 357 l 515 854 l 509 854 m 917 176 q 938 127 928 147 q 958 92 947 107 q 989 86 973 87 q 1023 85 1005 85 l 1053 85 l 1072 -9 q 986 -1 1027 -3 q 908 0 946 0 q 855 0 880 0 q 805 -2 829 -1 q 756 -4 781 -3 q 706 -9 732 -6 l 693 85 l 705 85 q 741 86 724 85 q 772 92 758 87 q 767 127 771 107 q 752 174 762 148 l 707 287 l 316 287 l 279 176 q 268 133 271 151 q 264 100 264 115 q 269 92 264 94 q 280 87 273 89 q 296 86 288 86 q 313 85 304 85 l 344 85 l 338 -9 q 264 -1 300 -3 q 194 0 229 0 q 97 -1 142 0 q 0 -9 52 -3 l 20 85 l 52 85 q 86 86 70 85 q 117 92 102 87 q 138 127 128 107 q 158 174 149 148 q 184 242 166 196 q 225 349 201 288 q 276 479 249 410 q 332 619 304 549 l 473 975 l 535 975 q 584 972 566 975 q 618 964 602 969 l 917 176 z "},"":{"ha":1072,"x_min":0,"x_max":1072,"o":"m 661 1131 q 649 1068 661 1097 q 615 1020 637 1040 q 565 989 594 1000 q 503 979 536 979 q 440 990 469 979 q 391 1021 412 1001 q 358 1069 370 1042 q 346 1131 346 1097 q 358 1193 346 1164 q 390 1241 370 1221 q 440 1273 411 1261 q 503 1284 469 1284 q 567 1273 538 1284 q 616 1241 595 1261 q 649 1193 637 1221 q 661 1131 661 1164 m 591 1131 q 568 1195 591 1172 q 503 1219 544 1219 q 440 1195 465 1219 q 416 1131 416 1172 q 439 1068 416 1090 q 503 1045 463 1045 q 567 1068 542 1045 q 591 1131 591 1090 m 509 854 l 338 357 l 682 357 l 515 854 l 509 854 m 917 176 q 938 127 928 147 q 958 92 947 107 q 989 86 973 87 q 1023 85 1005 85 l 1053 85 l 1072 -9 q 986 -1 1027 -3 q 908 0 946 0 q 855 0 880 0 q 805 -2 829 -1 q 756 -4 781 -3 q 706 -9 732 -6 l 693 85 l 705 85 q 741 86 724 85 q 772 92 758 87 q 767 127 771 107 q 752 174 762 148 l 707 287 l 316 287 l 279 176 q 268 133 271 151 q 264 100 264 115 q 269 92 264 94 q 280 87 273 89 q 296 86 288 86 q 313 85 304 85 l 344 85 l 338 -9 q 264 -1 300 -3 q 194 0 229 0 q 97 -1 142 0 q 0 -9 52 -3 l 20 85 l 52 85 q 86 86 70 85 q 117 92 102 87 q 138 127 128 107 q 158 174 149 148 q 184 242 166 196 q 225 349 201 288 q 276 479 249 410 q 332 619 304 549 l 473 975 l 535 975 q 584 972 566 975 q 618 964 602 969 l 917 176 z "},"":{"ha":1536,"x_min":0,"x_max":1478,"o":"m 902 0 q 799 -2 853 0 q 696 -9 745 -3 l 696 85 l 711 85 q 747 86 730 85 q 779 92 764 87 q 780 101 780 96 q 780 114 780 106 q 772 174 780 138 l 750 287 l 360 287 l 307 176 q 287 132 295 151 q 279 98 279 113 q 284 91 279 93 q 295 87 288 88 q 309 86 301 86 q 325 85 317 85 l 357 85 l 336 -9 q 263 -1 298 -3 q 194 0 229 0 q 144 0 168 0 q 97 -2 121 -1 q 50 -4 74 -3 q 0 -9 26 -6 l 35 85 l 66 85 q 99 86 83 85 q 131 92 115 87 q 157 127 144 107 q 185 174 170 148 q 221 242 196 196 q 280 349 247 288 q 352 479 313 409 q 427 619 390 549 l 616 975 l 1224 975 q 1261 890 1246 925 q 1285 831 1276 854 q 1299 795 1295 808 q 1305 776 1304 782 l 1206 772 l 1194 806 q 1181 837 1188 821 q 1164 869 1173 854 q 1087 885 1135 881 q 959 888 1039 888 q 933 888 949 888 q 897 888 918 888 q 846 887 875 888 q 778 886 817 886 l 854 542 l 1084 542 q 1109 544 1098 542 q 1130 552 1121 545 q 1144 575 1139 559 q 1150 617 1149 590 l 1185 617 q 1211 493 1199 555 q 1230 376 1222 431 l 1187 376 q 1162 418 1173 401 q 1138 444 1150 434 q 1113 457 1126 453 q 1080 460 1099 460 l 872 460 l 956 85 l 1265 85 q 1326 92 1300 85 q 1360 109 1352 99 q 1361 120 1361 114 q 1362 134 1362 126 q 1360 170 1362 149 q 1354 222 1358 191 q 1395 221 1371 222 q 1440 220 1419 220 l 1455 142 q 1468 74 1461 109 q 1478 14 1474 39 q 1437 4 1459 8 q 1385 -4 1415 -1 q 1314 -8 1355 -7 q 1217 -9 1274 -9 q 1136 -8 1175 -9 q 1059 -5 1097 -7 q 982 -1 1021 -3 q 902 0 943 0 m 735 357 l 644 835 l 393 357 l 735 357 z "},"":{"ha":932,"x_min":79,"x_max":886,"o":"m 406 -269 q 452 -281 429 -276 q 497 -286 476 -286 q 564 -268 540 -286 q 588 -218 588 -250 q 569 -164 588 -182 q 520 -142 551 -146 q 509 -143 515 -142 q 495 -147 503 -145 q 478 -139 487 -142 q 460 -132 469 -136 l 518 -14 l 587 -14 l 549 -86 q 612 -95 584 -88 q 660 -115 640 -102 q 690 -151 680 -129 q 701 -205 701 -173 q 688 -274 701 -245 q 651 -321 675 -302 q 596 -350 628 -340 q 526 -359 564 -359 q 454 -351 484 -359 q 406 -331 424 -342 q 402 -304 402 -320 q 406 -269 402 -288 m 886 56 q 738 -4 820 17 q 552 -25 656 -25 q 363 5 450 -25 q 214 96 277 35 q 115 249 151 157 q 79 465 79 340 q 112 688 79 590 q 207 852 144 785 q 360 954 269 919 q 569 989 452 989 q 667 982 621 989 q 753 965 714 975 q 822 942 792 954 q 870 919 852 930 l 854 730 l 770 730 q 736 809 753 775 q 695 864 718 842 q 641 896 672 886 q 566 907 610 907 q 419 875 480 907 q 319 788 358 843 q 261 657 280 732 q 243 494 243 581 q 266 303 243 384 q 330 170 288 223 q 431 92 372 117 q 564 66 490 66 q 710 87 633 66 q 876 150 787 109 l 886 56 z "},"":{"ha":920,"x_min":53,"x_max":861,"o":"m 358 1291 l 528 1291 l 656 1072 l 562 1072 l 358 1291 m 817 975 l 835 887 q 842 853 838 870 q 847 820 845 836 q 851 793 850 805 q 853 776 853 782 l 753 772 l 748 806 q 742 837 745 821 q 732 869 738 854 q 667 884 709 880 q 558 888 626 888 q 537 888 550 888 q 500 887 524 888 q 440 886 476 887 q 349 884 404 885 l 349 542 l 580 542 q 605 544 593 542 q 627 552 617 545 q 646 575 637 559 q 662 617 654 590 l 697 617 q 695 493 697 555 q 688 376 692 431 l 646 376 q 630 418 637 401 q 612 444 622 434 q 589 457 602 453 q 557 460 576 460 l 349 460 l 349 85 l 659 85 q 721 92 693 85 q 759 109 748 99 q 769 151 764 124 q 777 222 774 177 q 818 221 794 222 q 861 220 841 220 l 861 142 q 859 74 861 109 q 854 14 857 39 q 811 4 834 8 q 758 -4 789 -1 q 687 -8 728 -7 q 589 -9 646 -9 q 509 -8 547 -9 q 432 -5 470 -7 q 356 -1 394 -3 q 276 0 317 0 q 168 -1 220 0 q 60 -9 115 -3 l 60 85 l 121 85 q 159 86 141 85 q 191 92 176 87 q 201 174 201 120 l 201 796 q 198 841 201 822 q 190 874 195 860 q 161 880 177 880 q 128 881 146 881 l 53 881 l 53 954 q 209 970 119 966 q 401 975 299 975 l 817 975 z "},"":{"ha":920,"x_min":53,"x_max":861,"o":"m 655 1072 q 603 1072 622 1072 q 575 1072 585 1072 q 564 1072 566 1072 q 562 1072 562 1072 q 610 1155 590 1120 q 645 1215 630 1190 q 670 1258 660 1240 q 690 1291 681 1276 l 861 1291 q 852 1281 861 1291 q 822 1247 844 1272 q 759 1180 799 1223 q 655 1072 719 1138 m 817 975 l 835 887 q 842 853 838 870 q 847 820 845 836 q 851 793 850 805 q 853 776 853 782 l 753 772 l 748 806 q 742 837 745 821 q 732 869 738 854 q 667 884 709 880 q 558 888 626 888 q 537 888 550 888 q 500 887 524 888 q 440 886 476 887 q 349 884 404 885 l 349 542 l 580 542 q 605 544 593 542 q 627 552 617 545 q 646 575 637 559 q 662 617 654 590 l 697 617 q 695 493 697 555 q 688 376 692 431 l 646 376 q 630 418 637 401 q 612 444 622 434 q 589 457 602 453 q 557 460 576 460 l 349 460 l 349 85 l 659 85 q 721 92 693 85 q 759 109 748 99 q 769 151 764 124 q 777 222 774 177 q 818 221 794 222 q 861 220 841 220 l 861 142 q 859 74 861 109 q 854 14 857 39 q 811 4 834 8 q 758 -4 789 -1 q 687 -8 728 -7 q 589 -9 646 -9 q 509 -8 547 -9 q 432 -5 470 -7 q 356 -1 394 -3 q 276 0 317 0 q 168 -1 220 0 q 60 -9 115 -3 l 60 85 l 121 85 q 159 86 141 85 q 191 92 176 87 q 201 174 201 120 l 201 796 q 198 841 201 822 q 190 874 195 860 q 161 880 177 880 q 128 881 146 881 l 53 881 l 53 954 q 209 970 119 966 q 401 975 299 975 l 817 975 z "},"":{"ha":920,"x_min":53,"x_max":861,"o":"m 830 1084 q 794 1072 822 1072 l 739 1072 l 610 1202 l 479 1072 l 427 1072 q 389 1084 397 1072 q 395 1096 392 1090 q 404 1109 398 1101 l 542 1291 l 677 1291 l 816 1109 q 824 1096 821 1101 q 830 1084 827 1090 m 817 975 l 835 887 q 842 853 838 870 q 847 820 845 836 q 851 793 850 805 q 853 776 853 782 l 753 772 l 748 806 q 742 837 745 821 q 732 869 738 854 q 667 884 709 880 q 558 888 626 888 q 537 888 550 888 q 500 887 524 888 q 440 886 476 887 q 349 884 404 885 l 349 542 l 580 542 q 605 544 593 542 q 627 552 617 545 q 646 575 637 559 q 662 617 654 590 l 697 617 q 695 493 697 555 q 688 376 692 431 l 646 376 q 630 418 637 401 q 612 444 622 434 q 589 457 602 453 q 557 460 576 460 l 349 460 l 349 85 l 659 85 q 721 92 693 85 q 759 109 748 99 q 769 151 764 124 q 777 222 774 177 q 818 221 794 222 q 861 220 841 220 l 861 142 q 859 74 861 109 q 854 14 857 39 q 811 4 834 8 q 758 -4 789 -1 q 687 -8 728 -7 q 589 -9 646 -9 q 509 -8 547 -9 q 432 -5 470 -7 q 356 -1 394 -3 q 276 0 317 0 q 168 -1 220 0 q 60 -9 115 -3 l 60 85 l 121 85 q 159 86 141 85 q 191 92 176 87 q 201 174 201 120 l 201 796 q 198 841 201 822 q 190 874 195 860 q 161 880 177 880 q 128 881 146 881 l 53 881 l 53 954 q 209 970 119 966 q 401 975 299 975 l 817 975 z "},"":{"ha":920,"x_min":53,"x_max":861,"o":"m 649 1147 q 655 1178 649 1164 q 672 1202 661 1192 q 696 1218 682 1212 q 726 1224 710 1224 q 755 1218 741 1224 q 780 1202 769 1212 q 796 1178 790 1192 q 802 1147 802 1164 q 796 1118 802 1132 q 780 1094 790 1104 q 755 1078 769 1084 q 726 1072 741 1072 q 696 1078 710 1072 q 672 1094 682 1084 q 655 1118 661 1104 q 649 1147 649 1132 m 416 1147 q 422 1178 416 1164 q 438 1202 428 1192 q 463 1218 449 1212 q 492 1224 477 1224 q 522 1218 508 1224 q 546 1202 536 1212 q 563 1178 557 1192 q 569 1147 569 1164 q 563 1118 569 1132 q 546 1094 557 1104 q 522 1078 536 1084 q 492 1072 508 1072 q 463 1078 477 1072 q 438 1094 449 1084 q 422 1118 428 1104 q 416 1147 416 1132 m 817 975 l 835 887 q 842 853 838 870 q 847 820 845 836 q 851 793 850 805 q 853 776 853 782 l 753 772 l 748 806 q 742 837 745 821 q 732 869 738 854 q 667 884 709 880 q 558 888 626 888 q 537 888 550 888 q 500 887 524 888 q 440 886 476 887 q 349 884 404 885 l 349 542 l 580 542 q 605 544 593 542 q 627 552 617 545 q 646 575 637 559 q 662 617 654 590 l 697 617 q 695 493 697 555 q 688 376 692 431 l 646 376 q 630 418 637 401 q 612 444 622 434 q 589 457 602 453 q 557 460 576 460 l 349 460 l 349 85 l 659 85 q 721 92 693 85 q 759 109 748 99 q 769 151 764 124 q 777 222 774 177 q 818 221 794 222 q 861 220 841 220 l 861 142 q 859 74 861 109 q 854 14 857 39 q 811 4 834 8 q 758 -4 789 -1 q 687 -8 728 -7 q 589 -9 646 -9 q 509 -8 547 -9 q 432 -5 470 -7 q 356 -1 394 -3 q 276 0 317 0 q 168 -1 220 0 q 60 -9 115 -3 l 60 85 l 121 85 q 159 86 141 85 q 191 92 176 87 q 201 174 201 120 l 201 796 q 198 841 201 822 q 190 874 195 860 q 161 880 177 880 q 128 881 146 881 l 53 881 l 53 954 q 209 970 119 966 q 401 975 299 975 l 817 975 z "},"":{"ha":537,"x_min":16,"x_max":484,"o":"m 16 1291 l 185 1291 l 313 1072 l 220 1072 l 16 1291 m 54 85 l 114 85 q 152 86 134 85 q 184 92 169 87 q 195 174 195 121 l 195 805 q 192 849 195 831 q 184 882 189 867 q 152 889 169 888 q 114 890 134 890 l 53 890 l 53 964 q 151 972 100 970 q 267 975 203 975 q 388 973 332 975 q 484 964 444 972 l 484 890 l 422 890 q 385 889 402 890 q 352 882 368 888 q 345 849 348 867 q 342 805 342 831 l 342 176 q 345 127 342 147 q 352 92 348 107 q 385 86 368 87 q 422 85 402 85 l 483 85 l 483 -9 q 384 -1 430 -3 q 292 0 337 0 q 173 -1 231 0 q 54 -9 115 -3 l 54 85 z "},"":{"ha":537,"x_min":53,"x_max":519,"o":"m 313 1072 q 261 1072 280 1072 q 234 1072 243 1072 q 222 1072 224 1072 q 220 1072 220 1072 q 268 1155 248 1120 q 303 1215 288 1190 q 329 1258 318 1240 q 349 1291 339 1276 l 519 1291 q 511 1281 519 1291 q 480 1247 503 1272 q 417 1180 457 1223 q 313 1072 377 1138 m 54 85 l 114 85 q 152 86 134 85 q 184 92 169 87 q 195 174 195 121 l 195 805 q 192 849 195 831 q 184 882 189 867 q 152 889 169 888 q 114 890 134 890 l 53 890 l 53 964 q 151 972 100 970 q 267 975 203 975 q 388 973 332 975 q 484 964 444 972 l 484 890 l 422 890 q 385 889 402 890 q 352 882 368 888 q 345 849 348 867 q 342 805 342 831 l 342 176 q 345 127 342 147 q 352 92 348 107 q 385 86 368 87 q 422 85 402 85 l 483 85 l 483 -9 q 384 -1 430 -3 q 292 0 337 0 q 173 -1 231 0 q 54 -9 115 -3 l 54 85 z "},"":{"ha":537,"x_min":45,"x_max":488,"o":"m 487 1084 q 451 1072 479 1072 l 396 1072 l 267 1202 l 136 1072 l 83 1072 q 45 1084 54 1072 q 52 1096 49 1090 q 60 1109 55 1101 l 199 1291 l 334 1291 l 473 1109 q 481 1096 477 1101 q 487 1084 484 1090 m 54 85 l 114 85 q 152 86 134 85 q 184 92 169 87 q 195 174 195 121 l 195 805 q 192 849 195 831 q 184 882 189 867 q 152 889 169 888 q 114 890 134 890 l 53 890 l 53 964 q 151 972 100 970 q 267 975 203 975 q 388 973 332 975 q 484 964 444 972 l 484 890 l 422 890 q 385 889 402 890 q 352 882 368 888 q 345 849 348 867 q 342 805 342 831 l 342 176 q 345 127 342 147 q 352 92 348 107 q 385 86 368 87 q 422 85 402 85 l 483 85 l 483 -9 q 384 -1 430 -3 q 292 0 337 0 q 173 -1 231 0 q 54 -9 115 -3 l 54 85 z "},"":{"ha":537,"x_min":53,"x_max":484,"o":"m 307 1147 q 313 1178 307 1164 q 329 1202 319 1192 q 354 1218 340 1212 q 383 1224 368 1224 q 413 1218 399 1224 q 437 1202 427 1212 q 454 1178 448 1192 q 460 1147 460 1164 q 454 1118 460 1132 q 437 1094 448 1104 q 413 1078 427 1084 q 383 1072 399 1072 q 354 1078 368 1072 q 329 1094 340 1084 q 313 1118 319 1104 q 307 1147 307 1132 m 73 1147 q 79 1178 73 1164 q 96 1202 85 1192 q 120 1218 106 1212 q 150 1224 134 1224 q 179 1218 165 1224 q 204 1202 193 1212 q 220 1178 214 1192 q 227 1147 227 1164 q 220 1118 227 1132 q 204 1094 214 1104 q 179 1078 193 1084 q 150 1072 165 1072 q 120 1078 134 1072 q 96 1094 106 1084 q 79 1118 85 1104 q 73 1147 73 1132 m 54 85 l 114 85 q 152 86 134 85 q 184 92 169 87 q 195 174 195 121 l 195 805 q 192 849 195 831 q 184 882 189 867 q 152 889 169 888 q 114 890 134 890 l 53 890 l 53 964 q 151 972 100 970 q 267 975 203 975 q 388 973 332 975 q 484 964 444 972 l 484 890 l 422 890 q 385 889 402 890 q 352 882 368 888 q 345 849 348 867 q 342 805 342 831 l 342 176 q 345 127 342 147 q 352 92 348 107 q 385 86 368 87 q 422 85 402 85 l 483 85 l 483 -9 q 384 -1 430 -3 q 292 0 337 0 q 173 -1 231 0 q 54 -9 115 -3 l 54 85 z "},"":{"ha":1119,"x_min":57,"x_max":1022,"o":"m 57 947 q 250 968 144 959 q 489 978 357 978 q 630 970 562 978 q 757 943 698 963 q 865 887 817 922 q 949 797 914 852 q 1003 663 984 741 q 1022 480 1022 585 q 1003 318 1022 389 q 950 194 985 248 q 868 104 916 141 q 762 43 820 66 q 636 10 703 20 q 496 0 569 0 l 196 0 q 165 1 178 0 q 146 8 153 2 q 135 26 138 14 q 132 60 132 38 q 164 79 150 70 q 187 101 178 88 q 201 133 197 114 q 206 183 206 153 l 206 458 l 58 458 l 58 495 q 62 519 58 511 q 73 532 66 528 q 89 537 79 536 q 111 538 98 538 l 206 538 l 206 803 q 203 847 206 829 q 195 880 201 866 q 165 884 182 884 q 130 885 148 885 q 88 884 108 885 q 57 884 68 884 l 57 947 m 355 458 l 355 87 q 422 84 389 85 q 487 83 454 83 q 643 102 574 83 q 760 169 712 122 q 834 293 808 216 q 860 485 860 370 q 839 678 860 600 q 774 804 818 756 q 663 872 730 851 q 503 892 595 892 q 439 891 477 892 q 354 890 402 890 l 354 538 l 578 538 l 578 500 q 553 458 578 465 l 355 458 z "},"":{"ha":1130,"x_min":53,"x_max":1090,"o":"m 469 1238 q 527 1227 500 1238 q 578 1202 553 1216 q 628 1177 604 1188 q 679 1166 652 1166 q 708 1173 694 1166 q 732 1191 722 1181 q 751 1212 743 1201 q 762 1227 758 1222 q 831 1208 798 1227 q 758 1107 796 1143 q 672 1072 719 1072 q 609 1083 639 1072 q 553 1108 580 1095 q 502 1133 526 1122 q 454 1145 477 1145 q 426 1137 439 1145 q 401 1119 412 1129 q 383 1099 391 1109 q 371 1084 375 1088 q 337 1088 353 1084 q 304 1102 321 1092 q 345 1171 323 1144 q 388 1213 366 1198 q 430 1233 409 1227 q 469 1238 450 1238 m 209 801 q 198 882 209 854 q 165 889 183 888 q 128 890 148 890 l 53 890 l 53 964 q 100 968 78 966 q 144 971 122 970 q 188 974 165 973 q 239 975 211 975 q 305 974 275 975 q 360 966 334 972 q 482 777 419 875 q 608 578 545 679 q 733 377 671 477 q 852 180 795 276 q 851 268 852 216 q 849 380 850 320 q 847 502 848 439 q 845 622 846 565 q 843 726 844 680 q 842 801 842 773 q 831 882 842 854 q 799 888 817 887 q 762 890 781 890 l 693 890 l 693 964 q 788 972 739 970 q 897 975 838 975 q 1003 973 952 975 q 1090 964 1054 972 l 1090 890 l 1036 890 q 999 888 1017 890 q 966 882 981 887 q 959 847 961 867 q 956 801 956 827 q 954 605 956 709 q 949 394 952 500 q 943 183 946 287 q 937 -9 939 80 l 866 -9 q 831 -6 846 -9 q 804 5 817 -3 l 312 788 q 315 685 313 750 q 317 537 316 619 q 320 362 319 455 q 321 176 321 269 q 324 127 321 147 q 331 92 326 107 q 363 86 346 87 q 401 85 381 85 l 463 85 l 463 -9 q 371 -1 414 -3 q 286 0 328 0 q 176 -1 228 0 q 68 -9 125 -3 l 68 85 l 129 85 q 166 86 149 85 q 199 92 184 87 q 210 174 210 119 l 209 801 z "},"":{"ha":1063,"x_min":78,"x_max":983,"o":"m 281 1291 l 450 1291 l 578 1072 l 485 1072 l 281 1291 m 241 482 q 314 168 241 277 q 532 59 386 59 q 655 85 601 59 q 745 163 709 111 q 801 296 782 216 q 821 484 821 376 q 746 801 821 695 q 532 907 671 907 q 409 881 463 907 q 318 802 355 854 q 261 669 281 749 q 241 482 241 589 m 983 484 q 952 270 983 365 q 862 110 920 176 q 719 10 803 45 q 532 -25 635 -25 q 343 10 427 -25 q 200 110 259 45 q 110 270 141 176 q 78 484 78 365 q 110 699 78 605 q 200 857 141 793 q 343 955 259 922 q 532 989 427 989 q 719 955 635 989 q 861 857 802 922 q 952 699 920 793 q 983 484 983 605 z "},"":{"ha":1063,"x_min":78,"x_max":983,"o":"m 578 1072 q 526 1072 545 1072 q 498 1072 507 1072 q 487 1072 489 1072 q 485 1072 485 1072 q 533 1155 513 1120 q 568 1215 553 1190 q 593 1258 583 1240 q 613 1291 604 1276 l 783 1291 q 775 1281 783 1291 q 744 1247 767 1272 q 682 1180 722 1223 q 578 1072 642 1138 m 241 482 q 314 168 241 277 q 532 59 386 59 q 655 85 601 59 q 745 163 709 111 q 801 296 782 216 q 821 484 821 376 q 746 801 821 695 q 532 907 671 907 q 409 881 463 907 q 318 802 355 854 q 261 669 281 749 q 241 482 241 589 m 983 484 q 952 270 983 365 q 862 110 920 176 q 719 10 803 45 q 532 -25 635 -25 q 343 10 427 -25 q 200 110 259 45 q 110 270 141 176 q 78 484 78 365 q 110 699 78 605 q 200 857 141 793 q 343 955 259 922 q 532 989 427 989 q 719 955 635 989 q 861 857 802 922 q 952 699 920 793 q 983 484 983 605 z "},"":{"ha":1063,"x_min":78,"x_max":983,"o":"m 753 1084 q 717 1072 745 1072 l 662 1072 l 533 1202 l 401 1072 l 349 1072 q 311 1084 319 1072 q 318 1096 315 1090 q 326 1109 321 1101 l 465 1291 l 600 1291 l 739 1109 q 747 1096 743 1101 q 753 1084 750 1090 m 241 482 q 314 168 241 277 q 532 59 386 59 q 655 85 601 59 q 745 163 709 111 q 801 296 782 216 q 821 484 821 376 q 746 801 821 695 q 532 907 671 907 q 409 881 463 907 q 318 802 355 854 q 261 669 281 749 q 241 482 241 589 m 983 484 q 952 270 983 365 q 862 110 920 176 q 719 10 803 45 q 532 -25 635 -25 q 343 10 427 -25 q 200 110 259 45 q 110 270 141 176 q 78 484 78 365 q 110 699 78 605 q 200 857 141 793 q 343 955 259 922 q 532 989 427 989 q 719 955 635 989 q 861 857 802 922 q 952 699 920 793 q 983 484 983 605 z "},"":{"ha":1063,"x_min":78,"x_max":983,"o":"m 433 1238 q 491 1227 464 1238 q 543 1202 517 1216 q 592 1177 568 1188 q 643 1166 616 1166 q 672 1173 659 1166 q 696 1191 686 1181 q 715 1212 707 1201 q 726 1227 722 1222 q 795 1208 762 1227 q 722 1107 760 1143 q 636 1072 683 1072 q 573 1083 603 1072 q 517 1108 544 1095 q 466 1133 490 1122 q 418 1145 441 1145 q 390 1137 403 1145 q 366 1119 376 1129 q 347 1099 355 1109 q 335 1084 339 1088 q 301 1088 317 1084 q 269 1102 285 1092 q 309 1171 288 1144 q 352 1213 330 1198 q 394 1233 373 1227 q 433 1238 414 1238 m 241 482 q 314 168 241 277 q 532 59 386 59 q 655 85 601 59 q 745 163 709 111 q 801 296 782 216 q 821 484 821 376 q 746 801 821 695 q 532 907 671 907 q 409 881 463 907 q 318 802 355 854 q 261 669 281 749 q 241 482 241 589 m 983 484 q 952 270 983 365 q 862 110 920 176 q 719 10 803 45 q 532 -25 635 -25 q 343 10 427 -25 q 200 110 259 45 q 110 270 141 176 q 78 484 78 365 q 110 699 78 605 q 200 857 141 793 q 343 955 259 922 q 532 989 427 989 q 719 955 635 989 q 861 857 802 922 q 952 699 920 793 q 983 484 983 605 z "},"":{"ha":1063,"x_min":78,"x_max":983,"o":"m 572 1147 q 578 1178 572 1164 q 594 1202 584 1192 q 619 1218 605 1212 q 648 1224 633 1224 q 678 1218 664 1224 q 702 1202 692 1212 q 719 1178 713 1192 q 725 1147 725 1164 q 719 1118 725 1132 q 702 1094 713 1104 q 678 1078 692 1084 q 648 1072 664 1072 q 619 1078 633 1072 q 594 1094 605 1084 q 578 1118 584 1104 q 572 1147 572 1132 m 338 1147 q 345 1178 338 1164 q 361 1202 351 1192 q 386 1218 372 1212 q 415 1224 399 1224 q 445 1218 431 1224 q 469 1202 458 1212 q 486 1178 479 1192 q 492 1147 492 1164 q 486 1118 492 1132 q 469 1094 479 1104 q 445 1078 458 1084 q 415 1072 431 1072 q 386 1078 399 1072 q 361 1094 372 1084 q 345 1118 351 1104 q 338 1147 338 1132 m 241 482 q 314 168 241 277 q 532 59 386 59 q 655 85 601 59 q 745 163 709 111 q 801 296 782 216 q 821 484 821 376 q 746 801 821 695 q 532 907 671 907 q 409 881 463 907 q 318 802 355 854 q 261 669 281 749 q 241 482 241 589 m 983 484 q 952 270 983 365 q 862 110 920 176 q 719 10 803 45 q 532 -25 635 -25 q 343 10 427 -25 q 200 110 259 45 q 110 270 141 176 q 78 484 78 365 q 110 699 78 605 q 200 857 141 793 q 343 955 259 922 q 532 989 427 989 q 719 955 635 989 q 861 857 802 922 q 952 699 920 793 q 983 484 983 605 z "},"":{"ha":833,"x_min":107,"x_max":726,"o":"m 416 513 l 663 760 q 695 727 679 743 q 718 696 711 711 q 707 677 713 686 q 690 659 700 669 l 481 449 l 726 203 l 696 174 q 679 157 686 164 q 663 149 671 151 q 652 151 656 149 q 644 157 648 153 q 635 165 640 161 q 627 176 631 170 l 416 385 l 171 140 l 140 170 q 124 186 131 179 q 115 201 117 193 q 125 219 119 210 q 142 239 132 229 l 353 449 l 107 695 q 145 730 131 719 q 179 741 159 741 q 185 741 182 741 q 191 740 187 741 l 416 513 z "},"":{"ha":1031,"x_min":78,"x_max":983,"o":"m 983 484 q 952 270 983 365 q 862 110 920 176 q 719 10 803 45 q 532 -25 635 -25 q 432 -17 479 -25 q 343 9 385 -9 l 319 20 l 267 -68 q 214 -57 234 -63 q 189 -31 195 -50 q 201 -13 195 -22 q 214 7 207 -3 l 248 64 q 122 237 166 133 q 78 484 78 340 q 110 699 78 605 q 200 857 141 793 q 343 955 259 922 q 532 989 427 989 q 655 975 600 989 q 762 935 711 961 l 820 1033 q 872 1021 852 1027 q 897 998 892 1015 q 885 979 890 988 q 874 960 880 970 l 831 886 q 896 815 867 857 q 944 722 924 773 q 973 610 963 670 q 983 484 983 550 m 241 482 q 311 171 241 279 l 708 844 q 532 907 639 907 q 409 881 463 907 q 318 802 355 854 q 261 669 281 749 q 241 482 241 589 m 532 58 q 655 84 601 58 q 745 163 709 110 q 801 296 782 216 q 821 484 821 376 q 764 772 821 667 l 370 106 q 532 58 434 58 z "},"":{"ha":1088,"x_min":21,"x_max":1068,"o":"m 300 1291 l 470 1291 l 598 1072 l 505 1072 l 300 1291 m 926 350 q 897 187 926 257 q 817 70 868 117 q 694 -1 766 22 q 538 -25 623 -25 q 365 5 437 -25 q 249 90 294 35 q 183 223 204 145 q 163 397 163 301 l 163 801 q 152 882 163 854 q 120 889 137 888 q 82 890 102 890 l 21 890 l 21 965 q 119 972 68 970 q 235 975 171 975 q 356 973 300 975 q 454 964 412 972 l 454 890 l 391 890 q 354 889 371 890 q 321 882 336 888 q 311 801 311 852 l 311 340 q 329 216 311 269 q 379 128 347 163 q 457 75 412 93 q 559 58 503 58 q 749 139 688 58 q 810 391 810 220 l 810 801 q 800 882 810 854 q 767 889 785 888 q 730 890 749 890 l 669 890 l 669 965 q 761 972 713 970 q 868 975 809 975 q 979 973 928 975 q 1068 964 1029 972 l 1068 890 l 1006 890 q 968 889 985 890 q 936 882 950 888 q 928 847 930 867 q 926 801 926 827 l 926 350 z "},"":{"ha":1088,"x_min":21,"x_max":1068,"o":"m 598 1072 q 546 1072 565 1072 q 518 1072 528 1072 q 507 1072 509 1072 q 505 1072 505 1072 q 553 1155 533 1120 q 588 1215 573 1190 q 613 1258 603 1240 q 633 1291 624 1276 l 804 1291 q 795 1281 804 1291 q 765 1247 787 1272 q 702 1180 742 1223 q 598 1072 662 1138 m 926 350 q 897 187 926 257 q 817 70 868 117 q 694 -1 766 22 q 538 -25 623 -25 q 365 5 437 -25 q 249 90 294 35 q 183 223 204 145 q 163 397 163 301 l 163 801 q 152 882 163 854 q 120 889 137 888 q 82 890 102 890 l 21 890 l 21 965 q 119 972 68 970 q 235 975 171 975 q 356 973 300 975 q 454 964 412 972 l 454 890 l 391 890 q 354 889 371 890 q 321 882 336 888 q 311 801 311 852 l 311 340 q 329 216 311 269 q 379 128 347 163 q 457 75 412 93 q 559 58 503 58 q 749 139 688 58 q 810 391 810 220 l 810 801 q 800 882 810 854 q 767 889 785 888 q 730 890 749 890 l 669 890 l 669 965 q 761 972 713 970 q 868 975 809 975 q 979 973 928 975 q 1068 964 1029 972 l 1068 890 l 1006 890 q 968 889 985 890 q 936 882 950 888 q 928 847 930 867 q 926 801 926 827 l 926 350 z "},"":{"ha":1088,"x_min":21,"x_max":1068,"o":"m 772 1084 q 736 1072 764 1072 l 681 1072 l 552 1202 l 420 1072 l 368 1072 q 330 1084 338 1072 q 337 1096 334 1090 q 345 1109 340 1101 l 484 1291 l 618 1291 l 758 1109 q 766 1096 762 1101 q 772 1084 769 1090 m 926 350 q 897 187 926 257 q 817 70 868 117 q 694 -1 766 22 q 538 -25 623 -25 q 365 5 437 -25 q 249 90 294 35 q 183 223 204 145 q 163 397 163 301 l 163 801 q 152 882 163 854 q 120 889 137 888 q 82 890 102 890 l 21 890 l 21 965 q 119 972 68 970 q 235 975 171 975 q 356 973 300 975 q 454 964 412 972 l 454 890 l 391 890 q 354 889 371 890 q 321 882 336 888 q 311 801 311 852 l 311 340 q 329 216 311 269 q 379 128 347 163 q 457 75 412 93 q 559 58 503 58 q 749 139 688 58 q 810 391 810 220 l 810 801 q 800 882 810 854 q 767 889 785 888 q 730 890 749 890 l 669 890 l 669 965 q 761 972 713 970 q 868 975 809 975 q 979 973 928 975 q 1068 964 1029 972 l 1068 890 l 1006 890 q 968 889 985 890 q 936 882 950 888 q 928 847 930 867 q 926 801 926 827 l 926 350 z "},"":{"ha":1088,"x_min":21,"x_max":1068,"o":"m 591 1147 q 597 1178 591 1164 q 614 1202 604 1192 q 638 1218 625 1212 q 668 1224 652 1224 q 697 1218 684 1224 q 722 1202 711 1212 q 739 1178 732 1192 q 745 1147 745 1164 q 739 1118 745 1132 q 722 1094 732 1104 q 697 1078 711 1084 q 668 1072 684 1072 q 638 1078 652 1072 q 614 1094 625 1084 q 597 1118 604 1104 q 591 1147 591 1132 m 358 1147 q 364 1178 358 1164 q 381 1202 370 1192 q 405 1218 391 1212 q 435 1224 419 1224 q 464 1218 450 1224 q 489 1202 478 1212 q 505 1178 499 1192 q 511 1147 511 1164 q 505 1118 511 1132 q 489 1094 499 1104 q 464 1078 478 1084 q 435 1072 450 1072 q 405 1078 419 1072 q 381 1094 391 1084 q 364 1118 370 1104 q 358 1147 358 1132 m 926 350 q 897 187 926 257 q 817 70 868 117 q 694 -1 766 22 q 538 -25 623 -25 q 365 5 437 -25 q 249 90 294 35 q 183 223 204 145 q 163 397 163 301 l 163 801 q 152 882 163 854 q 120 889 137 888 q 82 890 102 890 l 21 890 l 21 965 q 119 972 68 970 q 235 975 171 975 q 356 973 300 975 q 454 964 412 972 l 454 890 l 391 890 q 354 889 371 890 q 321 882 336 888 q 311 801 311 852 l 311 340 q 329 216 311 269 q 379 128 347 163 q 457 75 412 93 q 559 58 503 58 q 749 139 688 58 q 810 391 810 220 l 810 801 q 800 882 810 854 q 767 889 785 888 q 730 890 749 890 l 669 890 l 669 965 q 761 972 713 970 q 868 975 809 975 q 979 973 928 975 q 1068 964 1029 972 l 1068 890 l 1006 890 q 968 889 985 890 q 936 882 950 888 q 928 847 930 867 q 926 801 926 827 l 926 350 z "},"":{"ha":1077,"x_min":-7,"x_max":1081,"o":"m 582 1072 q 530 1072 549 1072 q 502 1072 511 1072 q 491 1072 493 1072 q 489 1072 489 1072 q 537 1155 517 1120 q 572 1215 557 1190 q 597 1258 587 1240 q 617 1291 608 1276 l 787 1291 q 779 1281 787 1291 q 748 1247 771 1272 q 686 1180 726 1223 q 582 1072 646 1138 m 761 822 q 774 855 768 840 q 782 882 779 869 q 752 889 769 888 q 715 890 736 890 l 668 890 l 684 964 q 777 972 730 970 q 882 975 825 975 q 995 973 944 975 q 1081 964 1046 972 l 1054 890 l 996 890 q 959 889 977 890 q 923 882 941 888 q 907 861 916 871 q 892 837 899 850 q 878 811 891 833 q 844 753 865 788 q 798 675 823 719 q 745 587 772 632 q 604 351 683 482 l 604 176 q 607 127 604 147 q 614 92 610 107 q 647 86 629 87 q 684 85 664 85 l 745 85 l 745 -9 q 646 -1 692 -3 q 554 0 600 0 q 434 -1 492 0 q 316 -9 377 -3 l 316 85 l 376 85 q 413 86 396 85 q 446 92 431 87 q 454 127 452 107 q 459 174 457 148 l 459 332 l 182 801 q 157 847 166 827 q 136 882 147 867 q 101 889 119 888 q 63 890 83 890 l 13 890 l -7 964 q 83 972 36 970 q 189 975 131 975 q 314 973 256 975 q 419 964 372 972 l 431 890 l 382 890 q 345 889 362 890 q 316 882 328 888 q 318 868 317 874 q 323 854 320 861 q 331 839 326 847 q 343 818 336 830 l 561 447 q 652 612 610 536 q 687 677 669 645 q 720 739 705 710 q 745 789 734 767 q 761 822 756 811 z "},"":{"ha":877,"x_min":73,"x_max":865,"o":"m 215 812 q 212 858 215 838 q 204 893 210 878 q 172 900 189 899 q 134 901 155 901 l 73 901 l 73 970 q 172 977 120 975 q 287 979 223 979 q 408 977 353 979 q 505 968 464 976 l 505 901 l 442 901 q 405 900 422 901 q 372 893 388 899 q 366 858 368 878 q 363 812 363 838 q 487 814 422 814 q 644 801 574 814 q 763 754 713 787 q 839 667 812 722 q 865 529 865 612 q 843 413 865 464 q 775 326 820 361 q 663 271 730 290 q 506 252 595 252 l 454 252 q 412 252 434 252 q 363 255 389 253 l 363 170 q 366 121 363 141 q 373 85 368 101 q 406 80 388 81 q 443 79 423 79 l 504 79 l 504 -13 q 392 -3 444 -5 q 289 0 340 0 q 182 -3 234 0 q 75 -13 130 -7 l 75 79 l 135 79 q 172 80 155 79 q 205 85 190 81 q 216 168 216 113 l 215 812 m 479 722 q 417 722 446 722 q 363 719 389 721 l 363 337 q 409 336 384 336 q 464 336 433 336 q 584 350 536 336 q 660 389 631 363 q 701 449 689 414 q 713 528 713 485 q 700 619 713 582 q 656 679 686 656 q 583 712 627 702 q 479 722 539 722 z "},"":{"ha":899,"x_min":32,"x_max":872,"o":"m 292 188 q 294 113 292 145 q 296 47 296 80 q 289 17 296 28 q 269 -1 281 6 q 241 -10 256 -7 q 212 -12 227 -12 q 32 5 99 -12 l 39 61 l 79 61 q 112 66 97 61 q 139 79 127 71 q 148 154 148 109 l 148 650 q 136 650 148 650 q 111 650 125 650 l 72 650 q 79 684 72 676 q 109 691 87 691 q 129 690 119 691 q 148 690 138 690 q 173 853 148 783 q 244 968 199 922 q 350 1038 289 1015 q 482 1061 411 1061 q 609 1043 553 1061 q 702 990 664 1025 q 761 903 741 955 q 781 783 781 850 q 769 711 781 739 q 731 661 758 684 q 697 666 715 664 q 665 668 679 668 q 605 660 631 668 q 562 639 578 652 q 536 607 545 625 q 528 569 528 589 q 538 523 528 543 q 567 488 549 504 q 612 458 586 472 q 669 431 638 445 q 750 390 713 410 q 814 346 787 370 q 857 290 841 321 q 872 212 872 258 q 848 107 872 151 q 786 37 825 64 q 699 -2 747 10 q 601 -15 650 -15 q 534 -9 572 -15 q 464 7 497 -3 q 407 27 430 16 q 384 49 384 39 q 386 62 384 54 q 391 85 387 71 q 401 123 395 100 q 418 182 408 146 l 478 164 q 503 116 490 136 q 533 83 516 96 q 570 64 549 70 q 616 58 590 58 q 668 67 646 58 q 706 94 691 77 q 730 133 722 111 q 738 181 738 155 q 721 237 738 214 q 676 280 705 261 q 610 317 648 300 q 532 353 573 334 q 478 384 502 367 q 436 425 454 401 q 410 476 419 448 q 400 543 400 505 q 452 665 400 620 q 612 726 503 711 q 638 772 630 751 q 646 819 646 794 q 633 897 646 864 q 599 952 621 930 q 548 985 577 975 q 484 996 518 996 q 407 979 442 996 q 346 927 372 962 q 307 837 321 892 q 292 706 292 782 l 292 188 z "},"":{"ha":846,"x_min":69,"x_max":786,"o":"m 133 1022 l 302 1022 l 431 803 l 337 803 l 133 1022 m 511 139 q 519 222 515 176 q 522 332 522 269 l 415 332 q 267 296 318 332 q 215 190 215 260 q 249 99 215 129 q 340 68 283 68 q 427 89 382 68 q 511 139 471 109 m 786 13 q 708 -4 751 1 q 612 -9 665 -9 q 565 -7 584 -9 q 533 1 545 -6 q 516 23 522 8 q 511 64 511 38 l 509 78 q 466 43 489 60 q 416 13 443 26 q 357 -8 389 -1 q 290 -16 326 -16 q 201 -4 241 -16 q 131 34 160 9 q 85 96 102 59 q 69 184 69 134 q 157 353 69 296 q 422 409 244 409 l 522 409 l 522 455 q 515 542 522 506 q 493 602 509 578 q 453 636 478 625 q 392 648 428 648 q 319 636 351 648 q 262 606 287 625 q 217 563 237 587 q 182 512 198 538 l 88 572 q 115 626 93 600 q 176 673 138 652 q 266 707 214 694 q 384 720 319 720 q 597 653 529 720 q 666 463 666 587 l 666 182 q 669 116 666 144 q 677 68 673 89 l 786 68 l 786 13 z "},"":{"ha":846,"x_min":69,"x_max":786,"o":"m 430 803 q 378 803 397 803 q 350 803 359 803 q 339 803 341 803 q 337 804 337 804 q 385 886 365 851 q 420 946 405 921 q 445 990 435 972 q 465 1022 456 1008 l 635 1022 q 627 1013 635 1022 q 596 979 619 1003 q 534 912 574 954 q 430 803 494 869 m 511 139 q 519 222 515 176 q 522 332 522 269 l 415 332 q 267 296 318 332 q 215 190 215 260 q 249 99 215 129 q 340 68 283 68 q 427 89 382 68 q 511 139 471 109 m 786 13 q 708 -4 751 1 q 612 -9 665 -9 q 565 -7 584 -9 q 533 1 545 -6 q 516 23 522 8 q 511 64 511 38 l 509 78 q 466 43 489 60 q 416 13 443 26 q 357 -8 389 -1 q 290 -16 326 -16 q 201 -4 241 -16 q 131 34 160 9 q 85 96 102 59 q 69 184 69 134 q 157 353 69 296 q 422 409 244 409 l 522 409 l 522 455 q 515 542 522 506 q 493 602 509 578 q 453 636 478 625 q 392 648 428 648 q 319 636 351 648 q 262 606 287 625 q 217 563 237 587 q 182 512 198 538 l 88 572 q 115 626 93 600 q 176 673 138 652 q 266 707 214 694 q 384 720 319 720 q 597 653 529 720 q 666 463 666 587 l 666 182 q 669 116 666 144 q 677 68 673 89 l 786 68 l 786 13 z "},"":{"ha":846,"x_min":69,"x_max":786,"o":"m 605 815 q 569 803 597 803 l 514 803 l 385 933 l 254 803 l 201 803 q 163 815 172 803 q 170 827 167 822 q 178 840 173 833 l 317 1022 l 452 1022 l 591 840 q 599 827 595 833 q 605 815 602 822 m 511 139 q 519 222 515 176 q 522 332 522 269 l 415 332 q 267 296 318 332 q 215 190 215 260 q 249 99 215 129 q 340 68 283 68 q 427 89 382 68 q 511 139 471 109 m 786 13 q 708 -4 751 1 q 612 -9 665 -9 q 565 -7 584 -9 q 533 1 545 -6 q 516 23 522 8 q 511 64 511 38 l 509 78 q 466 43 489 60 q 416 13 443 26 q 357 -8 389 -1 q 290 -16 326 -16 q 201 -4 241 -16 q 131 34 160 9 q 85 96 102 59 q 69 184 69 134 q 157 353 69 296 q 422 409 244 409 l 522 409 l 522 455 q 515 542 522 506 q 493 602 509 578 q 453 636 478 625 q 392 648 428 648 q 319 636 351 648 q 262 606 287 625 q 217 563 237 587 q 182 512 198 538 l 88 572 q 115 626 93 600 q 176 673 138 652 q 266 707 214 694 q 384 720 319 720 q 597 653 529 720 q 666 463 666 587 l 666 182 q 669 116 666 144 q 677 68 673 89 l 786 68 l 786 13 z "},"":{"ha":846,"x_min":69,"x_max":786,"o":"m 285 970 q 343 959 316 970 q 395 933 370 947 q 444 908 420 920 q 495 897 469 897 q 524 905 511 897 q 549 922 538 912 q 567 943 559 932 q 578 959 574 954 q 647 940 614 959 q 574 839 612 874 q 488 803 535 803 q 426 814 455 803 q 369 840 396 826 q 318 865 342 853 q 271 876 294 876 q 242 868 255 876 q 218 850 229 861 q 199 830 207 840 q 187 815 191 820 q 153 819 170 815 q 121 833 137 823 q 161 902 140 876 q 204 944 182 929 q 246 964 225 959 q 285 970 267 970 m 511 139 q 519 222 515 176 q 522 332 522 269 l 415 332 q 267 296 318 332 q 215 190 215 260 q 249 99 215 129 q 340 68 283 68 q 427 89 382 68 q 511 139 471 109 m 786 13 q 708 -4 751 1 q 612 -9 665 -9 q 565 -7 584 -9 q 533 1 545 -6 q 516 23 522 8 q 511 64 511 38 l 509 78 q 466 43 489 60 q 416 13 443 26 q 357 -8 389 -1 q 290 -16 326 -16 q 201 -4 241 -16 q 131 34 160 9 q 85 96 102 59 q 69 184 69 134 q 157 353 69 296 q 422 409 244 409 l 522 409 l 522 455 q 515 542 522 506 q 493 602 509 578 q 453 636 478 625 q 392 648 428 648 q 319 636 351 648 q 262 606 287 625 q 217 563 237 587 q 182 512 198 538 l 88 572 q 115 626 93 600 q 176 673 138 652 q 266 707 214 694 q 384 720 319 720 q 597 653 529 720 q 666 463 666 587 l 666 182 q 669 116 666 144 q 677 68 673 89 l 786 68 l 786 13 z "},"":{"ha":846,"x_min":69,"x_max":786,"o":"m 424 879 q 430 909 424 895 q 447 933 436 923 q 471 949 457 943 q 500 956 485 956 q 530 949 516 956 q 554 933 544 943 q 571 909 565 923 q 577 879 577 895 q 571 849 577 863 q 554 825 565 836 q 530 809 544 815 q 500 803 516 803 q 471 809 485 803 q 447 825 457 815 q 430 849 436 836 q 424 879 424 863 m 191 879 q 197 909 191 895 q 213 933 203 923 q 238 949 224 943 q 267 956 252 956 q 297 949 283 956 q 321 933 311 943 q 338 909 332 923 q 344 879 344 895 q 338 849 344 863 q 321 825 332 836 q 297 809 311 815 q 267 803 283 803 q 238 809 252 803 q 213 825 224 815 q 197 849 203 836 q 191 879 191 863 m 511 139 q 519 222 515 176 q 522 332 522 269 l 415 332 q 267 296 318 332 q 215 190 215 260 q 249 99 215 129 q 340 68 283 68 q 427 89 382 68 q 511 139 471 109 m 786 13 q 708 -4 751 1 q 612 -9 665 -9 q 565 -7 584 -9 q 533 1 545 -6 q 516 23 522 8 q 511 64 511 38 l 509 78 q 466 43 489 60 q 416 13 443 26 q 357 -8 389 -1 q 290 -16 326 -16 q 201 -4 241 -16 q 131 34 160 9 q 85 96 102 59 q 69 184 69 134 q 157 353 69 296 q 422 409 244 409 l 522 409 l 522 455 q 515 542 522 506 q 493 602 509 578 q 453 636 478 625 q 392 648 428 648 q 319 636 351 648 q 262 606 287 625 q 217 563 237 587 q 182 512 198 538 l 88 572 q 115 626 93 600 q 176 673 138 652 q 266 707 214 694 q 384 720 319 720 q 597 653 529 720 q 666 463 666 587 l 666 182 q 669 116 666 144 q 677 68 673 89 l 786 68 l 786 13 z "},"":{"ha":846,"x_min":69,"x_max":786,"o":"m 542 956 q 530 892 542 921 q 496 844 517 864 q 446 814 475 825 q 384 803 417 803 q 321 814 350 803 q 271 846 292 825 q 238 894 250 866 q 227 956 227 922 q 238 1017 227 989 q 271 1065 250 1045 q 320 1097 292 1086 q 384 1108 349 1108 q 447 1097 418 1108 q 497 1065 476 1086 q 530 1017 518 1045 q 542 956 542 989 m 472 956 q 448 1020 472 996 q 384 1043 425 1043 q 321 1020 345 1043 q 297 956 297 996 q 320 892 297 915 q 384 869 343 869 q 447 892 422 869 q 472 956 472 915 m 511 139 q 519 222 515 176 q 522 332 522 269 l 415 332 q 267 296 318 332 q 215 190 215 260 q 249 99 215 129 q 340 68 283 68 q 427 89 382 68 q 511 139 471 109 m 786 13 q 708 -4 751 1 q 612 -9 665 -9 q 565 -7 584 -9 q 533 1 545 -6 q 516 23 522 8 q 511 64 511 38 l 509 78 q 466 43 489 60 q 416 13 443 26 q 357 -8 389 -1 q 290 -16 326 -16 q 201 -4 241 -16 q 131 34 160 9 q 85 96 102 59 q 69 184 69 134 q 157 353 69 296 q 422 409 244 409 l 522 409 l 522 455 q 515 542 522 506 q 493 602 509 578 q 453 636 478 625 q 392 648 428 648 q 319 636 351 648 q 262 606 287 625 q 217 563 237 587 q 182 512 198 538 l 88 572 q 115 626 93 600 q 176 673 138 652 q 266 707 214 694 q 384 720 319 720 q 597 653 529 720 q 666 463 666 587 l 666 182 q 669 116 666 144 q 677 68 673 89 l 786 68 l 786 13 z "},"":{"ha":1240,"x_min":69,"x_max":1171,"o":"m 1156 113 q 1048 12 1117 43 q 884 -19 980 -19 q 701 19 779 -19 q 578 132 623 56 q 571 127 575 131 q 559 118 567 124 q 539 102 551 112 q 509 78 528 92 q 466 42 489 60 q 416 12 443 25 q 357 -11 389 -2 q 290 -19 326 -19 q 201 -6 241 -19 q 131 33 160 7 q 85 96 102 58 q 69 184 69 134 q 157 353 69 296 q 422 409 244 409 l 522 409 l 522 455 q 515 546 522 508 q 493 607 509 583 q 453 643 478 631 q 392 654 428 654 q 319 642 351 654 q 262 610 287 630 q 217 565 237 591 q 182 512 198 539 l 88 572 q 115 628 93 601 q 176 677 138 656 q 266 711 214 699 q 384 724 319 724 q 532 700 474 724 q 623 629 591 676 q 735 700 670 675 q 882 724 800 724 q 996 706 943 724 q 1087 651 1048 687 q 1148 564 1126 616 q 1171 447 1171 513 q 1164 385 1171 408 q 1145 350 1158 362 q 1113 334 1133 338 q 1067 330 1094 330 l 670 330 q 742 130 677 196 q 913 63 806 63 q 1013 81 966 63 q 1097 139 1059 98 l 1156 113 m 1023 410 q 1025 415 1025 412 q 1025 421 1025 418 q 1016 508 1025 467 q 986 581 1006 549 q 935 631 966 612 q 859 650 903 650 q 722 589 768 650 q 669 410 675 528 l 1023 410 m 511 139 q 519 222 515 176 q 522 332 522 269 l 415 332 q 267 296 318 332 q 215 190 215 260 q 249 94 215 125 q 340 63 283 63 q 427 84 382 63 q 511 139 471 106 z "},"":{"ha":734,"x_min":77,"x_max":680,"o":"m 294 -260 q 340 -272 316 -267 q 385 -277 363 -277 q 451 -259 427 -277 q 475 -210 475 -241 q 457 -155 475 -173 q 408 -133 438 -138 q 396 -135 402 -133 q 382 -138 390 -136 q 366 -130 374 -133 q 348 -123 357 -127 l 406 -5 l 474 -5 l 436 -77 q 499 -86 471 -79 q 547 -106 528 -93 q 578 -142 567 -120 q 589 -197 589 -164 q 575 -265 589 -236 q 539 -313 562 -294 q 483 -341 515 -332 q 414 -350 451 -350 q 341 -342 371 -350 q 294 -322 311 -334 q 290 -295 290 -311 q 294 -260 290 -279 m 680 37 q 572 -3 635 10 q 439 -16 509 -16 q 294 7 360 -16 q 179 77 227 31 q 103 190 130 123 q 77 342 77 256 q 105 503 77 433 q 183 622 134 574 q 301 694 233 669 q 450 720 370 720 q 517 715 484 720 q 579 702 550 711 q 634 682 609 694 q 677 655 659 670 l 666 519 l 617 519 q 542 612 585 583 q 435 642 498 642 q 351 623 389 642 q 284 569 312 604 q 241 486 256 534 q 225 380 225 437 q 243 239 225 298 q 293 142 262 180 q 367 86 325 104 q 456 68 408 68 q 571 82 519 68 q 670 125 623 96 l 680 37 z "},"":{"ha":794,"x_min":77,"x_max":724,"o":"m 184 1022 l 354 1022 l 482 803 l 389 803 l 184 1022 m 577 410 q 578 415 578 412 q 578 421 578 418 q 569 506 578 466 q 541 577 560 547 q 489 626 521 608 q 412 644 458 644 q 276 585 322 644 q 223 410 229 525 l 577 410 m 709 113 q 603 15 671 45 q 438 -16 535 -16 q 289 8 356 -16 q 175 80 222 33 q 102 195 128 127 q 77 352 77 264 q 102 506 77 437 q 174 621 127 574 q 287 694 220 669 q 435 720 353 720 q 549 701 496 720 q 641 647 602 682 q 702 562 680 612 q 724 447 724 511 q 718 385 724 408 q 699 350 711 362 q 667 334 686 338 q 621 330 648 330 l 224 330 q 293 134 231 199 q 460 68 355 68 q 563 85 515 68 q 651 139 610 102 l 709 113 z "},"":{"ha":794,"x_min":77,"x_max":724,"o":"m 481 803 q 430 803 448 803 q 402 803 411 803 q 391 803 393 803 q 389 804 389 804 q 436 886 416 851 q 471 946 456 921 q 497 990 486 972 q 517 1022 507 1008 l 687 1022 q 679 1013 687 1022 q 648 979 671 1003 q 585 912 625 954 q 481 803 545 869 m 577 410 q 578 415 578 412 q 578 421 578 418 q 569 506 578 466 q 541 577 560 547 q 489 626 521 608 q 412 644 458 644 q 276 585 322 644 q 223 410 229 525 l 577 410 m 709 113 q 603 15 671 45 q 438 -16 535 -16 q 289 8 356 -16 q 175 80 222 33 q 102 195 128 127 q 77 352 77 264 q 102 506 77 437 q 174 621 127 574 q 287 694 220 669 q 435 720 353 720 q 549 701 496 720 q 641 647 602 682 q 702 562 680 612 q 724 447 724 511 q 718 385 724 408 q 699 350 711 362 q 667 334 686 338 q 621 330 648 330 l 224 330 q 293 134 231 199 q 460 68 355 68 q 563 85 515 68 q 651 139 610 102 l 709 113 z "},"":{"ha":794,"x_min":77,"x_max":724,"o":"m 656 815 q 621 803 648 803 l 566 803 l 437 933 l 305 803 l 253 803 q 215 815 223 803 q 221 827 218 822 q 230 840 224 833 l 368 1022 l 503 1022 l 642 840 q 650 827 647 833 q 656 815 654 822 m 577 410 q 578 415 578 412 q 578 421 578 418 q 569 506 578 466 q 541 577 560 547 q 489 626 521 608 q 412 644 458 644 q 276 585 322 644 q 223 410 229 525 l 577 410 m 709 113 q 603 15 671 45 q 438 -16 535 -16 q 289 8 356 -16 q 175 80 222 33 q 102 195 128 127 q 77 352 77 264 q 102 506 77 437 q 174 621 127 574 q 287 694 220 669 q 435 720 353 720 q 549 701 496 720 q 641 647 602 682 q 702 562 680 612 q 724 447 724 511 q 718 385 724 408 q 699 350 711 362 q 667 334 686 338 q 621 330 648 330 l 224 330 q 293 134 231 199 q 460 68 355 68 q 563 85 515 68 q 651 139 610 102 l 709 113 z "},"":{"ha":794,"x_min":77,"x_max":724,"o":"m 475 879 q 481 909 475 895 q 498 933 488 923 q 523 949 509 943 q 552 956 536 956 q 582 949 568 956 q 606 933 595 943 q 623 909 616 923 q 629 879 629 895 q 623 849 629 863 q 606 825 616 836 q 582 809 595 815 q 552 803 568 803 q 523 809 536 803 q 498 825 509 815 q 481 849 488 836 q 475 879 475 863 m 242 879 q 248 909 242 895 q 265 933 254 923 q 289 949 275 943 q 319 956 303 956 q 348 949 334 956 q 373 933 362 943 q 389 909 383 923 q 395 879 395 895 q 389 849 395 863 q 373 825 383 836 q 348 809 362 815 q 319 803 334 803 q 289 809 303 803 q 265 825 275 815 q 248 849 254 836 q 242 879 242 863 m 577 410 q 578 415 578 412 q 578 421 578 418 q 569 506 578 466 q 541 577 560 547 q 489 626 521 608 q 412 644 458 644 q 276 585 322 644 q 223 410 229 525 l 577 410 m 709 113 q 603 15 671 45 q 438 -16 535 -16 q 289 8 356 -16 q 175 80 222 33 q 102 195 128 127 q 77 352 77 264 q 102 506 77 437 q 174 621 127 574 q 287 694 220 669 q 435 720 353 720 q 549 701 496 720 q 641 647 602 682 q 702 562 680 612 q 724 447 724 511 q 718 385 724 408 q 699 350 711 362 q 667 334 686 338 q 621 330 648 330 l 224 330 q 293 134 231 199 q 460 68 355 68 q 563 85 515 68 q 651 139 610 102 l 709 113 z "},"":{"ha":444,"x_min":-7,"x_max":421,"o":"m -7 1022 l 162 1022 l 290 803 l 197 803 l -7 1022 m 161 569 q 159 599 161 585 q 155 627 158 614 q 97 637 132 637 l 32 637 l 32 696 q 119 709 65 703 q 243 714 174 714 q 286 711 273 714 q 305 696 298 707 l 305 154 q 314 79 305 109 q 341 66 326 71 q 374 61 356 61 l 414 61 l 421 5 q 341 -8 386 -4 q 241 -12 296 -12 q 211 -9 227 -12 q 184 0 196 -7 q 164 17 172 6 q 156 47 156 28 q 158 113 156 80 q 161 188 161 145 l 161 569 z "},"":{"ha":444,"x_min":32,"x_max":496,"o":"m 290 803 q 238 803 257 803 q 211 803 220 803 q 199 803 201 803 q 197 804 197 804 q 245 886 225 851 q 280 946 265 921 q 306 990 295 972 q 326 1022 316 1008 l 496 1022 q 488 1013 496 1022 q 457 979 479 1003 q 394 912 434 954 q 290 803 354 869 m 161 569 q 159 599 161 585 q 155 627 158 614 q 97 637 132 637 l 32 637 l 32 696 q 119 709 65 703 q 243 714 174 714 q 286 711 273 714 q 305 696 298 707 l 305 154 q 314 79 305 109 q 341 66 326 71 q 374 61 356 61 l 414 61 l 421 5 q 341 -8 386 -4 q 241 -12 296 -12 q 211 -9 227 -12 q 184 0 196 -7 q 164 17 172 6 q 156 47 156 28 q 158 113 156 80 q 161 188 161 145 l 161 569 z "},"":{"ha":444,"x_min":22,"x_max":465,"o":"m 464 815 q 428 803 456 803 l 373 803 l 244 933 l 113 803 l 60 803 q 22 815 31 803 q 29 827 26 822 q 37 840 32 833 l 176 1022 l 311 1022 l 450 840 q 458 827 454 833 q 464 815 461 822 m 161 569 q 159 599 161 585 q 155 627 158 614 q 97 637 132 637 l 32 637 l 32 696 q 119 709 65 703 q 243 714 174 714 q 286 711 273 714 q 305 696 298 707 l 305 154 q 314 79 305 109 q 341 66 326 71 q 374 61 356 61 l 414 61 l 421 5 q 341 -8 386 -4 q 241 -12 296 -12 q 211 -9 227 -12 q 184 0 196 -7 q 164 17 172 6 q 156 47 156 28 q 158 113 156 80 q 161 188 161 145 l 161 569 z "},"":{"ha":444,"x_min":32,"x_max":437,"o":"m 283 879 q 290 909 283 895 q 306 933 296 923 q 331 949 317 943 q 360 956 345 956 q 390 949 376 956 q 414 933 404 943 q 431 909 425 923 q 437 879 437 895 q 431 849 437 863 q 414 825 425 836 q 390 809 404 815 q 360 803 376 803 q 331 809 345 803 q 306 825 317 815 q 290 849 296 836 q 283 879 283 863 m 50 879 q 56 909 50 895 q 73 933 62 923 q 97 949 83 943 q 127 956 111 956 q 156 949 142 956 q 181 933 170 943 q 197 909 191 923 q 203 879 203 895 q 197 849 203 863 q 181 825 191 836 q 156 809 170 815 q 127 803 142 803 q 97 809 111 803 q 73 825 83 815 q 56 849 62 836 q 50 879 50 863 m 161 569 q 159 599 161 585 q 155 627 158 614 q 97 637 132 637 l 32 637 l 32 696 q 119 709 65 703 q 243 714 174 714 q 286 711 273 714 q 305 696 298 707 l 305 154 q 314 79 305 109 q 341 66 326 71 q 374 61 356 61 l 414 61 l 421 5 q 341 -8 386 -4 q 241 -12 296 -12 q 211 -9 227 -12 q 184 0 196 -7 q 164 17 172 6 q 156 47 156 28 q 158 113 156 80 q 161 188 161 145 l 161 569 z "},"":{"ha":888,"x_min":90,"x_max":787,"o":"m 248 1059 q 388 1036 323 1054 q 511 985 453 1018 l 669 1080 l 688 1055 q 695 1043 691 1048 q 702 1032 699 1038 q 681 1011 696 1022 q 648 988 667 1000 q 609 966 629 977 q 572 946 589 955 q 666 849 626 905 q 733 727 706 794 q 774 585 760 661 q 787 427 787 509 q 779 316 787 371 q 752 211 770 261 q 706 119 734 161 q 639 46 678 77 q 548 -2 600 16 q 433 -20 497 -20 q 298 4 361 -20 q 189 75 235 28 q 117 188 143 121 q 90 343 90 256 q 117 492 90 427 q 190 602 144 557 q 299 669 237 646 q 433 692 362 692 q 535 678 488 692 q 627 627 583 663 q 567 781 608 718 q 473 885 527 844 l 307 787 l 288 812 q 277 824 282 819 q 271 835 273 829 q 302 863 281 850 l 413 928 q 212 1000 319 985 l 248 1059 m 390 66 q 450 56 414 56 q 531 78 496 56 q 590 142 566 100 q 626 242 614 183 q 637 376 637 302 q 635 431 637 404 q 627 486 632 458 q 592 548 612 522 q 547 589 572 573 q 493 613 522 606 q 433 620 465 620 q 292 550 339 620 q 245 345 245 479 q 281 153 245 220 q 390 66 316 85 z "},"":{"ha":937,"x_min":39,"x_max":899,"o":"m 370 970 q 428 959 401 970 q 479 933 454 947 q 529 908 505 920 q 580 897 553 897 q 609 905 595 897 q 633 922 623 912 q 652 943 644 932 q 663 959 659 954 q 732 940 699 959 q 659 839 697 874 q 573 803 620 803 q 510 814 540 803 q 454 840 481 826 q 403 865 427 853 q 355 876 378 876 q 327 868 340 876 q 302 850 313 861 q 284 830 292 840 q 272 815 276 820 q 238 819 254 815 q 205 833 222 823 q 246 902 224 876 q 289 944 267 929 q 331 964 310 959 q 370 970 351 970 m 782 182 q 785 116 782 144 q 793 68 789 89 l 891 68 l 899 8 q 718 -9 830 -9 q 688 -6 703 -9 q 661 3 673 -4 q 641 21 649 9 q 633 50 633 32 q 635 118 633 83 q 637 196 637 153 l 637 441 q 628 532 637 495 q 603 592 619 569 q 566 625 587 615 q 520 635 545 635 q 464 625 493 635 q 406 599 434 615 q 354 562 378 583 q 313 519 330 541 l 313 161 q 314 112 313 131 q 323 80 315 92 q 347 61 331 68 q 394 49 363 54 l 399 -9 q 318 -2 361 -5 q 230 0 275 0 q 151 -2 189 0 q 81 -9 113 -4 l 83 49 q 132 58 115 53 q 157 74 149 64 q 166 100 165 84 q 168 140 168 115 l 168 573 q 166 600 168 587 q 163 625 165 613 q 142 632 153 630 q 115 635 131 635 l 39 635 l 39 700 q 64 704 47 702 q 102 709 81 707 q 150 712 124 711 q 201 713 175 713 q 262 710 233 713 q 309 700 291 707 l 309 614 q 366 659 335 640 q 430 692 397 679 q 498 713 464 706 q 566 720 533 720 q 648 708 609 720 q 717 670 687 696 q 764 603 747 644 q 782 505 782 562 l 782 182 z "},"":{"ha":871,"x_min":77,"x_max":795,"o":"m 185 1022 l 355 1022 l 483 803 l 389 803 l 185 1022 m 795 351 q 766 192 795 260 q 688 77 737 123 q 574 7 640 31 q 436 -16 509 -16 q 295 8 360 -16 q 181 79 229 33 q 104 195 132 126 q 77 351 77 263 q 104 507 77 439 q 181 623 132 576 q 295 695 229 670 q 436 720 360 720 q 577 695 511 720 q 691 623 643 670 q 767 507 739 576 q 795 351 795 439 m 232 352 q 281 130 232 201 q 435 59 330 59 q 529 77 490 59 q 593 132 568 96 q 628 224 617 169 q 640 352 640 279 q 590 569 640 497 q 435 642 541 642 q 342 623 381 642 q 279 568 304 604 q 243 477 255 531 q 232 352 232 422 z "},"":{"ha":871,"x_min":77,"x_max":795,"o":"m 483 803 q 431 803 450 803 q 403 803 412 803 q 392 803 394 803 q 390 804 390 804 q 438 886 418 851 q 473 946 458 921 q 498 990 488 972 q 518 1022 509 1008 l 688 1022 q 680 1013 688 1022 q 649 979 672 1003 q 587 912 627 954 q 483 803 547 869 m 795 351 q 766 192 795 260 q 688 77 737 123 q 574 7 640 31 q 436 -16 509 -16 q 295 8 360 -16 q 181 79 229 33 q 104 195 132 126 q 77 351 77 263 q 104 507 77 439 q 181 623 132 576 q 295 695 229 670 q 436 720 360 720 q 577 695 511 720 q 691 623 643 670 q 767 507 739 576 q 795 351 795 439 m 232 352 q 281 130 232 201 q 435 59 330 59 q 529 77 490 59 q 593 132 568 96 q 628 224 617 169 q 640 352 640 279 q 590 569 640 497 q 435 642 541 642 q 342 623 381 642 q 279 568 304 604 q 243 477 255 531 q 232 352 232 422 z "},"":{"ha":871,"x_min":77,"x_max":795,"o":"m 656 815 q 621 803 648 803 l 566 803 l 437 933 l 305 803 l 253 803 q 215 815 223 803 q 221 827 218 822 q 230 840 224 833 l 368 1022 l 503 1022 l 642 840 q 650 827 647 833 q 656 815 654 822 m 795 351 q 766 192 795 260 q 688 77 737 123 q 574 7 640 31 q 436 -16 509 -16 q 295 8 360 -16 q 181 79 229 33 q 104 195 132 126 q 77 351 77 263 q 104 507 77 439 q 181 623 132 576 q 295 695 229 670 q 436 720 360 720 q 577 695 511 720 q 691 623 643 670 q 767 507 739 576 q 795 351 795 439 m 232 352 q 281 130 232 201 q 435 59 330 59 q 529 77 490 59 q 593 132 568 96 q 628 224 617 169 q 640 352 640 279 q 590 569 640 497 q 435 642 541 642 q 342 623 381 642 q 279 568 304 604 q 243 477 255 531 q 232 352 232 422 z "},"":{"ha":871,"x_min":77,"x_max":795,"o":"m 337 970 q 395 959 368 970 q 447 933 422 947 q 496 908 472 920 q 547 897 521 897 q 576 905 563 897 q 601 922 590 912 q 619 943 612 932 q 630 959 627 954 q 699 940 666 959 q 626 839 665 874 q 541 803 587 803 q 478 814 507 803 q 421 840 448 826 q 370 865 395 853 q 323 876 346 876 q 294 868 307 876 q 270 850 281 861 q 251 830 259 840 q 239 815 243 820 q 205 819 222 815 q 173 833 189 823 q 213 902 192 876 q 256 944 235 929 q 298 964 277 959 q 337 970 319 970 m 795 351 q 766 192 795 260 q 688 77 737 123 q 574 7 640 31 q 436 -16 509 -16 q 295 8 360 -16 q 181 79 229 33 q 104 195 132 126 q 77 351 77 263 q 104 507 77 439 q 181 623 132 576 q 295 695 229 670 q 436 720 360 720 q 577 695 511 720 q 691 623 643 670 q 767 507 739 576 q 795 351 795 439 m 232 352 q 281 130 232 201 q 435 59 330 59 q 529 77 490 59 q 593 132 568 96 q 628 224 617 169 q 640 352 640 279 q 590 569 640 497 q 435 642 541 642 q 342 623 381 642 q 279 568 304 604 q 243 477 255 531 q 232 352 232 422 z "},"":{"ha":871,"x_min":77,"x_max":795,"o":"m 476 879 q 482 909 476 895 q 499 933 488 923 q 523 949 509 943 q 553 956 537 956 q 582 949 568 956 q 607 933 596 943 q 623 909 617 923 q 629 879 629 895 q 623 849 629 863 q 607 825 617 836 q 582 809 596 815 q 553 803 568 803 q 523 809 537 803 q 499 825 509 815 q 482 849 488 836 q 476 879 476 863 m 243 879 q 249 909 243 895 q 266 933 255 923 q 290 949 276 943 q 319 956 304 956 q 349 949 335 956 q 373 933 363 943 q 390 909 384 923 q 396 879 396 895 q 390 849 396 863 q 373 825 384 836 q 349 809 363 815 q 319 803 335 803 q 290 809 304 803 q 266 825 276 815 q 249 849 255 836 q 243 879 243 863 m 795 351 q 766 192 795 260 q 688 77 737 123 q 574 7 640 31 q 436 -16 509 -16 q 295 8 360 -16 q 181 79 229 33 q 104 195 132 126 q 77 351 77 263 q 104 507 77 439 q 181 623 132 576 q 295 695 229 670 q 436 720 360 720 q 577 695 511 720 q 691 623 643 670 q 767 507 739 576 q 795 351 795 439 m 232 352 q 281 130 232 201 q 435 59 330 59 q 529 77 490 59 q 593 132 568 96 q 628 224 617 169 q 640 352 640 279 q 590 569 640 497 q 435 642 541 642 q 342 623 381 642 q 279 568 304 604 q 243 477 255 531 q 232 352 232 422 z "},"":{"ha":853,"x_min":94,"x_max":767,"o":"m 415 165 q 452 157 435 165 q 481 135 469 149 q 501 103 494 121 q 508 67 508 85 q 500 26 508 43 q 479 -2 492 9 q 451 -18 467 -13 q 420 -23 435 -23 q 375 -16 394 -23 q 344 4 356 -8 q 327 33 332 17 q 321 66 321 49 q 347 141 321 117 q 415 165 374 165 m 321 623 q 347 690 321 665 q 418 715 374 715 q 455 708 439 715 q 484 689 472 701 q 503 661 496 677 q 509 629 509 646 q 502 584 509 603 q 482 553 494 565 q 454 534 470 541 q 420 528 437 528 q 344 555 368 528 q 321 623 321 583 m 94 332 l 94 378 q 97 406 94 395 q 105 421 99 416 q 121 429 111 427 q 148 431 132 431 l 767 431 l 767 385 q 760 350 767 361 q 735 332 752 338 l 94 332 z "},"":{"ha":802,"x_min":77,"x_max":795,"o":"m 795 351 q 766 191 795 260 q 688 75 737 122 q 574 5 640 28 q 436 -19 509 -19 q 299 4 361 -19 l 233 -113 l 203 -106 q 167 -82 171 -102 q 179 -62 172 -72 q 192 -43 185 -52 l 235 35 q 170 89 199 57 q 120 160 140 120 q 88 248 99 200 q 77 351 77 296 q 104 509 77 439 q 181 626 132 578 q 295 699 229 674 q 436 724 360 724 q 602 688 526 724 l 673 814 l 703 806 q 740 783 736 802 q 728 764 734 774 q 714 743 722 753 l 663 651 q 760 529 724 604 q 795 351 795 454 m 232 352 q 244 216 232 272 q 286 124 257 161 l 559 612 q 435 651 513 651 q 342 632 381 651 q 279 576 304 613 q 243 482 255 538 q 232 352 232 426 m 640 352 q 606 549 640 474 l 340 77 q 435 58 378 58 q 529 77 490 58 q 593 132 568 95 q 628 223 617 168 q 640 352 640 279 z "},"":{"ha":918,"x_min":32,"x_max":886,"o":"m 190 1022 l 359 1022 l 488 803 l 394 803 l 190 1022 m 765 182 q 768 116 765 144 q 777 68 772 89 l 886 68 l 886 10 q 806 -4 850 1 q 707 -9 762 -9 q 662 -7 681 -9 q 632 1 644 -5 q 615 20 621 7 q 610 55 610 33 l 610 78 l 600 71 q 555 40 578 55 q 503 12 532 24 q 436 -8 473 -1 q 350 -16 399 -16 q 199 39 247 -16 q 152 203 152 95 l 152 562 q 150 598 152 582 q 144 627 148 614 q 118 633 132 631 q 88 635 104 635 l 32 635 l 32 700 q 58 704 41 702 q 99 709 76 707 q 150 712 123 711 q 206 713 178 713 q 256 710 232 713 q 296 700 279 707 l 296 239 q 298 173 296 203 q 312 119 300 142 q 348 82 323 96 q 418 68 373 68 q 486 79 452 68 q 547 102 519 90 q 592 126 574 115 q 610 139 609 137 q 619 241 617 184 q 621 360 621 298 l 621 562 q 613 627 621 601 q 587 633 602 631 q 557 635 573 635 l 501 635 l 501 700 q 528 704 510 702 q 569 709 545 707 q 620 712 592 711 q 675 713 647 713 q 725 710 701 713 q 765 700 749 707 l 765 182 z "},"":{"ha":918,"x_min":32,"x_max":886,"o":"m 487 803 q 435 803 454 803 q 407 803 416 803 q 396 803 398 803 q 394 804 394 804 q 442 886 422 851 q 477 946 462 921 q 502 990 492 972 q 522 1022 513 1008 l 692 1022 q 684 1013 692 1022 q 653 979 676 1003 q 591 912 631 954 q 487 803 551 869 m 765 182 q 768 116 765 144 q 777 68 772 89 l 886 68 l 886 10 q 806 -4 850 1 q 707 -9 762 -9 q 662 -7 681 -9 q 632 1 644 -5 q 615 20 621 7 q 610 55 610 33 l 610 78 l 600 71 q 555 40 578 55 q 503 12 532 24 q 436 -8 473 -1 q 350 -16 399 -16 q 199 39 247 -16 q 152 203 152 95 l 152 562 q 150 598 152 582 q 144 627 148 614 q 118 633 132 631 q 88 635 104 635 l 32 635 l 32 700 q 58 704 41 702 q 99 709 76 707 q 150 712 123 711 q 206 713 178 713 q 256 710 232 713 q 296 700 279 707 l 296 239 q 298 173 296 203 q 312 119 300 142 q 348 82 323 96 q 418 68 373 68 q 486 79 452 68 q 547 102 519 90 q 592 126 574 115 q 610 139 609 137 q 619 241 617 184 q 621 360 621 298 l 621 562 q 613 627 621 601 q 587 633 602 631 q 557 635 573 635 l 501 635 l 501 700 q 528 704 510 702 q 569 709 545 707 q 620 712 592 711 q 675 713 647 713 q 725 710 701 713 q 765 700 749 707 l 765 182 z "},"":{"ha":918,"x_min":32,"x_max":886,"o":"m 662 815 q 626 803 654 803 l 571 803 l 442 933 l 311 803 l 258 803 q 220 815 229 803 q 227 827 224 822 q 235 840 230 833 l 374 1022 l 509 1022 l 648 840 q 656 827 652 833 q 662 815 659 822 m 765 182 q 768 116 765 144 q 777 68 772 89 l 886 68 l 886 10 q 806 -4 850 1 q 707 -9 762 -9 q 662 -7 681 -9 q 632 1 644 -5 q 615 20 621 7 q 610 55 610 33 l 610 78 l 600 71 q 555 40 578 55 q 503 12 532 24 q 436 -8 473 -1 q 350 -16 399 -16 q 199 39 247 -16 q 152 203 152 95 l 152 562 q 150 598 152 582 q 144 627 148 614 q 118 633 132 631 q 88 635 104 635 l 32 635 l 32 700 q 58 704 41 702 q 99 709 76 707 q 150 712 123 711 q 206 713 178 713 q 256 710 232 713 q 296 700 279 707 l 296 239 q 298 173 296 203 q 312 119 300 142 q 348 82 323 96 q 418 68 373 68 q 486 79 452 68 q 547 102 519 90 q 592 126 574 115 q 610 139 609 137 q 619 241 617 184 q 621 360 621 298 l 621 562 q 613 627 621 601 q 587 633 602 631 q 557 635 573 635 l 501 635 l 501 700 q 528 704 510 702 q 569 709 545 707 q 620 712 592 711 q 675 713 647 713 q 725 710 701 713 q 765 700 749 707 l 765 182 z "},"":{"ha":918,"x_min":32,"x_max":886,"o":"m 481 879 q 487 909 481 895 q 504 933 493 923 q 528 949 514 943 q 557 956 542 956 q 587 949 573 956 q 611 933 601 943 q 628 909 622 923 q 634 879 634 895 q 628 849 634 863 q 611 825 622 836 q 587 809 601 815 q 557 803 573 803 q 528 809 542 803 q 504 825 514 815 q 487 849 493 836 q 481 879 481 863 m 248 879 q 254 909 248 895 q 270 933 260 923 q 295 949 281 943 q 324 956 309 956 q 354 949 340 956 q 378 933 368 943 q 395 909 389 923 q 401 879 401 895 q 395 849 401 863 q 378 825 389 836 q 354 809 368 815 q 324 803 340 803 q 295 809 309 803 q 270 825 281 815 q 254 849 260 836 q 248 879 248 863 m 765 182 q 768 116 765 144 q 777 68 772 89 l 886 68 l 886 10 q 806 -4 850 1 q 707 -9 762 -9 q 662 -7 681 -9 q 632 1 644 -5 q 615 20 621 7 q 610 55 610 33 l 610 78 l 600 71 q 555 40 578 55 q 503 12 532 24 q 436 -8 473 -1 q 350 -16 399 -16 q 199 39 247 -16 q 152 203 152 95 l 152 562 q 150 598 152 582 q 144 627 148 614 q 118 633 132 631 q 88 635 104 635 l 32 635 l 32 700 q 58 704 41 702 q 99 709 76 707 q 150 712 123 711 q 206 713 178 713 q 256 710 232 713 q 296 700 279 707 l 296 239 q 298 173 296 203 q 312 119 300 142 q 348 82 323 96 q 418 68 373 68 q 486 79 452 68 q 547 102 519 90 q 592 126 574 115 q 610 139 609 137 q 619 241 617 184 q 621 360 621 298 l 621 562 q 613 627 621 601 q 587 633 602 631 q 557 635 573 635 l 501 635 l 501 700 q 528 704 510 702 q 569 709 545 707 q 620 712 592 711 q 675 713 647 713 q 725 710 701 713 q 765 700 749 707 l 765 182 z "},"":{"ha":893,"x_min":5,"x_max":893,"o":"m 501 803 q 449 803 468 803 q 421 803 431 803 q 410 803 412 803 q 408 804 408 804 q 456 886 436 851 q 491 946 476 921 q 516 990 506 972 q 536 1022 527 1008 l 707 1022 q 699 1013 707 1022 q 668 979 690 1003 q 605 912 645 954 q 501 803 565 869 m 658 566 q 667 596 663 582 q 675 625 672 611 q 653 632 666 630 q 623 635 641 635 l 585 635 l 593 700 q 657 710 619 707 q 744 713 695 713 q 832 710 793 713 q 893 700 871 707 l 893 635 l 857 635 q 823 632 838 635 q 794 625 808 630 q 790 619 793 623 q 783 603 788 615 q 768 571 777 591 q 744 516 759 550 l 463 -133 q 408 -230 437 -192 q 346 -291 379 -269 q 275 -322 313 -313 q 193 -331 237 -331 q 158 -329 175 -331 q 126 -325 140 -328 q 102 -319 112 -323 q 88 -312 92 -316 l 103 -218 q 157 -232 129 -227 q 206 -237 186 -237 q 260 -231 237 -237 q 304 -203 283 -224 q 348 -141 326 -182 q 400 -32 370 -101 l 147 566 q 133 596 140 581 q 115 624 125 610 q 54 634 89 634 l 17 634 l 5 699 q 71 710 29 707 q 165 713 112 713 q 279 710 227 713 q 363 699 330 707 l 374 634 l 336 634 q 303 632 319 634 q 279 624 288 629 q 289 597 279 621 q 312 537 298 573 q 344 455 326 500 q 380 363 362 410 l 479 116 l 658 566 z "},"":{"ha":922,"x_min":20,"x_max":825,"o":"m 671 366 q 503 644 671 644 q 308 559 399 644 q 294 338 294 458 q 298 90 294 191 q 323 77 303 83 q 369 66 343 71 q 423 59 395 62 q 472 57 451 57 q 554 77 517 57 q 617 135 591 96 q 657 232 643 174 q 671 366 671 290 m 150 908 q 149 943 150 926 q 144 977 147 961 q 118 984 132 981 q 85 987 103 987 l 20 987 l 20 1046 q 115 1059 55 1054 q 250 1064 174 1064 q 271 1064 262 1064 q 288 1062 281 1063 q 293 1035 292 1049 q 295 1003 294 1020 l 295 619 q 405 698 346 672 q 538 724 464 724 q 657 700 604 724 q 747 631 710 676 q 805 520 785 586 q 825 371 825 454 q 799 205 825 277 q 729 84 773 133 q 628 9 686 35 q 508 -16 571 -16 q 392 -4 444 -16 q 294 35 340 9 l 294 -117 q 295 -179 294 -152 q 303 -228 296 -207 q 323 -264 309 -249 q 363 -290 337 -279 l 363 -318 q 220 -331 298 -331 q 78 -318 142 -331 l 78 -290 q 118 -264 103 -279 q 140 -228 132 -249 q 149 -179 147 -207 q 151 -117 151 -152 l 150 908 z "},"":{"ha":893,"x_min":5,"x_max":893,"o":"m 495 879 q 501 909 495 895 q 518 933 507 923 q 542 949 528 943 q 572 956 556 956 q 601 949 587 956 q 626 933 615 943 q 642 909 636 923 q 648 879 648 895 q 642 849 648 863 q 626 825 636 836 q 601 809 615 815 q 572 803 587 803 q 542 809 556 803 q 518 825 528 815 q 501 849 507 836 q 495 879 495 863 m 262 879 q 268 909 262 895 q 284 933 274 923 q 309 949 295 943 q 338 956 323 956 q 368 949 354 956 q 392 933 382 943 q 409 909 403 923 q 415 879 415 895 q 409 849 415 863 q 392 825 403 836 q 368 809 382 815 q 338 803 354 803 q 309 809 323 803 q 284 825 295 815 q 268 849 274 836 q 262 879 262 863 m 658 566 q 667 596 663 582 q 675 625 672 611 q 653 632 666 630 q 623 635 641 635 l 585 635 l 593 700 q 657 710 619 707 q 744 713 695 713 q 832 710 793 713 q 893 700 871 707 l 893 635 l 857 635 q 823 632 838 635 q 794 625 808 630 q 790 619 793 623 q 783 603 788 615 q 768 571 777 591 q 744 516 759 550 l 463 -133 q 408 -230 437 -192 q 346 -291 379 -269 q 275 -322 313 -313 q 193 -331 237 -331 q 158 -329 175 -331 q 126 -325 140 -328 q 102 -319 112 -323 q 88 -312 92 -316 l 103 -218 q 157 -232 129 -227 q 206 -237 186 -237 q 260 -231 237 -237 q 304 -203 283 -224 q 348 -141 326 -182 q 400 -32 370 -101 l 147 566 q 133 596 140 581 q 115 624 125 610 q 54 634 89 634 l 17 634 l 5 699 q 71 710 29 707 q 165 713 112 713 q 279 710 227 713 q 363 699 330 707 l 374 634 l 336 634 q 303 632 319 634 q 279 624 288 629 q 289 597 279 621 q 312 537 298 573 q 344 455 326 500 q 380 363 362 410 l 479 116 l 658 566 z "},"":{"ha":1072,"x_min":0,"x_max":1072,"o":"m 504 1165 q 562 1172 535 1165 q 609 1194 589 1179 q 644 1235 630 1210 q 665 1295 659 1259 l 726 1270 q 705 1190 724 1226 q 657 1127 687 1154 q 589 1086 628 1101 q 504 1072 549 1072 q 419 1086 458 1072 q 350 1127 380 1101 q 302 1190 321 1154 q 281 1270 284 1226 l 342 1295 q 363 1235 349 1259 q 398 1194 378 1210 q 446 1172 419 1179 q 504 1165 472 1165 m 509 854 l 338 357 l 682 357 l 515 854 l 509 854 m 917 176 q 938 127 928 147 q 958 92 947 107 q 989 86 973 87 q 1023 85 1005 85 l 1053 85 l 1072 -9 q 986 -1 1027 -3 q 908 0 946 0 q 855 0 880 0 q 805 -2 829 -1 q 756 -4 781 -3 q 706 -9 732 -6 l 693 85 l 705 85 q 741 86 724 85 q 772 92 758 87 q 767 127 771 107 q 752 174 762 148 l 707 287 l 316 287 l 279 176 q 268 133 271 151 q 264 100 264 115 q 269 92 264 94 q 280 87 273 89 q 296 86 288 86 q 313 85 304 85 l 344 85 l 338 -9 q 264 -1 300 -3 q 194 0 229 0 q 97 -1 142 0 q 0 -9 52 -3 l 20 85 l 52 85 q 86 86 70 85 q 117 92 102 87 q 138 127 128 107 q 158 174 149 148 q 184 242 166 196 q 225 349 201 288 q 276 479 249 410 q 332 619 304 549 l 473 975 l 535 975 q 584 972 566 975 q 618 964 602 969 l 917 176 z "},"":{"ha":846,"x_min":69,"x_max":786,"o":"m 384 897 q 442 903 415 897 q 489 926 469 910 q 524 966 510 941 q 545 1027 538 991 l 606 1002 q 585 921 604 958 q 537 859 567 885 q 469 818 508 832 q 384 803 429 803 q 299 818 338 803 q 230 859 260 832 q 182 921 201 885 q 161 1002 164 958 l 222 1027 q 243 966 229 991 q 278 926 258 941 q 326 903 299 910 q 384 897 352 897 m 511 139 q 519 222 515 176 q 522 332 522 269 l 415 332 q 267 296 318 332 q 215 190 215 260 q 249 99 215 129 q 340 68 283 68 q 427 89 382 68 q 511 139 471 109 m 786 13 q 708 -4 751 1 q 612 -9 665 -9 q 565 -7 584 -9 q 533 1 545 -6 q 516 23 522 8 q 511 64 511 38 l 509 78 q 466 43 489 60 q 416 13 443 26 q 357 -8 389 -1 q 290 -16 326 -16 q 201 -4 241 -16 q 131 34 160 9 q 85 96 102 59 q 69 184 69 134 q 157 353 69 296 q 422 409 244 409 l 522 409 l 522 455 q 515 542 522 506 q 493 602 509 578 q 453 636 478 625 q 392 648 428 648 q 319 636 351 648 q 262 606 287 625 q 217 563 237 587 q 182 512 198 538 l 88 572 q 115 626 93 600 q 176 673 138 652 q 266 707 214 694 q 384 720 319 720 q 597 653 529 720 q 666 463 666 587 l 666 182 q 669 116 666 144 q 677 68 673 89 l 786 68 l 786 13 z "},"":{"ha":1072,"x_min":0,"x_max":1072,"o":"m 1012 2 q 934 -79 961 -39 q 907 -155 907 -120 q 913 -187 907 -174 q 928 -208 919 -200 q 949 -219 937 -216 q 972 -222 961 -222 q 1017 -215 998 -222 q 1047 -203 1036 -208 q 1063 -254 1060 -220 q 999 -284 1035 -274 q 924 -294 963 -294 q 871 -289 895 -294 q 831 -270 848 -283 q 804 -237 814 -257 q 795 -189 795 -217 q 812 -126 795 -157 q 855 -68 829 -95 q 912 -20 881 -42 q 973 18 944 2 l 1012 2 m 509 854 l 338 357 l 682 357 l 515 854 l 509 854 m 917 176 q 938 127 928 147 q 958 92 947 107 q 989 86 973 87 q 1023 85 1005 85 l 1053 85 l 1072 -9 q 986 -1 1027 -3 q 908 0 946 0 q 855 0 880 0 q 805 -2 829 -1 q 756 -4 781 -3 q 706 -9 732 -6 l 693 85 l 705 85 q 741 86 724 85 q 772 92 758 87 q 767 127 771 107 q 752 174 762 148 l 707 287 l 316 287 l 279 176 q 268 133 271 151 q 264 100 264 115 q 269 92 264 94 q 280 87 273 89 q 296 86 288 86 q 313 85 304 85 l 344 85 l 338 -9 q 264 -1 300 -3 q 194 0 229 0 q 97 -1 142 0 q 0 -9 52 -3 l 20 85 l 52 85 q 86 86 70 85 q 117 92 102 87 q 138 127 128 107 q 158 174 149 148 q 184 242 166 196 q 225 349 201 288 q 276 479 249 410 q 332 619 304 549 l 473 975 l 535 975 q 584 972 566 975 q 618 964 602 969 l 917 176 z "},"":{"ha":846,"x_min":69,"x_max":786,"o":"m 667 -3 q 590 -84 616 -43 q 563 -159 563 -125 q 569 -192 563 -179 q 584 -213 574 -205 q 605 -224 593 -220 q 628 -227 616 -227 q 672 -220 653 -227 q 703 -208 691 -213 q 719 -258 715 -224 q 654 -289 690 -279 q 580 -299 618 -299 q 527 -293 551 -299 q 486 -275 503 -288 q 460 -242 469 -262 q 450 -194 450 -222 q 467 -131 450 -161 q 510 -73 484 -100 q 568 -25 536 -47 q 629 13 600 -3 l 667 -3 m 511 139 q 519 222 515 176 q 522 332 522 269 l 415 332 q 267 296 318 332 q 215 190 215 260 q 249 99 215 129 q 340 68 283 68 q 427 89 382 68 q 511 139 471 109 m 786 13 q 708 -4 751 1 q 612 -9 665 -9 q 565 -7 584 -9 q 533 1 545 -6 q 516 23 522 8 q 511 64 511 38 l 509 78 q 466 43 489 60 q 416 13 443 26 q 357 -8 389 -1 q 290 -16 326 -16 q 201 -4 241 -16 q 131 34 160 9 q 85 96 102 59 q 69 184 69 134 q 157 353 69 296 q 422 409 244 409 l 522 409 l 522 455 q 515 542 522 506 q 493 602 509 578 q 453 636 478 625 q 392 648 428 648 q 319 636 351 648 q 262 606 287 625 q 217 563 237 587 q 182 512 198 538 l 88 572 q 115 626 93 600 q 176 673 138 652 q 266 707 214 694 q 384 720 319 720 q 597 653 529 720 q 666 463 666 587 l 666 182 q 669 116 666 144 q 677 68 673 89 l 786 68 l 786 13 z "},"":{"ha":932,"x_min":79,"x_max":886,"o":"m 616 1072 q 564 1072 583 1072 q 536 1072 545 1072 q 525 1072 527 1072 q 523 1072 523 1072 q 571 1155 551 1120 q 606 1215 591 1190 q 631 1258 621 1240 q 651 1291 642 1276 l 821 1291 q 813 1281 821 1291 q 782 1247 805 1272 q 720 1180 760 1223 q 616 1072 680 1138 m 886 56 q 738 -4 820 17 q 552 -25 656 -25 q 363 5 450 -25 q 214 96 277 35 q 115 249 151 157 q 79 465 79 340 q 112 688 79 590 q 207 852 144 785 q 360 954 269 919 q 569 989 452 989 q 667 982 621 989 q 753 965 714 975 q 822 942 792 954 q 870 919 852 930 l 854 730 l 770 730 q 736 809 753 775 q 695 864 718 842 q 641 896 672 886 q 566 907 610 907 q 419 875 480 907 q 319 788 358 843 q 261 657 280 732 q 243 494 243 581 q 266 303 243 384 q 330 170 288 223 q 431 92 372 117 q 564 66 490 66 q 710 87 633 66 q 876 150 787 109 l 886 56 z "},"":{"ha":734,"x_min":77,"x_max":702,"o":"m 496 803 q 445 803 463 803 q 417 803 426 803 q 406 803 408 803 q 404 804 404 804 q 451 886 431 851 q 486 946 471 921 q 512 990 501 972 q 532 1022 522 1008 l 702 1022 q 694 1013 702 1022 q 663 979 686 1003 q 600 912 640 954 q 496 803 560 869 m 680 37 q 572 -3 635 10 q 439 -16 509 -16 q 294 7 360 -16 q 179 77 227 31 q 103 190 130 123 q 77 342 77 256 q 105 503 77 433 q 183 622 134 574 q 301 694 233 669 q 450 720 370 720 q 517 715 484 720 q 579 702 550 711 q 634 682 609 694 q 677 655 659 670 l 666 519 l 617 519 q 542 612 585 583 q 435 642 498 642 q 351 623 389 642 q 284 569 312 604 q 241 486 256 534 q 225 380 225 437 q 243 239 225 298 q 293 142 262 180 q 367 86 325 104 q 456 68 408 68 q 571 82 519 68 q 670 125 623 96 l 680 37 z "},"":{"ha":932,"x_min":79,"x_max":886,"o":"m 330 1316 q 385 1325 361 1325 q 431 1318 412 1325 l 570 1177 l 707 1318 q 729 1323 718 1322 q 749 1325 740 1325 q 779 1323 765 1325 q 808 1316 793 1320 q 724 1209 765 1263 q 640 1103 682 1156 q 607 1079 625 1087 q 570 1072 589 1072 q 536 1078 552 1072 q 507 1098 519 1084 l 330 1316 m 886 56 q 738 -4 820 17 q 552 -25 656 -25 q 363 5 450 -25 q 214 96 277 35 q 115 249 151 157 q 79 465 79 340 q 112 688 79 590 q 207 852 144 785 q 360 954 269 919 q 569 989 452 989 q 667 982 621 989 q 753 965 714 975 q 822 942 792 954 q 870 919 852 930 l 854 730 l 770 730 q 736 809 753 775 q 695 864 718 842 q 641 896 672 886 q 566 907 610 907 q 419 875 480 907 q 319 788 358 843 q 261 657 280 732 q 243 494 243 581 q 266 303 243 384 q 330 170 288 223 q 431 92 372 117 q 564 66 490 66 q 710 87 633 66 q 876 150 787 109 l 886 56 z "},"":{"ha":734,"x_min":77,"x_max":689,"o":"m 210 1047 q 266 1057 242 1057 q 312 1050 292 1057 l 450 909 l 588 1050 q 609 1055 598 1053 q 630 1057 621 1057 q 660 1054 646 1057 q 689 1047 673 1052 q 604 941 646 994 q 520 834 563 887 q 488 811 506 819 q 451 803 469 803 q 416 809 433 803 q 388 829 400 816 l 210 1047 m 680 37 q 572 -3 635 10 q 439 -16 509 -16 q 294 7 360 -16 q 179 77 227 31 q 103 190 130 123 q 77 342 77 256 q 105 503 77 433 q 183 622 134 574 q 301 694 233 669 q 450 720 370 720 q 517 715 484 720 q 579 702 550 711 q 634 682 609 694 q 677 655 659 670 l 666 519 l 617 519 q 542 612 585 583 q 435 642 498 642 q 351 623 389 642 q 284 569 312 604 q 241 486 256 534 q 225 380 225 437 q 243 239 225 298 q 293 142 262 180 q 367 86 325 104 q 456 68 408 68 q 571 82 519 68 q 670 125 623 96 l 680 37 z "},"":{"ha":1097,"x_min":53,"x_max":1018,"o":"m 296 1316 q 352 1325 328 1325 q 398 1318 378 1325 l 536 1177 l 674 1318 q 695 1323 684 1322 q 716 1325 707 1325 q 746 1323 732 1325 q 775 1316 760 1320 q 690 1209 732 1263 q 606 1103 649 1156 q 574 1079 592 1087 q 537 1072 555 1072 q 503 1078 519 1072 q 474 1098 486 1084 l 296 1316 m 278 0 q 170 -3 224 0 q 62 -9 117 -5 l 62 86 l 123 86 q 160 87 142 86 q 193 92 178 87 q 203 174 203 123 l 203 777 q 200 830 203 807 q 193 873 197 854 q 160 880 178 879 q 123 881 142 881 l 53 881 l 53 960 q 262 979 145 972 q 530 985 380 985 q 661 976 598 985 q 779 943 724 966 q 877 882 833 920 q 952 788 921 844 q 1001 656 984 732 q 1018 481 1018 581 q 992 286 1018 366 q 919 152 966 205 q 805 68 872 98 q 656 22 739 37 q 478 4 574 7 q 278 0 382 0 m 349 85 q 370 84 360 84 q 391 84 380 84 q 532 91 468 84 q 648 116 597 98 q 739 162 700 133 q 804 237 778 192 q 842 343 829 281 q 855 486 855 404 q 834 678 855 600 q 771 803 814 755 q 664 871 728 850 q 511 891 599 891 q 420 890 463 891 q 349 888 376 888 l 349 85 z "},"":{"ha":1143,"x_min":77,"x_max":1061,"o":"m 612 234 q 611 408 612 326 q 604 568 609 490 q 567 599 589 585 q 522 622 545 612 q 473 637 498 632 q 426 642 448 642 q 336 621 373 642 q 276 562 300 600 q 242 469 253 523 q 232 349 232 414 q 280 137 232 205 q 422 68 328 68 q 486 80 456 68 q 541 112 516 91 q 584 164 566 134 q 612 234 602 195 m 755 182 q 758 116 755 144 q 766 68 762 89 l 884 68 l 884 10 q 805 -3 849 1 q 709 -8 762 -8 q 667 -7 685 -8 q 638 0 650 -6 q 621 19 627 6 q 615 57 615 33 l 615 90 q 565 41 593 61 q 507 8 538 21 q 444 -11 477 -5 q 378 -16 411 -16 q 261 6 315 -16 q 165 73 206 28 q 100 185 124 118 q 77 341 77 252 q 98 504 77 433 q 158 625 119 576 q 255 700 198 674 q 385 725 313 725 q 510 702 455 725 q 610 635 566 680 l 610 918 q 606 977 610 954 q 579 984 593 981 q 547 987 565 987 l 481 987 l 481 1046 q 575 1059 515 1054 q 711 1064 635 1064 q 732 1064 722 1064 q 749 1062 742 1063 q 754 1037 753 1050 q 755 1008 755 1023 l 755 182 m 905 679 q 886 684 895 679 q 865 711 878 690 q 892 752 880 731 q 912 799 904 774 q 926 854 920 825 q 934 920 931 884 q 912 924 922 920 q 895 936 902 928 q 883 951 887 943 q 878 969 878 960 q 886 1014 878 996 q 907 1042 895 1032 q 934 1057 919 1053 q 964 1061 949 1061 q 1011 1055 992 1061 q 1041 1040 1029 1050 q 1056 1015 1052 1029 q 1061 984 1061 1001 q 1049 900 1061 943 q 1017 817 1038 857 q 968 741 996 777 q 905 679 939 705 z "},"":{"ha":1097,"x_min":53,"x_max":1018,"o":"m 278 0 q 175 -3 225 0 q 71 -9 124 -5 q 66 -9 68 -9 q 62 -9 64 -9 l 62 86 l 123 86 q 160 87 142 86 q 193 92 178 87 q 203 174 203 123 l 203 456 l 80 456 l 80 503 q 84 527 80 518 q 95 539 88 535 q 113 544 102 543 q 136 545 123 545 l 203 545 l 203 777 q 200 830 203 807 q 193 873 197 854 q 160 880 178 879 q 123 881 142 881 l 53 881 l 53 960 q 262 979 145 972 q 530 985 380 985 q 661 976 598 985 q 779 943 724 966 q 877 882 833 920 q 952 788 921 844 q 1001 656 984 732 q 1018 481 1018 581 q 992 286 1018 366 q 919 152 966 205 q 805 68 872 98 q 656 22 739 37 q 478 4 574 7 q 278 0 382 0 m 349 85 q 367 84 358 85 q 384 84 375 84 l 418 84 q 609 103 527 84 q 746 168 691 121 q 828 291 800 214 q 855 486 855 368 q 834 678 855 600 q 771 803 814 755 q 664 871 728 850 q 511 891 599 891 q 420 890 463 891 q 349 888 376 888 l 349 545 l 474 545 l 474 510 q 467 474 474 487 q 441 456 459 462 l 349 456 l 349 85 z "},"":{"ha":908,"x_min":77,"x_max":884,"o":"m 484 805 l 484 852 q 488 876 484 867 q 499 888 492 884 q 517 893 507 892 q 540 895 527 895 l 610 895 l 610 918 q 606 977 610 954 q 579 984 593 981 q 547 987 565 987 l 481 987 l 481 1046 q 575 1059 515 1054 q 711 1064 635 1064 q 732 1064 722 1064 q 749 1062 742 1063 q 754 1037 753 1050 q 755 1008 755 1023 l 755 895 l 878 895 l 878 859 q 871 824 878 836 q 846 805 863 811 l 755 805 l 755 182 q 758 116 755 144 q 766 68 762 89 l 884 68 l 884 10 q 805 -3 849 1 q 709 -8 762 -8 q 667 -7 685 -8 q 638 0 650 -6 q 621 19 627 6 q 615 57 615 33 l 615 90 q 565 41 593 61 q 507 8 538 21 q 444 -11 477 -5 q 378 -16 411 -16 q 261 6 315 -16 q 165 73 206 28 q 100 185 124 118 q 77 341 77 252 q 98 504 77 433 q 158 625 119 576 q 255 700 198 674 q 385 725 313 725 q 510 702 455 725 q 610 635 566 680 l 610 805 l 484 805 m 612 234 q 611 408 612 326 q 604 568 609 490 q 567 599 589 585 q 522 622 545 612 q 473 637 498 632 q 426 642 448 642 q 336 621 373 642 q 276 562 300 600 q 242 469 253 523 q 232 349 232 414 q 280 137 232 205 q 422 68 328 68 q 486 80 456 68 q 541 112 516 91 q 584 164 566 134 q 612 234 602 195 z "},"":{"ha":922,"x_min":53,"x_max":861,"o":"m 817 975 l 835 887 q 842 853 838 870 q 847 820 845 836 q 851 793 850 805 q 853 776 853 782 l 753 772 l 748 806 q 742 837 745 821 q 732 869 738 854 q 667 884 709 880 q 558 888 626 888 q 537 888 550 888 q 500 887 524 888 q 440 886 476 887 q 349 884 404 885 l 349 542 l 580 542 q 605 544 593 542 q 627 552 617 545 q 646 575 637 559 q 662 617 654 590 l 697 617 q 695 493 697 555 q 688 376 692 431 l 646 376 q 630 418 637 401 q 612 444 622 434 q 589 457 602 453 q 557 460 576 460 l 349 460 l 349 85 l 659 85 q 721 92 693 85 q 759 109 748 99 q 769 151 764 124 q 777 222 774 177 q 818 221 794 222 q 861 220 841 220 l 861 142 q 859 74 861 109 q 854 14 857 39 q 811 4 834 8 q 758 -4 789 -1 q 687 -8 728 -7 q 589 -9 646 -9 q 509 -8 547 -9 q 432 -5 470 -7 q 356 -1 394 -3 q 276 0 317 0 q 168 -1 220 0 q 60 -9 115 -3 l 60 85 l 121 85 q 159 86 141 85 q 191 92 176 87 q 201 174 201 120 l 201 796 q 198 841 201 822 q 190 874 195 860 q 161 880 177 880 q 128 881 146 881 l 53 881 l 53 954 q 209 970 119 966 q 401 975 299 975 l 817 975 m 720 1 q 643 -81 669 -40 q 616 -156 616 -121 q 622 -189 616 -176 q 636 -209 627 -201 q 657 -220 646 -217 q 681 -224 669 -224 q 725 -217 706 -224 q 755 -205 744 -210 q 772 -255 768 -221 q 707 -286 743 -275 q 633 -296 671 -296 q 580 -290 604 -296 q 539 -271 556 -284 q 513 -238 522 -258 q 503 -191 503 -218 q 520 -127 503 -158 q 563 -70 537 -96 q 621 -21 589 -43 q 682 16 652 1 l 720 1 z "},"":{"ha":794,"x_min":77,"x_max":724,"o":"m 577 410 q 578 415 578 412 q 578 421 578 418 q 569 506 578 466 q 541 577 560 547 q 489 626 521 608 q 412 644 458 644 q 276 585 322 644 q 223 410 229 525 l 577 410 m 709 113 q 603 15 671 45 q 438 -16 535 -16 q 289 8 356 -16 q 175 80 222 33 q 102 195 128 127 q 77 352 77 264 q 102 506 77 437 q 174 621 127 574 q 287 694 220 669 q 435 720 353 720 q 549 701 496 720 q 641 647 602 682 q 702 562 680 612 q 724 447 724 511 q 718 385 724 408 q 699 350 711 362 q 667 334 686 338 q 621 330 648 330 l 224 330 q 293 134 231 199 q 460 68 355 68 q 563 85 515 68 q 651 139 610 102 l 709 113 m 547 1 q 470 -81 496 -40 q 443 -156 443 -121 q 449 -189 443 -176 q 464 -209 454 -201 q 485 -220 473 -217 q 508 -224 496 -224 q 552 -217 533 -224 q 583 -205 571 -210 q 599 -255 595 -221 q 534 -286 570 -275 q 460 -296 498 -296 q 407 -290 431 -296 q 366 -271 383 -284 q 340 -238 349 -258 q 330 -191 330 -218 q 347 -127 330 -158 q 390 -70 364 -96 q 448 -21 416 -43 q 509 16 479 1 l 547 1 z "},"":{"ha":920,"x_min":53,"x_max":861,"o":"m 370 1316 q 425 1325 401 1325 q 471 1318 452 1325 l 610 1177 l 747 1318 q 769 1323 758 1322 q 789 1325 780 1325 q 819 1323 805 1325 q 848 1316 833 1320 q 764 1209 805 1263 q 680 1103 722 1156 q 647 1079 665 1087 q 610 1072 629 1072 q 576 1078 592 1072 q 547 1098 559 1084 l 370 1316 m 817 975 l 835 887 q 842 853 838 870 q 847 820 845 836 q 851 793 850 805 q 853 776 853 782 l 753 772 l 748 806 q 742 837 745 821 q 732 869 738 854 q 667 884 709 880 q 558 888 626 888 q 537 888 550 888 q 500 887 524 888 q 440 886 476 887 q 349 884 404 885 l 349 542 l 580 542 q 605 544 593 542 q 627 552 617 545 q 646 575 637 559 q 662 617 654 590 l 697 617 q 695 493 697 555 q 688 376 692 431 l 646 376 q 630 418 637 401 q 612 444 622 434 q 589 457 602 453 q 557 460 576 460 l 349 460 l 349 85 l 659 85 q 721 92 693 85 q 759 109 748 99 q 769 151 764 124 q 777 222 774 177 q 818 221 794 222 q 861 220 841 220 l 861 142 q 859 74 861 109 q 854 14 857 39 q 811 4 834 8 q 758 -4 789 -1 q 687 -8 728 -7 q 589 -9 646 -9 q 509 -8 547 -9 q 432 -5 470 -7 q 356 -1 394 -3 q 276 0 317 0 q 168 -1 220 0 q 60 -9 115 -3 l 60 85 l 121 85 q 159 86 141 85 q 191 92 176 87 q 201 174 201 120 l 201 796 q 198 841 201 822 q 190 874 195 860 q 161 880 177 880 q 128 881 146 881 l 53 881 l 53 954 q 209 970 119 966 q 401 975 299 975 l 817 975 z "},"":{"ha":794,"x_min":77,"x_max":724,"o":"m 196 1047 q 252 1057 228 1057 q 298 1050 278 1057 l 436 909 l 574 1050 q 595 1055 584 1053 q 616 1057 606 1057 q 645 1054 631 1057 q 675 1047 659 1052 q 590 941 631 994 q 506 834 549 887 q 473 811 492 819 q 437 803 455 803 q 402 809 418 803 q 374 829 386 816 l 196 1047 m 577 410 q 578 415 578 412 q 578 421 578 418 q 569 506 578 466 q 541 577 560 547 q 489 626 521 608 q 412 644 458 644 q 276 585 322 644 q 223 410 229 525 l 577 410 m 709 113 q 603 15 671 45 q 438 -16 535 -16 q 289 8 356 -16 q 175 80 222 33 q 102 195 128 127 q 77 352 77 264 q 102 506 77 437 q 174 621 127 574 q 287 694 220 669 q 435 720 353 720 q 549 701 496 720 q 641 647 602 682 q 702 562 680 612 q 724 447 724 511 q 718 385 724 408 q 699 350 711 362 q 667 334 686 338 q 621 330 648 330 l 224 330 q 293 134 231 199 q 460 68 355 68 q 563 85 515 68 q 651 139 610 102 l 709 113 z "},"":{"ha":920,"x_min":25,"x_max":885,"o":"m 885 8 q 805 -5 852 -1 q 706 -9 757 -9 q 676 -6 691 -9 q 648 2 661 -4 q 628 20 636 9 q 621 50 621 31 q 623 115 621 83 q 625 191 625 148 l 625 437 q 617 543 625 503 q 596 605 610 583 q 560 634 582 627 q 509 642 538 642 q 434 629 471 642 q 369 596 397 616 q 321 553 340 576 q 300 507 302 529 l 300 153 q 301 107 300 125 q 311 78 303 90 q 335 59 319 66 q 381 48 351 53 l 387 -9 q 298 -2 338 -5 q 219 0 258 0 q 145 -2 182 0 q 68 -9 109 -4 l 71 48 q 119 58 102 52 q 144 73 136 63 q 153 98 152 83 q 155 136 155 113 l 155 780 l 29 780 l 29 863 l 155 863 l 155 918 q 154 948 155 933 q 149 977 153 964 q 123 984 138 981 q 92 987 109 987 l 25 987 l 25 1046 q 115 1059 58 1054 q 241 1065 171 1065 q 275 1062 263 1065 q 292 1053 287 1060 q 299 1034 298 1046 q 300 1000 300 1021 l 300 863 l 427 863 l 427 780 l 300 780 l 300 623 q 418 694 349 669 q 560 720 486 720 q 720 667 670 720 q 770 505 770 614 l 770 182 q 773 116 770 144 q 781 68 777 89 l 885 68 l 885 8 z "},"":{"ha":537,"x_min":3,"x_max":530,"o":"m 168 1238 q 225 1227 199 1238 q 277 1202 252 1216 q 327 1177 302 1188 q 378 1166 351 1166 q 407 1173 393 1166 q 431 1191 420 1181 q 450 1212 442 1201 q 460 1227 457 1222 q 530 1208 496 1227 q 456 1107 495 1143 q 371 1072 418 1072 q 308 1083 338 1072 q 252 1108 279 1095 q 201 1133 225 1122 q 153 1145 176 1145 q 124 1137 138 1145 q 100 1119 111 1129 q 82 1099 90 1109 q 70 1084 74 1088 q 36 1088 52 1084 q 3 1102 20 1092 q 44 1171 22 1144 q 86 1213 65 1198 q 129 1233 108 1227 q 168 1238 149 1238 m 54 85 l 114 85 q 152 86 134 85 q 184 92 169 87 q 195 174 195 121 l 195 805 q 192 849 195 831 q 184 882 189 867 q 152 889 169 888 q 114 890 134 890 l 53 890 l 53 964 q 151 972 100 970 q 267 975 203 975 q 388 973 332 975 q 484 964 444 972 l 484 890 l 422 890 q 385 889 402 890 q 352 882 368 888 q 345 849 348 867 q 342 805 342 831 l 342 176 q 345 127 342 147 q 352 92 348 107 q 385 86 368 87 q 422 85 402 85 l 483 85 l 483 -9 q 384 -1 430 -3 q 292 0 337 0 q 173 -1 231 0 q 54 -9 115 -3 l 54 85 z "},"":{"ha":444,"x_min":-20,"x_max":507,"o":"m 144 970 q 202 959 176 970 q 254 933 229 947 q 304 908 279 920 q 355 897 328 897 q 384 905 370 897 q 408 922 397 912 q 427 943 419 932 q 437 959 434 954 q 507 940 473 959 q 433 839 472 874 q 348 803 395 803 q 285 814 315 803 q 229 840 256 826 q 178 865 202 853 q 130 876 153 876 q 101 868 115 876 q 77 850 88 861 q 59 830 66 840 q 47 815 51 820 q 13 819 29 815 q -20 833 -3 823 q 21 902 -1 876 q 63 944 42 929 q 105 964 85 959 q 144 970 126 970 m 161 569 q 159 599 161 585 q 155 627 158 614 q 97 637 132 637 l 32 637 l 32 696 q 119 709 65 703 q 243 714 174 714 q 286 711 273 714 q 305 696 298 707 l 305 154 q 314 79 305 109 q 341 66 326 71 q 374 61 356 61 l 414 61 l 421 5 q 341 -8 386 -4 q 241 -12 296 -12 q 211 -9 227 -12 q 184 0 196 -7 q 164 17 172 6 q 156 47 156 28 q 158 113 156 80 q 161 188 161 145 l 161 569 z "},"":{"ha":444,"x_min":32,"x_max":421,"o":"m 161 569 q 159 599 161 585 q 155 627 158 614 q 97 637 132 637 l 32 637 l 32 696 q 119 709 65 703 q 243 714 174 714 q 286 711 273 714 q 305 696 298 707 l 305 154 q 314 79 305 109 q 341 66 326 71 q 374 61 356 61 l 414 61 l 421 5 q 341 -8 386 -4 q 241 -12 296 -12 q 211 -9 227 -12 q 184 0 196 -7 q 164 17 172 6 q 156 47 156 28 q 158 113 156 80 q 161 188 161 145 l 161 569 z "},"":{"ha":1066,"x_min":53,"x_max":1174,"o":"m 54 85 l 114 85 q 152 86 134 85 q 184 92 169 87 q 195 174 195 121 l 195 805 q 192 849 195 831 q 184 882 189 867 q 152 889 169 888 q 114 890 134 890 l 53 890 l 53 964 q 151 972 100 970 q 267 975 203 975 q 388 973 332 975 q 484 964 444 972 l 484 890 l 422 890 q 385 889 402 890 q 352 882 368 888 q 345 849 348 867 q 342 805 342 831 l 342 176 q 345 127 342 147 q 352 92 348 107 q 385 86 368 87 q 422 85 402 85 l 483 85 l 483 -9 q 384 -1 430 -3 q 292 0 337 0 q 173 -1 231 0 q 54 -9 115 -3 l 54 85 m 1031 214 q 1014 68 1031 131 q 966 -36 997 5 q 890 -99 935 -78 q 789 -120 845 -120 q 738 -117 770 -120 q 669 -108 705 -114 q 602 -93 634 -102 q 551 -72 569 -84 q 551 -57 551 -69 q 553 -19 552 -44 q 557 47 555 7 q 564 145 560 87 l 660 141 q 667 85 663 114 q 677 32 672 56 q 688 -24 682 3 q 716 -30 702 -27 q 742 -33 728 -32 q 770 -35 756 -35 q 830 -16 807 -35 q 864 39 852 3 q 879 124 876 74 q 883 238 883 175 l 883 801 q 872 882 883 854 q 840 889 858 888 q 802 890 823 890 l 741 890 l 741 964 q 839 972 788 970 q 952 975 890 975 q 1075 973 1018 975 q 1174 964 1131 972 l 1174 890 l 1112 890 q 1074 889 1091 890 q 1042 882 1056 888 q 1031 800 1031 852 l 1031 214 z "},"":{"ha":902,"x_min":32,"x_max":802,"o":"m 139 954 q 165 1023 139 998 q 232 1049 191 1049 q 269 1042 252 1049 q 298 1023 286 1036 q 318 994 311 1011 q 325 954 325 976 q 318 917 325 934 q 298 887 311 899 q 269 867 286 874 q 232 861 252 861 q 195 867 212 861 q 165 887 178 874 q 146 917 153 899 q 139 954 139 934 m 421 7 q 341 -5 386 -1 q 241 -9 296 -9 q 211 -6 227 -9 q 184 2 196 -4 q 164 20 172 9 q 156 50 156 31 q 158 115 156 83 q 161 191 161 148 l 161 571 q 160 599 161 585 q 156 625 159 613 q 98 635 132 635 l 32 635 l 32 700 q 57 704 40 702 q 97 709 75 707 q 144 712 119 711 q 196 713 170 713 q 257 710 229 713 q 305 700 286 707 l 305 182 q 309 116 305 144 q 317 68 312 89 l 414 68 l 421 7 m 781 58 q 724 -176 781 -98 q 555 -254 666 -254 q 493 -250 524 -254 q 437 -240 462 -245 q 380 -226 407 -234 l 412 -38 q 439 -43 427 -41 q 463 -47 451 -45 q 484 -50 475 -49 q 485 -91 484 -71 q 488 -127 487 -111 q 493 -163 490 -146 q 521 -167 507 -165 q 545 -170 532 -168 q 567 -171 557 -171 q 605 -151 591 -171 q 626 -97 618 -130 q 635 -19 633 -63 q 637 71 637 24 l 637 571 q 636 599 637 585 q 632 625 635 613 q 574 635 608 635 l 508 635 l 508 700 q 533 704 516 702 q 573 709 551 707 q 621 712 595 711 q 672 713 646 713 q 733 710 705 713 q 781 700 762 707 l 781 58 m 616 954 q 623 994 616 976 q 642 1023 630 1011 q 671 1042 654 1036 q 709 1049 688 1049 q 746 1042 729 1049 q 775 1023 763 1036 q 794 994 787 1011 q 802 954 802 976 q 794 917 802 934 q 775 887 787 899 q 746 867 763 874 q 709 861 729 861 q 671 867 688 861 q 642 887 654 874 q 623 917 630 899 q 616 954 616 934 z "},"":{"ha":694,"x_min":32,"x_max":655,"o":"m 654 1084 q 618 1072 646 1072 l 563 1072 l 434 1202 l 302 1072 l 250 1072 q 212 1084 220 1072 q 219 1096 216 1090 q 227 1109 222 1101 l 366 1291 l 500 1291 l 640 1109 q 648 1096 644 1101 q 654 1084 651 1090 m 512 214 q 495 68 512 131 q 447 -36 478 5 q 371 -99 416 -78 q 271 -120 326 -120 q 219 -117 252 -120 q 151 -108 186 -114 q 83 -93 115 -102 q 32 -72 50 -84 q 33 -57 32 -69 q 35 -19 33 -44 q 39 47 36 7 q 45 145 41 87 l 141 141 q 149 85 144 114 q 158 32 153 56 q 170 -24 163 3 q 197 -30 183 -27 q 223 -33 210 -32 q 251 -35 237 -35 q 311 -16 288 -35 q 345 39 334 3 q 360 124 357 74 q 364 238 364 175 l 364 801 q 353 882 364 854 q 321 889 339 888 q 283 890 304 890 l 222 890 l 222 964 q 320 972 269 970 q 433 975 372 975 q 556 973 499 975 q 655 964 612 972 l 655 890 l 593 890 q 555 889 572 890 q 523 882 537 888 q 512 800 512 852 l 512 214 z "},"":{"ha":587,"x_min":37,"x_max":551,"o":"m 551 815 q 515 803 543 803 l 460 803 l 331 933 l 199 803 l 147 803 q 109 815 117 803 q 116 827 113 822 q 124 840 119 833 l 262 1022 l 397 1022 l 536 840 q 545 827 541 833 q 551 815 548 822 m 439 58 q 381 -176 439 -98 q 213 -254 323 -254 q 151 -250 182 -254 q 94 -240 119 -245 q 37 -226 64 -234 l 69 -38 q 97 -43 84 -41 q 120 -47 109 -45 q 141 -50 132 -49 q 143 -91 141 -71 q 146 -127 144 -111 q 151 -163 148 -146 q 178 -167 165 -165 q 202 -170 190 -168 q 224 -171 215 -171 q 262 -151 248 -171 q 283 -97 276 -130 q 292 -19 290 -63 q 294 71 294 24 l 294 571 q 293 599 294 585 q 290 625 292 613 q 231 635 265 635 l 165 635 l 165 700 q 191 704 174 702 q 230 709 208 707 q 278 712 252 711 q 330 713 304 713 q 391 710 362 713 q 439 700 420 707 l 439 58 z "},"":{"ha":844,"x_min":25,"x_max":846,"o":"m 494 -475 q 465 -463 473 -475 l 456 -442 q 497 -362 479 -410 q 521 -259 516 -315 l 523 -233 q 501 -229 511 -233 q 483 -218 490 -225 q 470 -203 475 -212 q 466 -185 466 -195 q 476 -139 468 -157 q 497 -111 485 -121 q 524 -96 509 -100 q 553 -92 539 -92 q 629 -113 608 -92 q 650 -168 650 -134 q 637 -258 650 -214 q 604 -340 625 -301 q 554 -414 583 -380 q 494 -475 526 -448 m 71 49 q 119 58 102 53 q 144 74 136 64 q 153 99 152 83 q 155 136 155 114 l 155 907 q 154 942 155 925 q 149 977 153 960 q 123 983 138 981 q 91 986 109 986 l 25 986 l 25 1045 q 71 1053 44 1049 q 130 1058 98 1056 q 196 1063 161 1061 q 266 1066 231 1065 q 294 1033 288 1051 q 300 987 300 1014 l 300 355 l 479 528 q 557 623 556 602 q 531 635 557 635 l 531 700 l 825 700 l 825 635 l 799 635 q 768 631 785 635 q 736 621 752 627 q 708 607 721 614 q 686 591 694 599 l 454 384 l 705 98 q 725 82 712 90 q 753 68 738 74 q 786 58 769 62 q 817 55 802 55 q 837 57 829 55 l 846 -9 q 763 -2 804 -5 q 680 0 722 0 q 595 -2 637 0 q 509 -9 553 -5 l 509 51 q 533 52 524 51 q 542 62 542 54 q 524 90 534 75 q 498 121 513 104 l 336 319 l 300 293 l 300 153 q 301 108 300 126 q 311 78 303 90 q 335 60 319 66 q 381 49 351 54 l 385 -9 q 301 -2 338 -5 q 227 0 264 0 q 150 -2 189 0 q 68 -9 112 -4 l 71 49 z "},"":{"ha":844,"x_min":23,"x_max":844,"o":"m 68 49 q 117 58 100 53 q 142 74 134 64 q 151 99 150 83 q 153 136 153 114 l 153 557 q 152 592 153 575 q 147 627 151 610 q 121 633 136 631 q 89 636 107 636 l 23 636 l 23 695 q 69 703 42 699 q 127 708 96 706 q 194 713 159 711 q 264 716 229 715 q 292 683 286 701 q 298 637 298 664 l 298 355 l 477 528 q 555 623 554 602 q 529 635 555 635 l 529 700 l 823 700 l 823 635 l 797 635 q 766 631 783 635 q 734 621 750 627 q 706 607 719 614 q 684 591 692 599 l 452 384 l 703 98 q 723 82 710 90 q 751 68 736 74 q 784 58 767 62 q 815 55 800 55 q 835 57 827 55 l 844 -9 q 761 -2 802 -5 q 677 0 720 0 q 593 -2 635 0 q 507 -9 551 -5 l 507 51 q 531 52 522 51 q 540 62 540 54 q 522 90 532 75 q 496 121 511 104 l 334 319 l 298 293 l 298 153 q 299 108 298 126 q 309 78 301 90 q 333 60 317 66 q 379 49 349 54 l 382 -9 q 299 -2 336 -5 q 225 0 262 0 q 148 -2 186 0 q 66 -9 110 -4 l 68 49 z "},"":{"ha":903,"x_min":53,"x_max":844,"o":"m 495 1072 q 443 1072 462 1072 q 415 1072 425 1072 q 404 1072 406 1072 q 402 1072 402 1072 q 450 1155 430 1120 q 485 1215 470 1190 q 510 1258 500 1240 q 530 1291 521 1276 l 701 1291 q 692 1281 701 1291 q 662 1247 684 1272 q 599 1180 639 1223 q 495 1072 559 1138 m 269 0 q 161 -2 214 0 q 54 -9 109 -3 l 54 85 l 114 85 q 152 86 134 85 q 184 92 169 87 q 195 174 195 121 l 195 801 q 192 847 195 827 q 184 882 189 867 q 152 889 169 888 q 114 890 134 890 l 53 890 l 53 964 q 151 972 100 970 q 267 975 203 975 q 388 973 332 975 q 486 964 444 972 l 486 890 l 422 890 q 386 889 403 890 q 353 882 368 888 q 346 847 348 867 q 343 801 343 827 l 343 85 l 602 85 q 665 88 636 85 q 716 103 693 90 q 756 143 739 115 q 786 222 773 171 l 844 214 l 819 0 q 703 -7 760 -4 q 591 -9 646 -9 q 408 -5 490 -9 q 269 0 326 0 z "},"":{"ha":431,"x_min":18,"x_max":652,"o":"m 149 908 q 147 943 149 926 q 142 977 146 961 q 116 984 131 981 q 83 987 102 987 l 18 987 l 18 1046 q 101 1058 50 1053 q 219 1064 153 1064 q 267 1061 252 1064 q 292 1046 283 1057 l 292 182 q 295 116 292 144 q 303 68 298 89 l 414 68 l 414 7 q 332 -5 378 -1 q 229 -9 287 -9 q 199 -6 214 -9 q 172 2 184 -4 q 152 20 159 9 q 144 50 144 31 q 146 115 144 83 q 149 191 149 148 l 149 908 m 447 933 q 395 933 414 933 q 367 933 376 933 q 356 933 358 933 q 354 934 354 934 q 402 1016 382 981 q 437 1077 422 1051 q 462 1120 452 1102 q 482 1152 473 1138 l 652 1152 q 644 1143 652 1152 q 613 1109 636 1133 q 551 1042 591 1084 q 447 933 511 1000 z "},"":{"ha":903,"x_min":53,"x_max":844,"o":"m 603 606 q 573 618 582 606 l 564 639 q 606 719 587 671 q 629 822 625 766 l 631 848 q 609 852 620 848 q 591 863 599 856 q 579 878 583 869 q 574 896 574 886 q 585 942 576 924 q 606 970 593 960 q 633 985 618 981 q 662 989 648 989 q 738 968 717 989 q 758 913 758 947 q 746 823 758 867 q 712 741 733 780 q 663 667 691 701 q 603 606 634 633 m 269 0 q 161 -2 214 0 q 54 -9 109 -3 l 54 85 l 114 85 q 152 86 134 85 q 184 92 169 87 q 195 174 195 121 l 195 801 q 192 847 195 827 q 184 882 189 867 q 152 889 169 888 q 114 890 134 890 l 53 890 l 53 964 q 151 972 100 970 q 267 975 203 975 q 388 973 332 975 q 486 964 444 972 l 486 890 l 422 890 q 386 889 403 890 q 353 882 368 888 q 346 847 348 867 q 343 801 343 827 l 343 85 l 602 85 q 665 88 636 85 q 716 103 693 90 q 756 143 739 115 q 786 222 773 171 l 844 214 l 819 0 q 703 -7 760 -4 q 591 -9 646 -9 q 408 -5 490 -9 q 269 0 326 0 z "},"":{"ha":665,"x_min":18,"x_max":607,"o":"m 149 908 q 147 943 149 926 q 142 977 146 961 q 116 984 131 981 q 83 987 102 987 l 18 987 l 18 1046 q 101 1058 50 1053 q 219 1064 153 1064 q 267 1061 252 1064 q 292 1046 283 1057 l 292 182 q 295 116 292 144 q 303 68 298 89 l 414 68 l 414 7 q 332 -5 378 -1 q 229 -9 287 -9 q 199 -6 214 -9 q 172 2 184 -4 q 152 20 159 9 q 144 50 144 31 q 146 115 144 83 q 149 191 149 148 l 149 908 m 451 679 q 433 684 441 679 q 412 711 424 690 q 438 752 427 731 q 458 799 450 774 q 472 854 467 825 q 480 920 477 884 q 458 924 469 920 q 441 936 448 928 q 429 951 433 943 q 425 969 425 960 q 433 1014 425 996 q 453 1042 441 1032 q 480 1057 465 1053 q 510 1061 496 1061 q 557 1055 538 1061 q 587 1040 576 1050 q 603 1015 598 1029 q 607 984 607 1001 q 595 900 607 943 q 563 817 584 857 q 514 741 543 777 q 451 679 486 705 z "},"":{"ha":903,"x_min":53,"x_max":844,"o":"m 460 489 q 466 519 460 505 q 483 543 472 533 q 507 559 493 553 q 536 566 521 566 q 566 559 552 566 q 590 543 580 553 q 607 519 601 533 q 613 489 613 505 q 607 459 613 473 q 590 435 601 446 q 566 419 580 425 q 536 413 552 413 q 507 419 521 413 q 483 435 493 425 q 466 459 472 446 q 460 489 460 473 m 269 0 q 161 -2 214 0 q 54 -9 109 -3 l 54 85 l 114 85 q 152 86 134 85 q 184 92 169 87 q 195 174 195 121 l 195 801 q 192 847 195 827 q 184 882 189 867 q 152 889 169 888 q 114 890 134 890 l 53 890 l 53 964 q 151 972 100 970 q 267 975 203 975 q 388 973 332 975 q 486 964 444 972 l 486 890 l 422 890 q 386 889 403 890 q 353 882 368 888 q 346 847 348 867 q 343 801 343 827 l 343 85 l 602 85 q 665 88 636 85 q 716 103 693 90 q 756 143 739 115 q 786 222 773 171 l 844 214 l 819 0 q 703 -7 760 -4 q 591 -9 646 -9 q 408 -5 490 -9 q 269 0 326 0 z "},"":{"ha":739,"x_min":18,"x_max":616,"o":"m 149 908 q 147 943 149 926 q 142 977 146 961 q 116 984 131 981 q 83 987 102 987 l 18 987 l 18 1046 q 101 1058 50 1053 q 219 1064 153 1064 q 267 1061 252 1064 q 292 1046 283 1057 l 292 182 q 295 116 292 144 q 303 68 298 89 l 414 68 l 414 7 q 332 -5 378 -1 q 229 -9 287 -9 q 199 -6 214 -9 q 172 2 184 -4 q 152 20 159 9 q 144 50 144 31 q 146 115 144 83 q 149 191 149 148 l 149 908 m 463 405 q 469 435 463 421 q 485 459 475 449 q 510 475 496 469 q 539 481 524 481 q 569 475 555 481 q 593 459 583 469 q 610 435 604 449 q 616 405 616 421 q 610 375 616 389 q 593 351 604 361 q 569 335 583 341 q 539 329 555 329 q 510 335 524 329 q 485 351 496 341 q 469 375 475 361 q 463 405 463 389 z "},"":{"ha":909,"x_min":53,"x_max":844,"o":"m 269 0 q 161 -2 214 0 q 54 -9 109 -3 l 54 85 l 114 85 q 152 86 134 85 q 184 92 169 87 q 195 174 195 121 l 195 355 l 56 269 l 56 369 l 195 455 l 195 801 q 192 847 195 827 q 184 882 189 867 q 152 889 169 888 q 114 890 134 890 l 53 890 l 53 964 q 151 972 100 970 q 267 975 203 975 q 388 973 332 975 q 486 964 444 972 l 486 890 l 422 890 q 386 889 403 890 q 353 882 368 888 q 346 847 348 867 q 343 801 343 827 l 343 548 l 599 707 l 599 606 l 343 447 l 343 85 l 602 85 q 665 88 636 85 q 716 103 693 90 q 756 143 739 115 q 786 222 773 171 l 844 214 l 819 0 q 703 -7 760 -4 q 591 -9 646 -9 q 408 -5 490 -9 q 269 0 326 0 z "},"":{"ha":452,"x_min":18,"x_max":414,"o":"m 149 908 q 147 943 149 926 q 142 977 146 961 q 116 984 131 981 q 83 987 102 987 l 18 987 l 18 1046 q 101 1058 50 1053 q 219 1064 153 1064 q 267 1061 252 1064 q 292 1046 283 1057 l 292 664 l 410 739 l 410 649 l 292 574 l 292 182 q 295 116 292 144 q 303 68 298 89 l 414 68 l 414 7 q 332 -5 378 -1 q 229 -9 287 -9 q 199 -6 214 -9 q 172 2 184 -4 q 152 20 159 9 q 144 50 144 31 q 146 115 144 83 q 149 191 149 148 l 149 484 l 28 408 l 28 496 l 149 573 l 149 908 z "},"":{"ha":1130,"x_min":53,"x_max":1090,"o":"m 614 1072 q 563 1072 581 1072 q 535 1072 544 1072 q 524 1072 526 1072 q 522 1072 522 1072 q 569 1155 549 1120 q 604 1215 589 1190 q 630 1258 619 1240 q 650 1291 640 1276 l 820 1291 q 812 1281 820 1291 q 781 1247 804 1272 q 718 1180 758 1223 q 614 1072 678 1138 m 209 801 q 198 882 209 854 q 165 889 183 888 q 128 890 148 890 l 53 890 l 53 964 q 100 968 78 966 q 144 971 122 970 q 188 974 165 973 q 239 975 211 975 q 305 974 275 975 q 360 966 334 972 q 482 777 419 875 q 608 578 545 679 q 733 377 671 477 q 852 180 795 276 q 851 268 852 216 q 849 380 850 320 q 847 502 848 439 q 845 622 846 565 q 843 726 844 680 q 842 801 842 773 q 831 882 842 854 q 799 888 817 887 q 762 890 781 890 l 693 890 l 693 964 q 788 972 739 970 q 897 975 838 975 q 1003 973 952 975 q 1090 964 1054 972 l 1090 890 l 1036 890 q 999 888 1017 890 q 966 882 981 887 q 959 847 961 867 q 956 801 956 827 q 954 605 956 709 q 949 394 952 500 q 943 183 946 287 q 937 -9 939 80 l 866 -9 q 831 -6 846 -9 q 804 5 817 -3 l 312 788 q 315 685 313 750 q 317 537 316 619 q 320 362 319 455 q 321 176 321 269 q 324 127 321 147 q 331 92 326 107 q 363 86 346 87 q 401 85 381 85 l 463 85 l 463 -9 q 371 -1 414 -3 q 286 0 328 0 q 176 -1 228 0 q 68 -9 125 -3 l 68 85 l 129 85 q 166 86 149 85 q 199 92 184 87 q 210 174 210 119 l 209 801 z "},"":{"ha":937,"x_min":39,"x_max":899,"o":"m 515 803 q 464 803 482 803 q 436 803 445 803 q 425 803 427 803 q 422 804 422 804 q 470 886 450 851 q 505 946 490 921 q 531 990 520 972 q 551 1022 541 1008 l 721 1022 q 713 1013 721 1022 q 682 979 705 1003 q 619 912 659 954 q 515 803 579 869 m 782 182 q 785 116 782 144 q 793 68 789 89 l 891 68 l 899 8 q 718 -9 830 -9 q 688 -6 703 -9 q 661 3 673 -4 q 641 21 649 9 q 633 50 633 32 q 635 118 633 83 q 637 196 637 153 l 637 441 q 628 532 637 495 q 603 592 619 569 q 566 625 587 615 q 520 635 545 635 q 464 625 493 635 q 406 599 434 615 q 354 562 378 583 q 313 519 330 541 l 313 161 q 314 112 313 131 q 323 80 315 92 q 347 61 331 68 q 394 49 363 54 l 399 -9 q 318 -2 361 -5 q 230 0 275 0 q 151 -2 189 0 q 81 -9 113 -4 l 83 49 q 132 58 115 53 q 157 74 149 64 q 166 100 165 84 q 168 140 168 115 l 168 573 q 166 600 168 587 q 163 625 165 613 q 142 632 153 630 q 115 635 131 635 l 39 635 l 39 700 q 64 704 47 702 q 102 709 81 707 q 150 712 124 711 q 201 713 175 713 q 262 710 233 713 q 309 700 291 707 l 309 614 q 366 659 335 640 q 430 692 397 679 q 498 713 464 706 q 566 720 533 720 q 648 708 609 720 q 717 670 687 696 q 764 603 747 644 q 782 505 782 562 l 782 182 z "}}}
